<?xml version="1.0" encoding="UTF-8" standalone="no"?>
<!-- Created with Inkscape (http://www.inkscape.org/) -->

<svg
   width="16.0px"
   height="16.0px"
   viewBox="0 0 16.0 16.0"
   version="1.1"
   id="SVGRoot"
   sodipodi:docname="lista.svg"
   inkscape:version="1.2.2 (b0a8486541, 2022-12-01)"
   xmlns:inkscape="http://www.inkscape.org/namespaces/inkscape"
   xmlns:sodipodi="http://sodipodi.sourceforge.net/DTD/sodipodi-0.dtd"
   xmlns="http://www.w3.org/2000/svg"
   xmlns:svg="http://www.w3.org/2000/svg">
  <sodipodi:namedview
     id="namedview2716"
     pagecolor="#ffffff"
     bordercolor="#000000"
     borderopacity="0.25"
     inkscape:showpageshadow="2"
     inkscape:pageopacity="0.0"
     inkscape:pagecheckerboard="0"
     inkscape:deskcolor="#d1d1d1"
     inkscape:document-units="px"
     showgrid="true"
     inkscape:zoom="19.02887"
     inkscape:cx="19.31276"
     inkscape:cy="9.4593109"
     inkscape:window-width="1920"
     inkscape:window-height="1008"
     inkscape:window-x="0"
     inkscape:window-y="0"
     inkscape:window-maximized="1"
     inkscape:current-layer="layer1">
    <inkscape:grid
       type="xygrid"
       id="grid2839" />
  </sodipodi:namedview>
  <defs
     id="defs2711" />
  <g
     inkscape:label="Layer 1"
     inkscape:groupmode="layer"
     id="layer1">
    <path
       style="fill:#000000;stroke-width:0.00408709"
       d="m 13.595593,12.455892 c -0.0085,-0.01585 -0.111076,-0.210971 -0.228039,-0.433619 -0.116954,-0.222648 -0.213421,-0.406252 -0.214364,-0.40801 -9.34e-4,-0.0018 0.08262,-0.0032 0.185703,-0.0032 l 0.187416,5e-6 0.135352,0.231165 c 0.07444,0.12714 0.137026,0.231166 0.139069,0.231166 0.002,0 0.126357,-0.257075 0.276257,-0.571277 0.167102,-0.350265 0.302114,-0.627615 0.348983,-0.716907 l 0.07645,-0.145634 0.226148,-3.4e-5 0.226148,-3.4e-5 -0.03206,0.06073 c -0.01763,0.03339 -0.234339,0.448065 -0.481578,0.921484 l -0.449522,0.860763 -0.19029,0.0011 -0.190288,0.0013 z"
       id="path3990"
       inkscape:connector-curvature="0" />
    <path
       style="fill:#000000;stroke-width:0.00390838"
       d="M 13.54875,5.1652436 C 13.54005,5.1512858 13.433493,4.9793047 13.312144,4.7830746 13.190793,4.5868435 13.090707,4.4250229 13.089729,4.423474 c -10e-4,-0.00153 0.08572,-0.00286 0.192676,-0.00286 l 0.194457,4e-6 0.14044,0.2037369 c 0.07724,0.1120565 0.142172,0.2037389 0.144292,0.2037389 0.0022,0 0.131104,-0.2265727 0.286634,-0.5034946 0.17338,-0.3087062 0.313466,-0.5531514 0.362096,-0.6318481 l 0.07932,-0.1283555 0.234645,-2.96e-5 0.234644,-2.97e-5 -0.03325,0.053513 c -0.01829,0.029437 -0.243145,0.3949025 -0.49967,0.8121518 l -0.466409,0.7586333 -0.197438,9.843e-4 -0.197438,9.833e-4 z"
       id="path3990-6"
       inkscape:connector-curvature="0" />
    <path
       style="fill:#000000;stroke-width:0.00348401"
       d="m 13.082146,8.8271669 c 6.56e-4,-0.00163 0.164399,-0.1968366 0.363869,-0.4338424 0.19947,-0.2370048 0.363109,-0.4334902 0.363643,-0.436635 5.75e-4,-0.00327 -0.153434,-0.196275 -0.363563,-0.4556041 -0.200492,-0.247438 -0.364531,-0.4506041 -0.364531,-0.4514801 0,-8.577e-4 0.0916,-0.00153 0.203559,-0.00143 l 0.20356,2.001e-4 0.279125,0.352248 c 0.153518,0.1937357 0.281777,0.3527382 0.285026,0.3533385 0.0041,7.965e-4 0.0867,-0.1007983 0.286221,-0.3523695 l 0.280317,-0.353459 0.203769,-6.73e-5 c 0.16208,-5.42e-5 0.203225,7.974e-4 0.201104,0.00419 -0.0016,0.00235 -0.165049,0.2047446 -0.363524,0.4497729 -0.198472,0.2450272 -0.361408,0.4485782 -0.362075,0.4523326 -8.94e-4,0.0049 0.103233,0.1309154 0.363312,0.4398615 0.200494,0.2381678 0.364533,0.4336525 0.364533,0.4344101 0,7.403e-4 -0.0916,0.00133 -0.203559,0.00123 L 14.619372,8.8297376 14.338478,8.4753005 C 14.183986,8.280361 14.055676,8.1211125 14.053345,8.1214167 14.051045,8.1217476 13.922989,8.280892 13.768849,8.475131 l -0.280257,0.3531588 -0.20382,8.903e-4 c -0.112106,4.575e-4 -0.203284,-4.574e-4 -0.202626,-0.00204 z"
       id="path4107"
       inkscape:connector-curvature="0" />
    <path
       style="fill:#000000;stroke-width:1.12008"
       d="m 1.0111125,7.1039376 0.01784,1.8376403 10.9078065,-0.024107 0.03568,-1.7892241"
       id="path2618-2"
       sodipodi:nodetypes="cccc" />
    <path
       style="fill:#000000;stroke-width:1.09156"
       d="m 0.99821314,10.65201 0.0179088,1.829909 11.0046061,-0.0341 -5.3e-4,-1.761296"
       id="path2618-6"
       sodipodi:nodetypes="cccc" />
    <path
       style="fill:#000000;stroke-width:1.09156"
       d="M 0.95108476,3.4563621 0.96899356,5.286271 11.973601,5.2521679 11.973069,3.4908717"
       id="path2618-6-1"
       sodipodi:nodetypes="cccc" />
  </g>
</svg>
