<?xml version="1.0" encoding="UTF-8" standalone="no"?>
<!-- Created with Inkscape (http://www.inkscape.org/) -->

<svg
   width="16.0px"
   height="16.0px"
   viewBox="0 0 16.0 16.0"
   version="1.1"
   id="SVGRoot"
   sodipodi:docname="valami.svg"
   inkscape:version="1.2.2 (b0a8486541, 2022-12-01)"
   xmlns:inkscape="http://www.inkscape.org/namespaces/inkscape"
   xmlns:sodipodi="http://sodipodi.sourceforge.net/DTD/sodipodi-0.dtd"
   xmlns="http://www.w3.org/2000/svg"
   xmlns:svg="http://www.w3.org/2000/svg">
  <sodipodi:namedview
     id="namedview1473"
     pagecolor="#ffffff"
     bordercolor="#000000"
     borderopacity="0.25"
     inkscape:showpageshadow="2"
     inkscape:pageopacity="0.0"
     inkscape:pagecheckerboard="0"
     inkscape:deskcolor="#d1d1d1"
     inkscape:document-units="px"
     showgrid="true"
     inkscape:zoom="26.910887"
     inkscape:cx="16.406"
     inkscape:cy="8.3237689"
     inkscape:window-width="1920"
     inkscape:window-height="1008"
     inkscape:window-x="0"
     inkscape:window-y="0"
     inkscape:window-maximized="1"
     inkscape:current-layer="layer1">
    <inkscape:grid
       type="xygrid"
       id="grid1596" />
  </sodipodi:namedview>
  <defs
     id="defs1468">
    <clipPath
       clipPathUnits="userSpaceOnUse"
       id="clipPath1260">
      <path
         id="path1262"
         style="fill:#000000;stroke-width:0.264583"
         d="M 34.225301,88.067494 V 148.9785 c 0.07943,-0.0157 0.153766,-0.0233 0.222727,-0.0243 0.517935,-0.008 0.733808,0.36702 0.555003,0.67386 0.04693,0.11086 0.08266,0.23854 0.08578,0.40256 0.0045,0.2372 -0.0027,0.47343 -0.01963,0.71003 -0.0114,0.10666 -0.01805,0.21361 -0.02791,0.32039 0.245483,-0.0862 0.496504,-0.13044 0.74621,-0.13125 1.494311,-0.005 2.931877,1.51175 2.726447,4.45709 -0.112435,1.61229 -0.08833,3.22361 -0.0021,4.83588 0.240779,2.77986 1.002842,5.49484 2.029849,8.08219 0.322368,0.81212 0.688697,1.6067 1.033013,2.40967 1.535369,3.43502 3.60577,6.56072 5.805331,9.59683 1.599951,1.27563 3.112937,2.65733 4.521687,4.14187 0.252582,0.27719 0.493808,0.56279 0.728639,0.85318 0.691155,0.21191 1.420624,0.53255 2.17661,0.97927 3.011094,1.77929 1.373198,0.81742 4.916496,2.88199 2.011931,1.17229 3.10311,2.59188 3.472656,3.92276 0.596897,0.20218 1.222883,0.48427 1.874822,0.86765 3.42679,2.01505 6.719583,4.27799 10.265523,6.08748 2.68268,1.36897 3.266901,1.49808 6.100403,2.56677 6.871258,2.24595 14.090801,3.10252 21.246763,3.89278 3.84913,0.34543 7.70572,0.728 11.57397,0.7612 2.17858,0.0187 2.71865,-0.0445 4.87825,-0.16175 2.82438,-0.26383 5.62645,-0.80692 8.30957,-1.73788 1.64029,-0.56913 2.47413,-0.96901 4.09071,-1.66966 4.87025,-2.196 9.57074,-4.74034 14.30713,-7.20525 2.71818,-1.31888 5.30609,-2.85798 7.83313,-4.49585 0.048,-1.30501 0.66263,-2.84881 2.06602,-4.43797 2.2478,-2.54534 4.4592,-5.12096 6.55308,-7.79591 2.96784,-3.78175 5.94826,-7.60449 7.76077,-12.10623 1.02217,-2.65181 2.17004,-5.40049 2.10684,-8.29252 -0.0884,-4.04797 1.90461,-6.07156 3.9455,-6.07146 0.37546,1e-5 0.75223,0.0692 1.11828,0.20618 0.0174,-0.0384 0.0375,-0.0724 0.0563,-0.10852 -0.22154,0.001 -0.32455,-0.24396 -0.092,-0.46457 -0.29197,-0.12544 -0.23954,-0.46678 0.15865,-0.46819 2.7e-4,0 8e-4,0 0.001,0 0.0513,-0.0263 0.11853,-0.0466 0.20257,-0.0574 0.0663,-0.008 0.0349,-0.005 0.094,-0.0103 0.0118,-0.001 0.0233,-0.002 0.0346,-0.002 0.081,-0.003 0.1487,0.01 0.20309,0.032 6e-5,-9e-5 5.3e-4,9e-5 5.3e-4,0 0.23225,-0.30752 0.48062,-0.5816 0.75241,-0.79375 0.0166,-0.34784 0.0228,-0.69568 0.0181,-1.04438 -0.009,-0.7157 0.34735,-1.07384 0.70848,-1.07384 0.0612,1e-5 0.12266,0.0104 0.18242,0.031 V 88.067494 Z m 0,79.743966 v 43.32294 h 47.123221 c -0.947304,-0.27028 -1.889244,-0.56203 -2.82515,-0.87798 -1.236977,-0.47566 -2.492245,-0.90643 -3.710884,-1.42731 -4.950352,-2.11587 -9.421233,-5.13673 -14.018784,-7.89822 -1.085977,-0.65229 -1.898573,-1.37162 -2.469615,-2.1053 -0.370833,-0.26076 -0.737532,-0.52797 -1.099675,-0.80047 -0.84958,-0.6688 -1.477282,-1.12221 -2.243791,-1.88257 -0.182859,-0.1814 -0.354605,-0.37433 -0.52038,-0.57309 -2.063067,-1.19948 -1.344163,-0.77537 -4.424021,-2.63912 -1.904947,-1.15276 -2.927747,-2.48509 -3.265951,-3.72587 -0.226139,-0.30559 -0.452326,-0.61115 -0.67851,-0.91674 -1.865411,-2.51209 -3.767241,-5.01729 -5.510776,-7.62072 -0.654884,-0.3496 -1.321845,-0.67637 -1.99471,-0.9865 -3.074681,-1.41737 -3.400798,-3.93895 -1.121894,-4.19148 -0.430043,-0.8196 -0.835377,-1.6537 -1.210263,-2.50527 -0.385524,-0.9081 -0.79734,-1.80556 -1.15652,-2.72439 -0.315134,-0.80613 -0.607168,-1.62271 -0.872297,-2.44791 z m 145.321359,9.4909 c -0.25133,0.53361 -0.51171,1.06296 -0.79323,1.58285 -1.65378,2.97346 -3.52062,5.85125 -5.73247,8.44289 -1.28999,1.37418 -1.42571,1.58451 -2.86494,2.84582 -2.38231,2.08779 -5.02771,3.84589 -7.58868,5.70043 -4.16212,2.87394 -8.39163,5.65027 -12.94753,7.87342 -4.85982,2.52898 -9.68467,5.13614 -14.68283,7.38663 h 44.60968 z" />
    </clipPath>
    <clipPath
       clipPathUnits="userSpaceOnUse"
       id="clipPath635">
      <path
         id="path637"
         style="fill:#000000;stroke-width:0.264583"
         d="m 35.058842,149.48183 c -0.0086,0.0469 -0.02566,0.0935 -0.05116,0.13901 0.04706,0.1107 0.078,0.24575 0.08113,0.4098 0.0035,0.18377 -2.01e-4,0.36711 -0.0098,0.55035 H 178.65576 c -0.008,-0.6116 0.25155,-0.96208 0.55242,-1.0511 v -0.0481 z" />
    </clipPath>
    <clipPath
       clipPathUnits="userSpaceOnUse"
       id="clipPath1270">
      <path
         id="path1272"
         style="fill:#000000;stroke-width:0.264582"
         d="m 179.20818,147.90797 -145.035073,2.8e-4 v 1.08109 c 0.01246,-0.003 0.02476,-0.005 0.03721,-0.008 0.08516,-0.0177 0.164389,-0.0264 0.237713,-0.0275 0.513598,-0.008 0.730363,0.36023 0.559654,0.66558 0.0027,0.006 0.0067,0.0111 0.0093,0.0177 H 177.36696 c 0.049,-0.0118 0.11097,-0.021 0.18655,-0.0261 0.0663,-0.004 0.0349,-0.003 0.0941,-0.005 0.0118,-5.6e-4 0.0233,-8.4e-4 0.0346,-0.001 0.11212,-0.002 0.19909,0.0112 0.25993,0.0326 h 1.06247 c 0.0635,-0.0504 0.13238,-0.0864 0.2036,-0.10748 z" />
    </clipPath>
  </defs>
  <g
     inkscape:label="Layer 1"
     inkscape:groupmode="layer"
     id="layer1">
    <ellipse
       style="fill:none;stroke:#000000;stroke-width:2"
       id="path234"
       clip-path="url(#clipPath1260)"
       ry="60.339535"
       rx="71.742584"
       cy="149.60115"
       cx="106.88592"
       transform="matrix(0.09008877,0,0,0.09869465,-1.69498,-4.7962033)" />
    <path
       style="fill:#000000;stroke-width:0.264583"
       d="m 34.329994,149.4818 144.878196,1.09917"
       id="path299"
       clip-path="url(#clipPath635)"
       transform="matrix(0.09008877,0,0,0.09869465,-1.69498,-4.7962033)" />
    <path
       style="fill:#000000;stroke-width:2"
       d="m 34.1733,149.00739 145.03489,0.62995 v -1.10176 L 34.1733,147.90823"
       id="path303"
       clip-path="url(#clipPath1270)"
       transform="matrix(0.09008877,0,0,0.18743026,-1.69498,-17.796837)" />
    <path
       style="fill:#000000;stroke-width:0.205158"
       d="M 7.430265,10.151516 12.397845,8.1996059 12.350387,7.9604717 7.3007888,10.008669"
       id="path806"
       sodipodi:nodetypes="cccc" />
    <path
       style="fill:#000000;stroke-width:0.0249484"
       d="M 14.336458,9.5530192 13.812074,9.6617584"
       id="path881" />
    <path
       style="fill:#000000;stroke-width:0.0249484"
       d="m 13.78384,9.459889 0.02823,0.2174726 0.566734,-0.031218 -0.05646,-0.201867"
       id="path883" />
    <path
       style="fill:#000000;stroke-width:0.0249484"
       d="m 1.4812663,9.2491563 4.671e-4,0.2196625 0.565223,0.055016 -0.030416,-0.2084904"
       id="path883-0" />
    <path
       style="fill:#000000;stroke-width:0.0249484"
       d="m 13.540862,8.3173051 0.07426,0.2040453 0.544023,-0.1767772 -0.09833,-0.1815822"
       id="path883-3" />
    <path
       style="fill:#000000;stroke-width:0.0249484"
       d="M 13.073947,7.3300604 13.17618,7.5190278 13.688613,7.252 13.565773,7.0893094"
       id="path883-6" />
    <path
       style="fill:#000000;stroke-width:0.0249484"
       d="M 12.416802,6.500141 12.566643,6.6461055 12.980694,6.2210162 12.818515,6.1069536"
       id="path883-7" />
    <path
       style="fill:#000000;stroke-width:0.0249484"
       d="M 11.546367,5.7704971 11.714811,5.8896567 12.0647,5.4002418 11.888515,5.3146728"
       id="path883-5" />
    <path
       style="fill:#000000;stroke-width:0.0249484"
       d="m 10.562685,5.2644794 0.189989,0.070219 0.229529,-0.5685308 -0.189969,-0.035591"
       id="path883-5-3" />
    <path
       style="fill:#000000;stroke-width:0.0249484"
       d="M 9.5328922,4.829775 9.730119,4.869343 9.8826969,4.270579 9.6900339,4.265369"
       id="path883-5-5" />
    <path
       style="fill:#000000;stroke-width:0.0249484"
       d="m 8.4045514,4.6602594 0.2005058,-0.0013 0.047702,-0.6194539 -0.1901717,0.034222"
       id="path883-5-6" />
    <path
       style="fill:#000000;stroke-width:0.0249484"
       d="M 7.2262081,4.6826702 7.4227157,4.6389957 7.3609302,4.0210346 7.1803066,4.0946684"
       id="path883-5-2" />
    <path
       style="fill:#000000;stroke-width:0.0249484"
       d="M 6.1404412,4.9267976 6.3160093,4.8206947 6.0882261,4.2513229 5.9359965,4.3808014"
       id="path883-5-9" />
    <path
       style="fill:#000000;stroke-width:0.0249484"
       d="M 5.0208702,5.4223203 5.1918102,5.3075086 4.9404294,4.7501767 4.7937817,4.8871711"
       id="path883-5-1" />
    <path
       style="fill:#000000;stroke-width:0.0249484"
       d="M 4.0821096,6.0095074 4.2327394,5.8645211 3.898509,5.3621408 3.7752612,5.5244599"
       id="path883-5-1-0" />
    <path
       style="fill:#000000;stroke-width:0.0249484"
       d="M 3.3106055,6.7723699 3.4436986,6.6080753 3.0552878,6.1548711 2.951324,6.3326524"
       id="path883-5-1-9" />
    <path
       style="fill:#000000;stroke-width:0.0249484"
       d="M 2.6199967,7.5744097 2.7160599,7.3815959 2.2447557,7.0353883 2.1798371,7.2341847"
       id="path883-5-1-3" />
    <path
       style="fill:#000000;stroke-width:0.0249484"
       d="M 2.2455728,8.597031 2.3136516,8.3904184 1.7996406,8.1270541 1.7631749,8.3343714"
       id="path883-5-1-6" />
    <ellipse
       id="path1198"
       style="fill:#000000;stroke:#000000;stroke-width:0.0249484"
       cx="14.334882"
       cy="9.9471531"
       rx="0.0009438353"
       ry="0.0010339966" />
    <ellipse
       id="path1200"
       style="fill:#000000;stroke:#000000;stroke-width:0.0249484"
       cx="14.370378"
       cy="10.226552"
       rx="0.0009438353"
       ry="0.0010339966" />
    <ellipse
       id="path1202"
       style="fill:#000000;stroke:#000000;stroke-width:0.0249484"
       cx="14.363319"
       cy="10.226552"
       rx="0.0009438353"
       ry="0.0010339966" />
    <ellipse
       id="path1204"
       style="fill:#000000;stroke:#000000;stroke-width:0.0249484"
       cx="14.356055"
       cy="9.9315462"
       rx="0.0009438353"
       ry="0.0010339966" />
    <ellipse
       id="path1206"
       style="fill:#000000;stroke:#000000;stroke-width:0.0249484"
       cx="14.370378"
       cy="9.9315462"
       rx="0.0009438353"
       ry="0.0010339966" />
    <ellipse
       id="path1208"
       style="fill:#000000;stroke:#000000;stroke-width:0.0249484"
       cx="14.476666"
       cy="9.9626398"
       rx="0.0009438353"
       ry="0.0010339966" />
    <ellipse
       id="path1210"
       style="fill:#000000;stroke:#000000;stroke-width:0.0249484"
       cx="14.476666"
       cy="9.9548321"
       rx="0.0009438353"
       ry="0.0010339966" />
    <ellipse
       id="path1212"
       style="fill:#000000;stroke:#000000;stroke-width:0.0249484"
       cx="14.462342"
       cy="10.226552"
       rx="0.0009438353"
       ry="0.0010339966" />
    <path
       style="fill:#000000;stroke-width:0.0249484"
       d="m 14.363321,9.9626345 h 0.113347 v 0.2639185"
       id="path1214" />
  </g>
</svg>
