<?xml version="1.0" encoding="UTF-8" standalone="no"?>
<!-- Created with Inkscape (http://www.inkscape.org/) -->

<svg
   xmlns:dc="http://purl.org/dc/elements/1.1/"
   xmlns:cc="http://creativecommons.org/ns#"
   xmlns:rdf="http://www.w3.org/1999/02/22-rdf-syntax-ns#"
   xmlns:svg="http://www.w3.org/2000/svg"
   xmlns="http://www.w3.org/2000/svg"
   xmlns:sodipodi="http://sodipodi.sourceforge.net/DTD/sodipodi-0.dtd"
   xmlns:inkscape="http://www.inkscape.org/namespaces/inkscape"
   width="16px"
   height="16px"
   viewBox="0 0 16 16"
   version="1.1"
   id="SVGRoot"
   inkscape:version="0.92.3 (2405546, 2018-03-11)"
   sodipodi:docname="ceruza.svg">
  <sodipodi:namedview
     id="base"
     pagecolor="#ffffff"
     bordercolor="#666666"
     borderopacity="1.0"
     inkscape:pageopacity="0.0"
     inkscape:pageshadow="2"
     inkscape:zoom="45.254834"
     inkscape:cx="12.110306"
     inkscape:cy="7.7812353"
     inkscape:document-units="px"
     inkscape:current-layer="layer1"
     showgrid="false"
     inkscape:window-width="1920"
     inkscape:window-height="1017"
     inkscape:window-x="-8"
     inkscape:window-y="-8"
     inkscape:window-maximized="1"
     inkscape:grid-bbox="true" />
  <defs
     id="defs3840" />
  <metadata
     id="metadata3843">
    <rdf:RDF>
      <cc:Work
         rdf:about="">
        <dc:format>image/svg+xml</dc:format>
        <dc:type
           rdf:resource="http://purl.org/dc/dcmitype/StillImage" />
        <dc:title />
      </cc:Work>
    </rdf:RDF>
  </metadata>
  <g
     id="layer1"
     inkscape:groupmode="layer"
     inkscape:label="1. réteg">
    <path
       style="fill:none;stroke:#000000;stroke-width:0.0567927px;stroke-linecap:butt;stroke-linejoin:miter;stroke-opacity:1"
       d="M 1.3828004,13.732346 4.1690349,13.153491"
       id="path3723"
       inkscape:connector-curvature="0" />
    <path
       style="fill:none;stroke:#000000;stroke-width:0.0567927px;stroke-linecap:butt;stroke-linejoin:miter;stroke-opacity:1"
       d="m 1.3828004,13.732346 0.5572473,-2.31527 2.2289872,1.736415"
       id="path3725"
       inkscape:connector-curvature="0" />
    <path
       style="fill:none;stroke:#000000;stroke-width:0.0567927px;stroke-linecap:butt;stroke-linejoin:miter;stroke-opacity:1"
       d="m 1.9400477,11.417076 0.55725,-1.736439"
       id="path3727"
       inkscape:connector-curvature="0" />
    <path
       style="fill:none;stroke:#000000;stroke-width:0.0567927px;stroke-linecap:butt;stroke-linejoin:miter;stroke-opacity:1"
       d="M 4.1690349,13.153491 5.8407619,12.574687 2.4972977,9.680637 8.6270117,3.8925136"
       id="path3729"
       inkscape:connector-curvature="0" />
    <path
       style="fill:none;stroke:#000000;stroke-width:0.0567927px;stroke-linecap:butt;stroke-linejoin:miter;stroke-opacity:1"
       d="M 13.08494,5.6289287 11.970471,6.786563 8.6270117,3.8925136 9.7414812,2.7348548"
       id="path3733"
       inkscape:connector-curvature="0" />
    <path
       style="fill:none;stroke:#000000;stroke-width:0.0567927px;stroke-linecap:butt;stroke-linejoin:miter;stroke-opacity:1"
       d="M 11.413211,0.9984154 9.7414812,2.7348548 13.08494,5.6289287 14.756721,3.8925136 Z"
       id="path3735"
       inkscape:connector-curvature="0" />
    <path
       style="fill:#000000;stroke-width:0.04056622"
       d="M 5.0048946,11.822233 C 4.5465668,11.425995 4.0733785,11.031652 4.0575803,11.011896 4.0174238,10.975446 10.236829,5.3339979 10.298741,5.339514 c 0.08743,0.00972 1.708887,1.410502 1.67173,1.447049 -0.358283,0.352571 -6.1194159,5.773835 -6.1194159,5.773835 0.010166,0.061 -0.344634,-0.333009 -0.8461605,-0.738165 z"
       id="path3743"
       inkscape:connector-curvature="0"
       sodipodi:nodetypes="ccccsc" />
    <path
       style="fill:#000000;stroke-width:0.04056622"
       d="m 1.327082,13.790204 c -5.643e-4,-0.01458 0.1973259,-0.64094 0.334356,-1.215517 0.1696484,-0.711338 0.246327,-1.170489 0.2786276,-1.157611 0.088192,0.03645 2.2593433,1.726088 2.2289871,1.736415 -0.1376503,0.0469 -2.8412032,0.655959 -2.8419529,0.636713 z"
       id="path3745"
       inkscape:connector-curvature="0"
       sodipodi:nodetypes="ccccc" />
    <path
       style="fill:#ffffff;stroke-width:0.04056622"
       d="M 11.079912,5.947698 C 10.275435,5.252884 10.217767,5.1941263 10.275537,5.1278355 c 0.0826,-0.094527 0.03075,-0.1455579 -0.06277,-0.059535 -0.0671,0.063181 -0.113862,0.031833 -0.7794176,-0.5441773 C 9.0441845,4.1879306 8.7173408,3.9057817 8.7073273,3.8972281 8.6997017,3.8875081 8.9248842,3.6369979 9.212943,3.3377173 9.7004886,2.8313267 9.7416614,2.7981084 9.8082503,2.857668 c 0.039648,0.03645 0.7767227,0.6735756 1.6385377,1.4186422 l 1.567068,1.3547572 -0.511665,0.5326346 c -0.281502,0.292963 -0.521602,0.532659 -0.5337,0.532659 -0.01271,0 -0.412086,-0.33663 -0.888602,-0.748444 z"
       id="path3753"
       inkscape:connector-curvature="0" />
    <path
       style="fill:#000000;stroke-width:0.04056622"
       d="M 11.046084,5.966725 C 10.24209,5.2695053 10.128661,5.233201 10.187294,5.1659138 c 0.08387,-0.095985 0.148681,-0.087238 0.05566,0 -0.06481,0.060993 -0.104965,-0.0024 -0.167233,-0.057835 C 10.036072,5.076246 9.7015524,4.8314951 9.3512764,4.5292742 9.0009493,4.2271992 8.5940979,3.8954294 8.6268328,3.8926106 8.6217222,3.8780306 8.9197978,3.6059904 9.2036887,3.3118858 9.6832792,2.8148264 9.7307549,2.6756595 9.7970896,2.7349761 c 0.039648,0.03645 0.8248094,0.7536932 1.6848184,1.501044 l 1.602904,1.3930056 -0.545798,0.5638363 c -0.282365,0.292063 -0.550219,0.569206 -0.565088,0.569206 -0.01271,0 -0.453768,-0.383942 -0.92797,-0.795246 z"
       id="path3761"
       inkscape:connector-curvature="0"
       sodipodi:nodetypes="scccccscscsss" />
    <path
       style="fill:none;stroke:#000000;stroke-width:0.0567927px;stroke-linecap:butt;stroke-linejoin:miter;stroke-opacity:1"
       d="M 11.970471,6.786563 5.8407619,12.574687"
       id="path3805"
       inkscape:connector-curvature="0" />
  </g>
</svg>
