<?xml version="1.0" encoding="UTF-8" standalone="no"?>
<!-- Created with Inkscape (http://www.inkscape.org/) -->

<svg
   width="16.0px"
   height="16.0px"
   viewBox="0 0 16.0 16.0"
   version="1.1"
   id="SVGRoot"
   sodipodi:docname="nyil.svg"
   inkscape:version="1.2.2 (b0a8486541, 2022-12-01)"
   xmlns:inkscape="http://www.inkscape.org/namespaces/inkscape"
   xmlns:sodipodi="http://sodipodi.sourceforge.net/DTD/sodipodi-0.dtd"
   xmlns="http://www.w3.org/2000/svg"
   xmlns:svg="http://www.w3.org/2000/svg">
  <sodipodi:namedview
     id="namedview7791"
     pagecolor="#ffffff"
     bordercolor="#000000"
     borderopacity="0.25"
     inkscape:showpageshadow="2"
     inkscape:pageopacity="0.0"
     inkscape:pagecheckerboard="0"
     inkscape:deskcolor="#d1d1d1"
     inkscape:document-units="px"
     showgrid="true"
     inkscape:zoom="16"
     inkscape:cx="-21.625"
     inkscape:cy="6.5625"
     inkscape:window-width="1920"
     inkscape:window-height="1008"
     inkscape:window-x="0"
     inkscape:window-y="0"
     inkscape:window-maximized="1"
     inkscape:current-layer="layer1">
    <inkscape:grid
       type="xygrid"
       id="grid7797" />
  </sodipodi:namedview>
  <defs
     id="defs7786">
    <clipPath
       clipPathUnits="userSpaceOnUse"
       id="clipPath8258">
      <path
         id="path8260"
         style="fill:#ffffff;fill-opacity:0"
         d="m 13.318359,5.2578125 v 0.2832031 c 0.0024,-4.382e-4 0.0052,-0.00171 0.0078,-0.00195 0.01408,-0.00132 0.0308,-4.16e-5 0.04883,0.00586 0.03672,0.01202 0.0744,0.02384 0.111328,0.035156 h 1.1875 V 5.2578125 Z" />
    </clipPath>
    <clipPath
       clipPathUnits="userSpaceOnUse"
       id="clipPath9034">
      <path
         id="path9036"
         style="fill:#ffffff;fill-opacity:0;stroke-width:10.9359"
         d="m 78.377385,14.948351 -13.19773,52.416335 28.895785,9.678461 c 0.283221,-0.678635 1.011302,-1.025121 1.905657,-0.953714 -0.247152,-0.517488 0.639385,-0.597918 1.41153,-0.810322 -0.0086,-0.01253 -0.02817,-0.03206 -0.04695,-0.06329 -0.02106,-0.03491 -0.04255,-0.0808 -0.05461,-0.113307 l -0.01415,-0.02846 c -0.02188,-0.05283 -0.03247,-0.07426 -0.01074,-0.122456 0.0061,-0.100283 0.07074,-0.15395 0.145994,-0.16495 -0.136969,-0.09527 -0.26905,-0.199365 -0.402956,-0.301298 -0.268032,-0.204255 -0.167354,-0.490651 0.05235,-0.457695 0.04108,0.0062 0.08155,0.03596 0.128872,0.06689 0.0094,-0.02374 -0.04002,-0.06121 -0.02179,-0.07859 -0.04495,-0.0162 -0.08932,-0.0305 -0.13438,-0.04501 -0.381274,-0.122815 -0.270913,-0.561129 0.11035,-0.438269 0.204787,0.06596 0.406871,0.151121 0.608887,0.227666 0.240275,0.0952 0.481622,0.187837 0.718561,0.288245 -0.02338,-0.03837 0.0045,-0.03838 -0.02178,-0.07859 0.137298,0.07956 0.258919,0.168477 0.394809,0.251098 0.444519,0.270425 0.897688,0.514962 1.343556,0.782674 0.57056,0.338811 1.12152,0.724062 1.68339,1.086592 0.0177,0.01016 0.0393,0.009 0.058,0.01943 0.22795,0.129758 0.46165,0.271416 0.69099,0.39777 0.98205,0.52828 1.97894,1.019243 2.96428,1.539378 0.70923,0.378661 1.41906,0.769399 2.12235,1.162325 0.65181,0.362838 1.2828,0.744929 1.91931,1.141853 0.54706,0.333103 1.07595,0.707106 1.60109,1.082782 0.0804,0.05758 0.16635,0.119955 0.24669,0.177644 0.33563,0.241447 0.11559,0.619204 -0.22004,0.377757 -0.0794,-0.05725 -0.14814,-0.113975 -0.22753,-0.171223 -0.30907,-0.221166 -0.62522,-0.433716 -0.94035,-0.647625 0.0119,0.01638 0.0123,0.04001 0.0273,0.05671 0.0707,0.07892 0.10026,0.163171 0.10951,0.226769 0.8318,0.497259 1.66914,0.981243 2.5006,1.479119 l 0.3043,0.196939 c 0.23501,0.143195 0.4377,0.304722 0.61131,0.466135 l 4.16637,1.395497 13.19772,-52.416339 z" />
    </clipPath>
    <clipPath
       clipPathUnits="userSpaceOnUse"
       id="clipPath9144">
      <path
         id="path9146"
         style="fill:#ffffff;fill-opacity:0"
         d="m 0.5,0.5 v 15.03125 h 14.541016 v -5.472656 c -0.06705,0.0026 -0.134123,0.0045 -0.201172,0.0059 -0.13915,-4e-4 -0.278857,-0.0069 -0.417969,-0.0098 -0.175886,-0.0039 -0.351419,-0.0049 -0.527344,-0.0059 -0.142568,0.0017 -0.285221,0.0059 -0.427734,0.0098 -0.101124,0.0028 -0.101121,-0.098683 0,-0.1015628 0.0091,-2.567e-4 0.01823,2.739e-4 0.02734,0 -0.02083,-0.0179 -0.01366,-0.051747 0.0332,-0.060547 -0.02327,-0.00414 -0.04657,-0.00954 -0.06445,-0.013672 -0.01,-0.00231 -0.0195,-0.00677 -0.0293,-0.00977 -0.280561,-0.08563 -0.275445,-0.2955063 -0.0918,-0.359375 -0.0053,-0.00938 -0.0061,-0.016742 -0.002,-0.023437 -0.09706,-0.1000167 -0.04491,-0.2828854 0.203125,-0.328125 0.01491,-0.00272 0.02993,-0.00559 0.04492,-0.00781 -0.03559,-0.00836 -0.07199,-0.016279 -0.107422,-0.025391 -0.341588,-0.087843 -0.285456,-0.4071209 0.01172,-0.390625 -0.04263,-0.052829 -0.07286,-0.118682 -0.05274,-0.1933593 0.0155,-0.057522 0.05793,-0.1059174 0.101563,-0.1464844 0.01603,-0.014905 0.04126,-0.025296 0.06836,-0.033203 -0.248431,-0.081666 -0.211647,-0.3541392 0.07227,-0.3691406 0.02131,-0.00113 0.04427,4.33e-5 0.06836,0.00195 l 0.04297,0.00391 c 0.02478,0.00216 0.04945,0.00552 0.07422,0.00781 -0.01009,-0.046949 -0.01906,-0.093816 -0.0293,-0.140625 C 13.809857,7.724973 13.77947,7.5816428 13.75,7.4375 13.71445,7.2667898 13.6769,7.0967402 13.642578,6.9257812 c -0.0042,-0.023464 -0.0078,-0.046807 -0.01172,-0.070312 -0.0058,-0.034948 -0.0081,-0.052102 -0.01172,-0.076172 -0.03666,-0.00406 -0.07532,-0.00728 -0.103516,-0.011719 -0.04703,-0.00741 -0.09196,-0.020047 -0.138672,-0.029297 -0.113875,-0.048165 -0.208587,-0.060721 -0.248047,-0.2089843 -0.03667,-0.137752 0.05854,-0.2460551 0.160156,-0.3125 0.0032,-0.0021 0.0065,-0.00392 0.0098,-0.00586 -0.0085,-0.00403 -0.01718,-0.00757 -0.02539,-0.011719 C 13.027631,6.075421 13.046252,5.8621536 13.201172,5.8125 13.021118,5.6987306 13.06942,5.5217901 13.240234,5.484375 c -0.02278,-0.032018 0.06391,-0.056225 0.138672,-0.087891 -0.0035,-0.0015 -0.008,-0.00279 -0.01172,-0.00586 -0.0027,-0.0022 -0.0047,-0.00303 -0.0059,-0.00391 l -0.002,-0.00195 c -0.0011,-7.954e-4 -0.0053,-0.00381 -0.0078,-0.00586 l -0.002,-0.00195 c -0.016,-0.00406 -0.02086,-0.015659 -0.01172,-0.025391 v -0.00195 c 0.0016,-0.00459 0.0067,-0.00833 0.01172,-0.00977 -0.01557,-0.0041 -0.03148,-0.00688 -0.04687,-0.011719 -0.02997,-0.00941 -0.02709,-0.035723 -0.0059,-0.039063 0.003,-4.594e-4 0.0062,-5.439e-4 0.0098,0 4.2e-4,-0.00132 -7.7e-4,-0.00271 0,-0.00391 -0.0046,-9.24e-5 -0.0091,-4.61e-5 -0.01367,0 -0.03867,4.02e-4 -0.03867,-0.038668 0,-0.039062 0.02077,-2.167e-4 0.04174,0.00122 0.0625,0.00195 0.02545,0.00125 0.0509,0.00213 0.07617,0.00391 -0.0027,-0.00215 -0.0029,-0.00365 -0.0059,-0.00586 0.01476,0.00276 0.02827,0.00672 0.04297,0.00977 0.04809,0.00999 0.09638,0.017614 0.144531,0.027344 0.06154,0.01214 0.122322,0.028639 0.183594,0.042969 0.0019,3.481e-4 0.0039,-3.465e-4 0.0059,0 0.02445,0.00439 0.04972,0.0096 0.07422,0.013672 0.104609,0.016386 0.209728,0.029296 0.314453,0.044922 0.07548,0.011599 0.151303,0.024173 0.226563,0.037109 0.06972,0.011879 0.137941,0.025914 0.207031,0.041016 0.05919,0.012319 0.117641,0.0285 0.175781,0.044922 0.0089,0.00252 0.01844,0.00528 0.02734,0.00781 0.03719,0.010606 0.02547,0.047715 -0.01172,0.037109 -0.0088,-0.00252 -0.01659,-0.00529 -0.02539,-0.00781 -0.03422,-0.00967 -0.06889,-0.018437 -0.103516,-0.027344 0.0015,0.00102 0.0021,0.00295 0.0039,0.00391 0.0085,0.00454 0.01321,0.010652 0.01563,0.015625 0.08978,0.017973 0.179774,0.034704 0.269531,0.052734 l 0.0332,0.00781 c 0.01113,0.00232 0.02115,0.00484 0.03125,0.00781 V 0.5 Z m 14.349609,5.3691406 c 0.01818,0.025079 0.02031,0.040955 -0.0098,0.046875 -0.0078,0.00154 -0.01564,-5.655e-4 -0.02344,-0.00195 -0.0111,-0.00198 -0.05009,-0.01038 -0.06445,-0.013672 0.01564,0.00508 0.03392,0.010641 0.04687,0.021484 0.0026,0.00216 0.0037,0.00527 0.0059,0.00781 0.02052,0.023792 0.01048,0.013131 -0.01367,0.015625 0.0835,0.020865 0.166945,0.042075 0.25,0.064453 V 5.8964844 c -0.02741,0.00164 -0.05792,-7.733e-4 -0.0918,-0.00781 -0.01031,-0.00215 -0.02095,-0.00371 -0.03125,-0.00586 -0.02272,-0.00457 -0.04556,-0.00915 -0.06836,-0.013672 z M 14.964844,6.46875 c 0.0027,0.03761 0.0141,0.036238 0.04883,0.041016 -0.01508,-0.013025 -0.0281,-0.028376 -0.04492,-0.039063 -8.99e-4,-5.707e-4 -0.0029,-0.00136 -0.0039,-0.00195 z m -1.480469,0.083984 c -0.0078,0.00576 -0.01486,0.013428 -0.01563,0.019531 -3e-4,0.00262 0.0068,0.00244 0.0078,0 0.0027,-0.00637 0.0049,-0.01316 0.0078,-0.019531 z m 0.173828,0.2304687 c 0.02156,0.018945 0.04109,0.018534 0.06055,0.00586 -0.02145,-0.00204 -0.03858,-0.0036 -0.06055,-0.00586 z m 0.115235,1.6875 c -0.001,-8.6e-4 -2.97e-4,0.00262 0,0.00391 0.0043,0.00301 0.0094,0.00478 0.01367,0.00781 -0.0043,-0.00425 -0.0088,-0.00755 -0.01367,-0.01172 z m 1.267578,1.1074219 c -0.0028,2.575e-4 -0.0055,4.163e-4 -0.0078,0.00195 -0.002,0.00144 -0.0039,0.00252 -0.0059,0.00391 0.0076,-1.169e-4 0.0096,-2.226e-4 0.01367,0 z" />
    </clipPath>
    <clipPath
       clipPathUnits="userSpaceOnUse"
       id="clipPath9154">
      <path
         id="path9156"
         style="fill:#ffffff;fill-opacity:0"
         d="M 0.52539062,0.5234375 V 15.515625 H 15.462891 V 9.4589844 c -0.02164,0.018164 -0.04392,0.035424 -0.06836,0.048828 -0.02388,0.013094 -0.05298,0.012915 -0.08008,0.015625 -0.02398,0.0024 -0.04839,0.0011 -0.07226,0 -0.01052,-4.817e-4 -0.02075,-0.00299 -0.03125,-0.00391 0.01488,0.01034 0.03294,0.019642 0.04297,0.03125 0.03103,0.035934 0.06532,0.074449 0.07422,0.1210938 0.02268,0.1192905 -0.01982,0.1826994 -0.103516,0.25 -0.01829,0.01471 -0.04284,0.019826 -0.06445,0.029297 0.0019,-1.4e-5 0.004,5.24e-5 0.0059,0 0.10111,-0.00279 0.101855,0.098782 0.002,0.1015618 -0.01321,3.73e-4 -0.02585,0.0016 -0.03906,0.002 -0.09632,0.003 -0.192712,0.0079 -0.289062,0.0098 -0.13915,-4e-4 -0.278857,-0.0069 -0.417969,-0.0098 -0.175886,-0.0039 -0.351419,-0.0049 -0.527344,-0.0059 -0.142568,0.0017 -0.285221,0.0059 -0.427734,0.0098 -0.101124,0.0028 -0.101121,-0.098683 0,-0.1015625 0.0091,-2.567e-4 0.01823,2.739e-4 0.02734,0 -0.02083,-0.0179 -0.01366,-0.051747 0.0332,-0.060547 -0.02327,-0.00414 -0.04657,-0.00954 -0.06445,-0.013672 -0.01,-0.00231 -0.0195,-0.00677 -0.0293,-0.00977 -0.280659,-0.08566 -0.275635,-0.2955862 -0.0918,-0.359375 -0.0053,-0.00938 -0.0061,-0.016742 -0.002,-0.023437 -0.09706,-0.1000167 -0.04491,-0.2828854 0.203125,-0.328125 0.01491,-0.00272 0.02993,-0.00559 0.04492,-0.00781 -0.03559,-0.00836 -0.07199,-0.016279 -0.107422,-0.025391 -0.341588,-0.087843 -0.285456,-0.4071209 0.01172,-0.390625 -0.04263,-0.052829 -0.07286,-0.118682 -0.05274,-0.1933593 0.0155,-0.057522 0.05793,-0.1059174 0.101563,-0.1464844 0.01603,-0.014905 0.04126,-0.025296 0.06836,-0.033203 -0.248431,-0.081666 -0.211647,-0.3541392 0.07227,-0.3691406 0.02131,-0.00113 0.04427,4.33e-5 0.06836,0.00195 l 0.04297,0.00391 c 0.02478,0.00216 0.04945,0.00552 0.07422,0.00781 -0.01009,-0.046949 -0.01906,-0.093816 -0.0293,-0.140625 C 13.808174,7.7243559 13.77947,7.5816428 13.75,7.4375 13.71445,7.2667898 13.6769,7.0967402 13.642578,6.9257812 c -0.0042,-0.023464 -0.0078,-0.046807 -0.01172,-0.070312 -0.0058,-0.034948 -0.0081,-0.052102 -0.01172,-0.076172 -0.03666,-0.00406 -0.07532,-0.00728 -0.103516,-0.011719 -0.04703,-0.00741 -0.09196,-0.020047 -0.138672,-0.029297 -0.113875,-0.048165 -0.208587,-0.060721 -0.248047,-0.2089843 -0.03667,-0.137752 0.05854,-0.2460551 0.160156,-0.3125 0.0032,-0.0021 0.0065,-0.00392 0.0098,-0.00586 -0.0085,-0.00403 -0.01718,-0.00757 -0.02539,-0.011719 C 13.027631,6.075421 13.046252,5.8621536 13.201172,5.8125 13.021118,5.6987306 13.06942,5.5217901 13.240234,5.484375 c -0.02278,-0.032018 0.06391,-0.056225 0.138672,-0.087891 -0.0035,-0.0015 -0.008,-0.00279 -0.01172,-0.00586 -0.0027,-0.0022 -0.0047,-0.00303 -0.0059,-0.00391 l -0.002,-0.00195 c -0.0011,-7.954e-4 -0.0053,-0.00381 -0.0078,-0.00586 l -0.002,-0.00195 c -0.016,-0.00406 -0.02086,-0.015659 -0.01172,-0.025391 v -0.00195 c 0.0016,-0.00459 0.0067,-0.00833 0.01172,-0.00977 -0.01557,-0.0041 -0.03148,-0.00688 -0.04687,-0.011719 -0.02997,-0.00941 -0.02709,-0.035723 -0.0059,-0.039063 0.003,-4.594e-4 0.0062,-5.439e-4 0.0098,0 4.2e-4,-0.00132 -7.7e-4,-0.00271 0,-0.00391 -0.0046,-9.24e-5 -0.0091,-4.61e-5 -0.01367,0 -0.03867,4.02e-4 -0.03867,-0.038668 0,-0.039062 0.02077,-2.167e-4 0.04174,0.00122 0.0625,0.00195 0.02545,0.00125 0.0509,0.00213 0.07617,0.00391 -0.0027,-0.00215 -0.0029,-0.00365 -0.0059,-0.00586 0.01476,0.00276 0.02827,0.00672 0.04297,0.00977 0.04809,0.00999 0.09638,0.017614 0.144531,0.027344 0.06154,0.01214 0.122322,0.028639 0.183594,0.042969 0.0019,3.481e-4 0.0039,-3.465e-4 0.0059,0 0.02445,0.00439 0.04972,0.0096 0.07422,0.013672 0.104609,0.016386 0.209728,0.029296 0.314453,0.044922 0.07548,0.011599 0.151303,0.024173 0.226563,0.037109 0.06972,0.011879 0.137941,0.025914 0.207031,0.041016 0.05919,0.012319 0.117641,0.0285 0.175781,0.044922 0.0089,0.00252 0.01844,0.00528 0.02734,0.00781 0.03719,0.010606 0.02547,0.047715 -0.01172,0.037109 -0.0088,-0.00252 -0.01659,-0.00529 -0.02539,-0.00781 -0.03422,-0.00967 -0.06889,-0.018437 -0.103516,-0.027344 0.0015,0.00102 0.0021,0.00295 0.0039,0.00391 0.0085,0.00454 0.01321,0.010652 0.01563,0.015625 0.08978,0.017973 0.179774,0.034704 0.269531,0.052734 l 0.0332,0.00781 c 0.289078,0.060294 0.228556,0.3513811 -0.06055,0.2910157 -0.01031,-0.00215 -0.02095,-0.00371 -0.03125,-0.00586 -0.02272,-0.00457 -0.04556,-0.00915 -0.06836,-0.013672 0.01818,0.025079 0.02031,0.040955 -0.0098,0.046875 -0.0078,0.00154 -0.01564,-5.655e-4 -0.02344,-0.00195 -0.0111,-0.00198 -0.05009,-0.01038 -0.06445,-0.013672 0.01564,0.00508 0.03392,0.010641 0.04687,0.021484 0.0026,0.00216 0.0037,0.00527 0.0059,0.00781 0.02052,0.023792 0.01048,0.013131 -0.01367,0.015625 0.0998,0.025311 0.199459,0.051243 0.298828,0.078125 0.06651,0.017994 0.07124,0.067468 0.03906,0.089844 0.0076,0.00435 0.01776,0.010092 0.02344,0.013672 0.03575,0.022524 0.0677,0.050908 0.101562,0.076172 0.02645,0.036183 0.06759,0.064381 0.08008,0.1074219 0.04498,0.1550036 0.0156,0.2435114 -0.11914,0.3339843 -0.0013,8.532e-4 -0.0026,0.00114 -0.0039,0.00195 0.01369,0.00366 0.01773,0.00481 0.05078,0.013672 0.09966,0.026721 0.165095,0.073182 0.201172,0.125 V 0.5234375 Z M 14.964844,6.46875 c 0.0027,0.03761 0.0141,0.036238 0.04883,0.041016 -0.01508,-0.013025 -0.0281,-0.028376 -0.04492,-0.039063 -8.99e-4,-5.707e-4 -0.0029,-0.00136 -0.0039,-0.00195 z m -1.480469,0.083984 c -0.0078,0.00576 -0.01486,0.013428 -0.01563,0.019531 -3e-4,0.00262 0.0068,0.00244 0.0078,0 0.0027,-0.00637 0.0049,-0.01316 0.0078,-0.019531 z m 0.173828,0.2304687 c 0.02156,0.018945 0.04109,0.018534 0.06055,0.00586 -0.02145,-0.00204 -0.03858,-0.0036 -0.06055,-0.00586 z m 1.804688,0.1972657 c -0.04946,0.060344 -0.151509,0.094173 -0.292969,0.058594 0.01027,0.08216 -0.0015,0.1641818 -0.0098,0.2460937 -0.0063,0.056845 -0.0068,0.1128318 -0.0059,0.1699219 7.4e-4,0.069974 0.01442,0.1400973 0.02539,0.2089844 0.01099,0.065605 0.01949,0.1310175 0.02539,0.1972656 0.0036,0.045553 0.0057,0.091077 0.0078,0.1367188 0.003,0.059977 -0.0081,0.1188752 -0.01758,0.1777343 -0.0036,0.028242 -0.0098,0.057357 -0.0098,0.085938 1.4e-5,0.013061 8.8e-4,0.02496 0,0.037109 0.0599,0.029609 0.117847,0.061425 0.173828,0.097656 0.03061,0.022358 0.07094,0.04808 0.103516,0.078125 z m -1.689453,1.4902343 c -0.001,-8.6e-4 -2.97e-4,0.00262 0,0.00391 0.0043,0.00301 0.0094,0.00478 0.01367,0.00781 -0.0043,-0.00425 -0.0088,-0.00755 -0.01367,-0.01172 z m 1.517578,0.0625 c -0.0067,0.00277 -0.01148,0.00526 -0.01758,0.00781 0.0055,2.226e-4 0.01181,-2.671e-4 0.0293,-0.00195 -0.0038,-0.00138 -0.008,-0.00738 -0.01172,-0.00586 z m 0.171875,0.3339844 c -0.0213,0.015709 -0.04475,0.029894 -0.07031,0.042969 -0.02781,0.014223 -0.06114,0.013601 -0.0918,0.019531 -0.02806,-8.6e-4 -0.05602,-0.00149 -0.08398,-0.00391 -0.02161,-0.00187 -0.04304,-0.00627 -0.06445,-0.00977 0.04027,0.016507 0.07843,0.033119 0.121094,0.054687 0.03085,0.015594 0.06278,0.032005 0.0918,0.050781 0.03153,0.0204 0.0664,0.044169 0.09766,0.072266 z m -0.16211,0.2617187 c -0.0034,0.00172 -0.0064,0.00407 -0.0098,0.00586 0.0062,-2.145e-4 0.01099,-0.00101 0.01563,-0.00195 0.0024,-5.2e-4 -0.0037,-0.00503 -0.0059,-0.00391 z M 15.041016,9.578125 c -0.0028,2.575e-4 -0.0055,4.163e-4 -0.0078,0.00195 -0.002,0.00144 -0.0039,0.00252 -0.0059,0.00391 0.02616,-4.006e-4 0.03021,0.00395 0.02148,-0.00586 -0.0027,5.25e-4 -0.005,-2.575e-4 -0.0078,0 z" />
    </clipPath>
  </defs>
  <g
     inkscape:label="Layer 1"
     inkscape:groupmode="layer"
     id="layer1">
    <ellipse
       style="fill:none;stroke:#000000;stroke-width:1.1152"
       id="path6776"
       cx="7.7703214"
       cy="8.0159321"
       rx="6.7127213"
       ry="6.9583325"
       clip-path="url(#clipPath9144)" />
    <path
       sodipodi:type="star"
       style="fill:#000000;fill-opacity:1;stroke-width:0.264583"
       id="path7313"
       inkscape:flatsided="false"
       sodipodi:sides="3"
       sodipodi:cx="100.7431"
       sodipodi:cy="56.704632"
       sodipodi:r1="33.041012"
       sodipodi:r2="16.520508"
       sodipodi:arg1="3.1224474"
       sodipodi:arg2="4.1696449"
       inkscape:rounded="0"
       inkscape:randomized="0"
       d="M 67.708146,57.337172 92.210464,42.55821 116.71279,27.77925 l 0.54779,28.609111 0.5478,28.609112 -25.050118,-13.830148 z"
       inkscape:transform-center-x="0.39896005"
       inkscape:transform-center-y="0.18042941"
       transform="matrix(0.09708377,-0.01156968,0.00964254,0.08497939,3.3736692,0.88450362)"
       clip-path="url(#clipPath9034)" />
    <path
       style="fill:none;fill-opacity:1;stroke-width:0.0295063"
       d="m 12.700215,10.454061 2.32024,1.196853 -0.123638,0.0748 z"
       id="path7315" />
    <path
       style="fill:none;fill-opacity:1;stroke-width:0.0248098"
       d="M 7.2900296,15.508781 C 7.2425226,15.503125 7.0925913,15.486674 6.9568507,15.47226 5.9263801,15.362815 4.7651845,14.937019 3.8729129,14.341412 2.7278818,13.577089 1.870651,12.584039 1.2656773,11.321092 0.75667797,10.258504 0.52615411,9.2271629 0.52612382,8.0123977 0.52609353,6.686353 0.81367283,5.5345392 1.4373713,4.3627042 2.439133,2.4805469 4.2864849,1.0826236 6.3293043,0.66088912 6.8638868,0.5505274 7.1351413,0.52449809 7.7589462,0.52370665 8.3884428,0.52289553 8.589304,0.54104779 9.1410155,0.64850377 10.317179,0.87758696 11.484244,1.4496486 12.411093,2.2514015 c 0.08144,0.070452 0.15548,0.1281938 0.164523,0.128316 0.0091,1.171e-4 0.34182,-0.3152408 0.739506,-0.7008034 l 0.723066,-0.70102413 0.02404,0.071281 c 0.147083,0.4358735 1.411363,4.5370063 1.399893,4.5410349 -0.0085,0.00301 -0.20422,-0.026022 -0.434976,-0.064444 -0.230757,-0.038422 -0.421462,-0.068867 -0.423793,-0.067645 -0.0023,0.00124 0.03939,0.1480657 0.09273,0.326323 0.353561,1.181759 0.418631,2.5251913 0.180584,3.7284755 -0.247299,1.2500506 -0.802901,2.4218416 -1.608262,3.3919036 -0.267084,0.321701 -0.828494,0.867863 -1.136714,1.105832 -1.012195,0.781503 -2.1849577,1.276759 -3.434926,1.450554 -0.2692523,0.03744 -1.2218665,0.06966 -1.4067508,0.04758 z m 1.3406831,-1.14434 c 0.6747435,-0.107496 1.2003025,-0.272671 1.7821473,-0.560104 1.264348,-0.624585 2.230708,-1.605658 2.863631,-2.90723 0.328627,-0.675806 0.548337,-1.4342881 0.626441,-2.1626033 0.03343,-0.3118089 0.03343,-1.1242307 0,-1.4360416 -0.0801,-0.7469814 -0.453892,-2.0139065 -0.60746,-2.0589563 -0.0249,-0.00725 -0.735862,-0.1276407 -1.579926,-0.2674161 L 10.180886,4.717951 10.518575,4.3893665 c 0.18573,-0.1807207 0.545925,-0.5297354 0.800436,-0.7755879 0.254512,-0.2458505 0.462747,-0.4546993 0.462747,-0.4641054 0,-0.028321 -0.416345,-0.3547919 -0.679286,-0.5326514 C 10.801702,2.4135764 10.106209,2.064485 9.7670033,1.9467092 9.080589,1.7083784 8.5421196,1.6203106 7.7712853,1.6203106 c -0.770286,0 -1.2936061,0.084105 -1.9565957,0.314439 C 3.5670837,2.7156124 1.950413,4.7615534 1.649489,7.2059179 1.596226,7.6385792 1.59646,8.4020253 1.6499581,8.8270477 c 0.2391352,1.8989143 1.233633,3.5342873 2.7895254,4.5871553 0.3426091,0.231845 1.017512,0.563307 1.4231996,0.698976 0.3698691,0.123688 0.9381771,0.248227 1.3039236,0.285742 0.3192979,0.03276 1.167461,0.01277 1.4640825,-0.03448 z"
       id="path7317"
       clip-path="url(#clipPath9154)" />
  </g>
</svg>
