<?xml version="1.0" encoding="UTF-8" standalone="no"?>
<!-- Created with Inkscape (http://www.inkscape.org/) -->

<svg
   xmlns:dc="http://purl.org/dc/elements/1.1/"
   xmlns:cc="http://creativecommons.org/ns#"
   xmlns:rdf="http://www.w3.org/1999/02/22-rdf-syntax-ns#"
   xmlns:svg="http://www.w3.org/2000/svg"
   xmlns="http://www.w3.org/2000/svg"
   xmlns:sodipodi="http://sodipodi.sourceforge.net/DTD/sodipodi-0.dtd"
   xmlns:inkscape="http://www.inkscape.org/namespaces/inkscape"
   width="16px"
   height="16px"
   viewBox="0 0 16 16"
   version="1.1"
   id="SVGRoot"
   inkscape:version="0.92.3 (2405546, 2018-03-11)"
   sodipodi:docname="user.svg"
   inkscape:export-filename="C:\Users\3041TAN-04.TANUZEM\Downloads\user.png"
   inkscape:export-xdpi="96"
   inkscape:export-ydpi="96">
  <sodipodi:namedview
     id="base"
     pagecolor="#ffffff"
     bordercolor="#666666"
     borderopacity="1.0"
     inkscape:pageopacity="0.0"
     inkscape:pageshadow="2"
     inkscape:zoom="32"
     inkscape:cx="17.786801"
     inkscape:cy="7.9625222"
     inkscape:document-units="px"
     inkscape:current-layer="layer1"
     showgrid="false"
     inkscape:window-width="1920"
     inkscape:window-height="1017"
     inkscape:window-x="-8"
     inkscape:window-y="-8"
     inkscape:window-maximized="1"
     inkscape:grid-bbox="true" />
  <defs
     id="defs1078">
    <inkscape:path-effect
       effect="bspline"
       id="path-effect42"
       is_visible="true"
       weight="33.333333"
       steps="2"
       helper_size="0"
       apply_no_weight="true"
       apply_with_weight="true"
       only_selected="false" />
    <inkscape:path-effect
       effect="bspline"
       id="path-effect42-5"
       is_visible="true"
       weight="33.333333"
       steps="2"
       helper_size="0"
       apply_no_weight="true"
       apply_with_weight="true"
       only_selected="false" />
  </defs>
  <metadata
     id="metadata1081">
    <rdf:RDF>
      <cc:Work
         rdf:about="">
        <dc:format>image/svg+xml</dc:format>
        <dc:type
           rdf:resource="http://purl.org/dc/dcmitype/StillImage" />
        <dc:title />
      </cc:Work>
    </rdf:RDF>
  </metadata>
  <g
     id="layer1"
     inkscape:groupmode="layer"
     inkscape:label="1. réteg">
    <ellipse
       style="fill:#000000;stroke-width:0.03130915"
       id="path16"
       cx="8.007885"
       cy="8.0471926"
       rx="7.8895631"
       ry="7.9208126" />
    <ellipse
       style="fill:#ffffff;stroke-width:0.0529991"
       id="path24"
       cx="8.0446196"
       cy="8.02285"
       rx="7.5362992"
       ry="7.5661497" />
    <path
       style="fill:none;stroke-width:0.03153451"
       d="M 7.557678,15.561568 C 6.4229483,15.448112 5.6518054,15.242113 4.7723856,14.817513 4.2254558,14.553444 3.9612598,14.393199 3.4848012,14.036549 1.215979,12.338229 0.11574204,9.4754924 0.66768592,6.7066206 1.2196883,3.9374498 3.37612,1.6760733 6.1414297,0.96649117 6.8865925,0.77527857 7.150467,0.74524448 8.0769708,0.74618212 c 0.9395086,9.5756e-4 1.2671807,0.0416565 2.0299582,0.25214535 3.779472,1.04297373 6.113326,4.80210393 5.345473,8.60994113 -0.408253,2.0245464 -1.696906,3.8228394 -3.514576,4.9045134 -0.851808,0.506902 -1.809899,0.841204 -2.8380081,0.990253 -0.3120066,0.04523 -1.3000717,0.08274 -1.5421399,0.05854 z"
       id="path26"
       inkscape:connector-curvature="0" />
    <ellipse
       style="fill:#000000;stroke-width:0.01168268"
       id="path16-2"
       cx="7.9579287"
       cy="5.9497809"
       rx="2.943867"
       ry="2.9555273" />
    <ellipse
       style="fill:#ffffff;stroke-width:0.01821844"
       id="path24-1"
       cx="7.9607291"
       cy="5.9246564"
       rx="2.5906029"
       ry="2.6008639" />
    <path
       style="fill:none;stroke-width:0.0116788"
       d="m 7.5957441,9.0865492 c -0.4209417,0 -0.7070061,-0.1969734 -1.033238,-0.1969734 C 6.3596162,8.692599 6.2616076,8.692599 6.084862,8.4956255 5.2432127,7.9046986 4.8350679,6.9198204 5.0398193,5.7379654 5.2445913,4.7530883 6.0445452,3.9651868 7.070369,3.76821 7.3467974,3.5712366 7.4446831,3.5712366 7.7883806,3.5712366 c 0.3485212,0 0.4700748,0 0.7530393,0.1969734 C 9.9434577,4.1621603 10.809231,5.540992 10.524385,6.9198204 10.372941,7.7077219 9.8948983,8.2986489 9.2206133,8.692599 8.9046232,8.8895758 8.5492088,9.0865492 8.167817,9.0865492 c -0.1157405,0 -0.4822747,0 -0.5720729,0 z"
       id="path26-2"
       inkscape:connector-curvature="0" />
    <path
       style="fill:#000000;stroke-width:0.03500225"
       id="path75"
       sodipodi:type="arc"
       sodipodi:cx="8.6358013"
       sodipodi:cy="-13.754754"
       sodipodi:rx="4.7231431"
       sodipodi:ry="5.4648261"
       sodipodi:start="0"
       sodipodi:end="3.2083951"
       sodipodi:open="true"
       d="M 13.358944,-13.754754 A 4.7231431,5.4648261 0 0 1 10.905713,-8.9624102 4.7231431,5.4648261 0 0 1 6.0944674,-9.1484161 4.7231431,5.4648261 0 0 1 3.923193,-14.119546"
       transform="matrix(0.99887021,0.04752161,0.0464971,-0.99891842,0,0)" />
    <path
       style="fill:#ffffff;stroke-width:0.02666876"
       d="m 3.9026177,14.201773 c -0.016228,-0.09868 0.041199,-0.633536 0.1017281,-0.947735 0.3433155,-1.781383 1.6132052,-3.190842 3.2148632,-3.5681915 0.4095828,-0.0965 0.7064314,-0.1154719 1.1670929,-0.074643 0.6670344,0.05914 1.1293286,0.2200265 1.7148991,0.5968085 1.231618,0.792482 2.013832,2.304881 2.01683,3.899498 l 5.52e-4,0.298491 -0.469397,-0.0054 c -0.258165,-0.003 -1.335778,-0.01778 -2.3946901,-0.03291 -1.0589124,-0.01513 -2.5904881,-0.03635 -3.4034998,-0.0472 -0.8130117,-0.01085 -1.581203,-0.025 -1.7070876,-0.03148 -0.2260107,-0.01165 -0.2290426,-0.01274 -0.2412982,-0.08724 z"
       id="path66"
       inkscape:connector-curvature="0" />
    <path
       style="fill:#000000;stroke-width:0.01823916"
       d="M 7.5455415,15.899971 C 7.1635858,15.861891 7.0152095,15.842482 6.77704,15.799433 5.9504321,15.650002 5.219909,15.376139 4.4464757,14.925736 4.1652967,14.761994 3.6863916,14.438038 3.5944414,14.349378 c -0.030861,-0.02975 0.024013,-0.03136 0.7183819,-0.02103 1.4460336,0.02153 6.8712267,0.07365 6.9020827,0.06632 0.01713,-0.0041 -0.602447,0.4769 -1.7969646,0.45772 -5.1881163,-0.08334 -5.779157,-0.58945 -5.8257002,-0.635493 -0.024247,-0.02398 -0.026392,-0.06157 -0.01747,-0.306289 0.032781,-0.89918 0.2570466,-1.901645 0.5985948,-2.675715 C 4.6572068,10.138325 5.3883213,9.6777637 6.249702,9.1739669 6.5371801,9.0058293 7.1683471,9.0221494 7.4543913,8.9352888 c 0.4015398,-0.1219326 0.1253071,0.00165 0.5389826,0.00215 0.8342715,10e-4 0.7264919,-0.115657 1.8706501,0.143495 1.249727,0.9052141 2.261492,2.4087464 2.441805,4.3018054 0.01,0.104045 0.02257,0.372859 0.02814,0.59737 l 0.01016,0.408203 -0.239325,0.169256 C 11.101757,15.266937 9.991172,15.707299 8.81499,15.86202 8.588072,15.89187 7.7235819,15.91771 7.54558,15.89998 Z m 4.5730715,-1.49382 c -0.0055,-0.0066 -0.01996,-0.0072 -0.03202,-0.0016 -0.01332,0.0064 -0.0094,0.01111 0.01006,0.01196 0.01761,8.64e-4 0.02748,-0.0039 0.02193,-0.01051 z"
       id="path72"
       inkscape:connector-curvature="0"
       sodipodi:nodetypes="ccccccccccssccccccsccccccc" />
    <path
       style="fill:#000000;stroke-width:0.03294746"
       d="M 7.450033,8.529003 C 6.7922283,8.3967621 6.206612,8.0552253 5.8076492,7.5711501 4.9421569,6.5210186 5.004519,5.064072 5.9559445,4.1065753 6.5077293,3.5512696 7.1595518,3.2760773 7.940345,3.2687834 c 0.6186816,-0.00578 1.0827038,0.1238047 1.593432,0.4449869 0.611615,0.3846274 1.032478,0.9835776 1.181045,1.6808036 0.07785,0.365392 0.05378,0.9510725 -0.05221,1.2701605 -0.293477,0.883481 -1.0235834,1.5688729 -1.9334151,1.8150045 -0.3212028,0.086894 -0.9680623,0.1118054 -1.2791607,0.049264 z"
       id="path74"
       inkscape:connector-curvature="0" />
    <path
       style="fill:#000000;stroke-width:0.00390625"
       d="M 9.5323813,9.9013892 C 9.4629504,9.869162 9.3482059,9.8237436 9.2608969,9.7939296 8.9419696,9.6850233 8.6238349,9.6284499 8.2276938,9.6101967 8.120997,9.6052803 7.8250171,9.6052721 7.7355063,9.610183 c -0.037598,0.00206 -0.083301,0.00458 -0.1015625,0.00558 l -0.033203,0.00183 0.039063,-0.00533 C 7.7933686,9.5913 8.058533,9.58799 8.2804288,9.604263 c 0.4819056,0.03535 0.8355046,0.1135626 1.1855469,0.2622325 0.078821,0.033477 0.1334675,0.059443 0.125,0.059397 -0.00322,-1.79e-5 -0.02959,-0.011047 -0.058594,-0.02451 z"
       id="path76"
       inkscape:connector-curvature="0" />
  </g>
</svg>
