<?xml version="1.0" encoding="UTF-8" standalone="no"?>
<!-- Created with Inkscape (http://www.inkscape.org/) -->

<svg
   width="16px"
   height="16px"
   viewBox="0 0 16 16"
   version="1.1"
   id="SVGRoot"
   inkscape:version="1.3.2 (091e20e, 2023-11-25, custom)"
   sodipodi:docname="local_authorizations.svg"
   xmlns:inkscape="http://www.inkscape.org/namespaces/inkscape"
   xmlns:sodipodi="http://sodipodi.sourceforge.net/DTD/sodipodi-0.dtd"
   xmlns="http://www.w3.org/2000/svg"
   xmlns:svg="http://www.w3.org/2000/svg"
   xmlns:rdf="http://www.w3.org/1999/02/22-rdf-syntax-ns#"
   xmlns:cc="http://creativecommons.org/ns#"
   xmlns:dc="http://purl.org/dc/elements/1.1/">
  <sodipodi:namedview
     id="base"
     pagecolor="#ffffff"
     bordercolor="#666666"
     borderopacity="1.0"
     inkscape:pageopacity="0.0"
     inkscape:pageshadow="2"
     inkscape:zoom="32"
     inkscape:cx="5.90625"
     inkscape:cy="8.171875"
     inkscape:document-units="px"
     inkscape:current-layer="layer1"
     showgrid="false"
     inkscape:window-width="1920"
     inkscape:window-height="1017"
     inkscape:window-x="-8"
     inkscape:window-y="-8"
     inkscape:window-maximized="1"
     inkscape:grid-bbox="true"
     inkscape:showpageshadow="2"
     inkscape:pagecheckerboard="0"
     inkscape:deskcolor="#d1d1d1" />
  <defs
     id="defs4185" />
  <metadata
     id="metadata4188">
    <rdf:RDF>
      <cc:Work
         rdf:about="">
        <dc:format>image/svg+xml</dc:format>
        <dc:type
           rdf:resource="http://purl.org/dc/dcmitype/StillImage" />
      </cc:Work>
    </rdf:RDF>
  </metadata>
  <g
     id="layer1"
     inkscape:groupmode="layer"
     inkscape:label="1. réteg">
    <path
       style="fill:#000000;stroke-width:0.0507371"
       d="M 3.6852408,3.2842277 7.0610417,0.35322431 10.423719,3.2722664 c 1.849471,1.6054755 3.362672,2.9244236 3.362672,2.9310034 0,0.00649 -3.032311,0.011985 -6.7384731,0.011985 H 0.30944553 Z"
       id="path44"
       inkscape:connector-curvature="0" />
    <path
       id="path46"
       style="fill:#000000;stroke-width:0.0537882"
       d="M 1.6113281 5.2128906 L 1.6152344 10.121094 L 1.6113281 15.253906 L 7.0605469 15.253906 L 7.9179688 15.253906 L 7.9179688 13.634766 L 7.0605469 13.634766 L 2.8496094 13.634766 L 2.8496094 10.072266 L 2.8496094 6.6699219 L 7.0605469 6.6699219 L 11.273438 6.6699219 L 11.273438 8.9042969 L 12.511719 8.9042969 L 12.511719 5.2128906 L 7.0605469 5.859375 L 1.6113281 5.2128906 z " />
    <path
       style="fill:#000000;stroke-width:0.0133732"
       d="M 3.1866571,11.260175 V 9.4235567 H 3.387053 3.5874544 l -0.018415,1.8390193 0.018415,1.834231 H 3.387053 3.1866571 Z"
       id="path200"
       inkscape:connector-curvature="0"
       sodipodi:nodetypes="ccccccccc" />
    <path
       style="fill:#000000;stroke-width:0.0133732"
       d="M 6.6602391,11.260175 V 9.4235567 h 0.2003958 0.2004068 v 1.8366183 1.836632 H 6.8606349 6.6602391 Z"
       id="path202"
       inkscape:connector-curvature="0"
       sodipodi:nodetypes="ccccccccc" />
    <path
       style="fill:#000000;stroke-width:0.00472814"
       d="m 3.5206519,12.900024 v -0.13119 h 1.6031893 1.6032001 v 0.13119 0.0656 H 5.1238412 3.5206519 Z"
       id="path214"
       inkscape:connector-curvature="0"
       sodipodi:nodetypes="ccccccccc" />
    <path
       style="fill:#000000;stroke-width:0.00472814"
       d="m 3.5206519,11.325776 v -0.131189 h 1.6031893 1.6032001 v 0.131189 0.0656 H 5.1238412 3.5206519 Z"
       id="path216"
       inkscape:connector-curvature="0"
       sodipodi:nodetypes="ccccccccc" />
    <path
       style="fill:#000000;stroke-width:0.00472814"
       d="m 5.591441,12.375272 v -0.32796 h 0.4007972 0.4008079 v 0.32796 0.327978 H 5.9922382 5.591441 Z"
       id="path218"
       inkscape:connector-curvature="0"
       sodipodi:nodetypes="ccccccccc" />
    <path
       style="fill:#000000;stroke-width:0.00472814"
       d="m 4.6562473,12.375272 v -0.32796 H 5.0570444 5.457847 v 0.32796 0.327978 H 5.0570444 l -0.4082612,-3.72e-4 z"
       id="path220"
       inkscape:connector-curvature="0"
       sodipodi:nodetypes="ccccccccc" />
    <path
       style="fill:#000000;stroke-width:0.00472814"
       d="m 3.7210482,12.375272 v -0.32796 h 0.4008079 0.4007973 v 0.32796 0.327978 H 4.1218561 3.7210482 Z"
       id="path222"
       inkscape:connector-curvature="0"
       sodipodi:nodetypes="ccccccccc" />
    <path
       style="fill:#000000;stroke-width:0.00472814"
       d="m 3.5206519,9.6203357 v -0.0656 h 1.6031893 1.6032001 v 0.0656 0.131189 H 5.1238412 3.5206519 Z"
       id="path228"
       inkscape:connector-curvature="0"
       sodipodi:nodetypes="ccccccccc" />
    <path
       style="fill:#000000;stroke-width:0.00227641"
       d="m 15.113927,15.150072 c -0.0042,-0.01021 -0.05383,-0.135031 -0.110525,-0.277544 -0.05668,-0.1425 -0.103441,-0.260027 -0.10389,-0.261152 -4.53e-4,-0.0012 0.04004,-0.0022 0.09,-0.0022 l 0.09084,4e-6 0.0656,0.147958 c 0.03607,0.08139 0.06642,0.147959 0.06739,0.147959 9.7e-4,0 0.06125,-0.164542 0.133895,-0.365652 0.08099,-0.224192 0.146426,-0.401715 0.169142,-0.458866 l 0.03706,-0.09322 0.109602,-2.1e-5 0.109603,-2.2e-5 -0.01554,0.03888 c -0.0086,0.02137 -0.113573,0.286791 -0.233406,0.589809 l -0.217871,0.550943 -0.09222,7.05e-4 -0.09222,8.32e-4 z"
       id="path753"
       inkscape:connector-curvature="0" />
    <path
       style="fill:#000000;stroke-width:0.00219895"
       d="m 15.091224,10.412133 c -0.0042,-0.0091 -0.05586,-0.121437 -0.114676,-0.249601 -0.05882,-0.128165 -0.107322,-0.2338493 -0.107796,-0.2348623 -4.85e-4,-9.99e-4 0.04154,-0.0019 0.09338,-0.0019 l 0.09424,3e-6 0.06807,0.1330673 c 0.03743,0.07319 0.06891,0.133067 0.06993,0.133067 0.0011,0 0.06354,-0.147974 0.138923,-0.3288403 0.08403,-0.201622 0.151929,-0.361274 0.175498,-0.412673 l 0.03844,-0.08383 0.113727,-2e-5 0.113728,-2e-5 -0.01611,0.03495 c -0.0088,0.01922 -0.11784,0.257917 -0.242177,0.53043 l -0.226054,0.4954763 -0.09569,6.43e-4 -0.0957,6.42e-4 z"
       id="path755"
       inkscape:connector-curvature="0" />
    <path
       style="fill:#000000;stroke-width:0.00196019"
       d="m 14.865074,12.803801 c 3.18e-4,-10e-4 0.07968,-0.128552 0.176357,-0.283352 0.09668,-0.154791 0.175988,-0.28312 0.176247,-0.285174 2.79e-4,-0.0022 -0.07436,-0.128196 -0.176209,-0.297563 -0.09718,-0.161606 -0.176677,-0.294297 -0.176677,-0.294869 0,-5.6e-4 0.0444,-9.99e-4 0.09865,-9.34e-4 l 0.09865,1.31e-4 0.135284,0.230059 c 0.0744,0.126526 0.136571,0.23038 0.138145,0.230773 0.0021,5.19e-4 0.04203,-0.06583 0.138724,-0.230141 l 0.135861,-0.230849 0.09877,-4.4e-5 c 0.07855,-3.6e-5 0.0985,5.21e-4 0.09747,0.0028 -7.75e-4,0.0015 -0.08,0.133717 -0.176191,0.293755 -0.09619,0.160031 -0.175164,0.292973 -0.175487,0.295426 -4.33e-4,0.0032 0.05004,0.0855 0.176088,0.287281 0.09718,0.155552 0.176678,0.283227 0.176678,0.283722 0,4.82e-4 -0.0444,8.49e-4 -0.09866,7.84e-4 l -0.09865,-8.2e-5 -0.136141,-0.231491 c -0.07487,-0.127314 -0.137067,-0.231326 -0.138196,-0.231127 -0.0011,2.17e-4 -0.06318,0.10415 -0.137887,0.231017 l -0.135833,0.230654 -0.09878,5.82e-4 c -0.05434,2.98e-4 -0.09852,-2.99e-4 -0.09821,-0.0013 z"
       id="path757"
       inkscape:connector-curvature="0" />
    <path
       style="fill:#000000;stroke-width:0.658157"
       d="m 8.5303946,11.678329 0.00943,1.200196 5.7664174,-0.01574 0.01886,-1.168575"
       id="path759"
       sodipodi:nodetypes="cccc" />
    <path
       style="fill:#000000;stroke-width:0.641398"
       d="m 8.5235754,13.995638 0.00948,1.195146 5.8175906,-0.02227 -2.8e-4,-1.150333"
       id="path761"
       sodipodi:nodetypes="cccc" />
    <path
       style="fill:#000000;stroke-width:0.641398"
       d="m 8.498661,9.2960337 0.00948,1.1951443 5.817593,-0.02227 -2.83e-4,-1.1503323"
       id="path763"
       sodipodi:nodetypes="cccc" />
  </g>
</svg>
