<?xml version="1.0" encoding="UTF-8" standalone="no"?>
<!-- Created with Inkscape (http://www.inkscape.org/) -->

<svg
   width="16.0px"
   height="16.0px"
   viewBox="0 0 16.0 16.0"
   version="1.1"
   id="SVGRoot"
   sodipodi:docname="logo_masodik.svg"
   inkscape:version="1.2.2 (b0a8486541, 2022-12-01)"
   inkscape:export-filename="logo_masodik.png"
   inkscape:export-xdpi="20000"
   inkscape:export-ydpi="20000"
   xmlns:inkscape="http://www.inkscape.org/namespaces/inkscape"
   xmlns:sodipodi="http://sodipodi.sourceforge.net/DTD/sodipodi-0.dtd"
   xmlns="http://www.w3.org/2000/svg"
   xmlns:svg="http://www.w3.org/2000/svg">
  <sodipodi:namedview
     id="namedview5085"
     pagecolor="#ffffff"
     bordercolor="#000000"
     borderopacity="0.25"
     inkscape:showpageshadow="2"
     inkscape:pageopacity="0.0"
     inkscape:pagecheckerboard="0"
     inkscape:deskcolor="#d1d1d1"
     inkscape:document-units="px"
     showgrid="true"
     inkscape:zoom="32"
     inkscape:cx="2.46875"
     inkscape:cy="10"
     inkscape:window-width="1920"
     inkscape:window-height="1008"
     inkscape:window-x="0"
     inkscape:window-y="0"
     inkscape:window-maximized="1"
     inkscape:current-layer="layer1">
    <inkscape:grid
       type="xygrid"
       id="grid5208" />
  </sodipodi:namedview>
  <defs
     id="defs5080">
    <clipPath
       clipPathUnits="userSpaceOnUse"
       id="clipPath3677">
      <path
         id="path3679"
         style="fill:#808080;stroke-width:0.264583"
         d="M 125.08384,65.486444 V 177.71318 h 9.972 c 0.0155,-0.0188 0.0361,-0.0372 0.063,-0.0543 0.0617,-0.0389 0.1226,-0.0789 0.1726,-0.13281 0.0399,-0.0412 0.0782,-0.0851 0.12506,-0.11833 V 65.486444 Z" />
    </clipPath>
    <clipPath
       clipPathUnits="userSpaceOnUse"
       id="clipPath1926">
      <path
         id="path1928"
         style="fill:#a05a2c;stroke-width:0.264583"
         d="m 30.647225,61.009713 v 3.538286 h 15.176336 v -3.528984 c -7.94e-4,0.0016 -0.0016,0.0031 -0.0026,0.0047 -7.94e-4,7.94e-4 -0.0016,0.0013 -0.0026,0.0021 -0.0056,0.0041 -0.01167,0.0078 -0.01757,0.01138 -7.94e-4,5.29e-4 -0.0021,0.0013 -0.0031,0.0021 0.0065,0.0066 0.0016,0.01741 -0.01344,0.01603 -0.0026,-2.46e-4 -0.0052,-2.64e-4 -0.0078,-5.29e-4 5.29e-4,0.005 0.0011,0.01 0.0011,0.01497 2.01e-4,0.01103 5.29e-4,0.02244 -0.0047,0.03256 -0.0013,0.0024 -0.0021,0.0058 -0.0047,0.0072 -0.0042,0.0024 -0.0093,0.0021 -0.01394,0.0031 -0.0021,-0.0019 -0.0045,-0.0034 -0.0062,-0.0057 -0.0034,-0.0046 -0.0035,-0.01336 -0.0036,-0.02119 -5.29e-4,-2.64e-4 -0.0011,-0.0011 -0.0016,-0.0016 2.64e-4,0.01114 7.93e-4,0.02193 5.29e-4,0.03307 -0.0011,0.0084 -0.003,0.01778 -0.01188,0.02119 -0.0019,5.29e-4 -0.0038,7.94e-4 -0.0057,0.0011 -0.0016,-2.64e-4 -0.0035,-5.29e-4 -0.0052,-0.0011 -0.0073,-0.0026 -0.01135,-0.0087 -0.01344,-0.01551 -0.0011,0.01098 -0.0033,0.02167 -0.0088,0.03153 -0.0051,0.0084 -0.0054,0.01243 -0.02119,0.0078 -0.0054,-0.0016 -0.0024,-0.01905 -0.0021,-0.02273 -5.29e-4,0.0036 -0.0019,0.0075 -0.0031,0.01085 -7.94e-4,0.0021 -7.94e-4,0.0047 -0.0026,0.0057 -0.0045,0.0024 -0.0095,0.0024 -0.01447,0.0036 -0.0011,-0.0011 -0.0024,-0.0019 -0.0036,-0.0031 v 5.29e-4 c 0,0.02045 -0.02066,0.02045 -0.02066,0 v -0.04289 -0.05581 -0.04858 z m 15.170134,0 c 0.0021,0.0021 0.0041,0.0045 0.0062,0.0067 v -0.0067 z m -0.113173,0.0155 c 7.9e-5,0.0011 5.29e-4,0.0021 5.29e-4,0.0031 -9e-5,-0.0011 -5.29e-4,-0.0021 -5.29e-4,-0.0031 z" />
    </clipPath>
    <clipPath
       clipPathUnits="userSpaceOnUse"
       id="clipPath1926-6">
      <path
         id="path1928-4"
         style="fill:#a05a2c;stroke-width:0.264583"
         d="m 30.647225,61.009713 v 3.538286 h 15.176336 v -3.528984 c -7.94e-4,0.0016 -0.0016,0.0031 -0.0026,0.0047 -7.94e-4,7.94e-4 -0.0016,0.0013 -0.0026,0.0021 -0.0056,0.0041 -0.01167,0.0078 -0.01757,0.01138 -7.94e-4,5.29e-4 -0.0021,0.0013 -0.0031,0.0021 0.0065,0.0066 0.0016,0.01741 -0.01344,0.01603 -0.0026,-2.46e-4 -0.0052,-2.64e-4 -0.0078,-5.29e-4 5.29e-4,0.005 0.0011,0.01 0.0011,0.01497 2.01e-4,0.01103 5.29e-4,0.02244 -0.0047,0.03256 -0.0013,0.0024 -0.0021,0.0058 -0.0047,0.0072 -0.0042,0.0024 -0.0093,0.0021 -0.01394,0.0031 -0.0021,-0.0019 -0.0045,-0.0034 -0.0062,-0.0057 -0.0034,-0.0046 -0.0035,-0.01336 -0.0036,-0.02119 -5.29e-4,-2.64e-4 -0.0011,-0.0011 -0.0016,-0.0016 2.64e-4,0.01114 7.93e-4,0.02193 5.29e-4,0.03307 -0.0011,0.0084 -0.003,0.01778 -0.01188,0.02119 -0.0019,5.29e-4 -0.0038,7.94e-4 -0.0057,0.0011 -0.0016,-2.64e-4 -0.0035,-5.29e-4 -0.0052,-0.0011 -0.0073,-0.0026 -0.01135,-0.0087 -0.01344,-0.01551 -0.0011,0.01098 -0.0033,0.02167 -0.0088,0.03153 -0.0051,0.0084 -0.0054,0.01243 -0.02119,0.0078 -0.0054,-0.0016 -0.0024,-0.01905 -0.0021,-0.02273 -5.29e-4,0.0036 -0.0019,0.0075 -0.0031,0.01085 -7.94e-4,0.0021 -7.94e-4,0.0047 -0.0026,0.0057 -0.0045,0.0024 -0.0095,0.0024 -0.01447,0.0036 -0.0011,-0.0011 -0.0024,-0.0019 -0.0036,-0.0031 v 5.29e-4 c 0,0.02045 -0.02066,0.02045 -0.02066,0 v -0.04289 -0.05581 -0.04858 z m 15.170134,0 c 0.0021,0.0021 0.0041,0.0045 0.0062,0.0067 v -0.0067 z m -0.113173,0.0155 c 7.9e-5,0.0011 5.29e-4,0.0021 5.29e-4,0.0031 -9e-5,-0.0011 -5.29e-4,-0.0021 -5.29e-4,-0.0031 z" />
    </clipPath>
    <clipPath
       clipPathUnits="userSpaceOnUse"
       id="clipPath2400">
      <path
         id="path2402"
         style="fill:#a05a2c;stroke-width:0.264583"
         d="m 31.038932,120.63191 c 0.03359,0.0626 0.06315,0.12793 0.0925,0.19172 0.214577,0.46636 0.272431,0.8234 0.393258,1.32499 0.05555,0.25922 0.114687,0.51771 0.166397,0.77773 0.0888,0.44656 0.163592,0.89548 0.234611,1.34513 h 35.82262 v -3.63957 z m -8.936922,0.86197 c -0.01479,10e-4 -0.02951,0.002 -0.04393,0.003 v 0.2005 c 0.0087,-0.0515 0.01886,-0.10625 0.02997,-0.16484 0.0027,-0.0141 0.0075,-0.0266 0.01395,-0.0382 z" />
    </clipPath>
    <clipPath
       clipPathUnits="userSpaceOnUse"
       id="clipPath1938">
      <path
         id="path1940"
         style="fill:#a05a2c;stroke-width:0.264583"
         d="m 40.875543,60.986977 v 21.289655 h 4.795054 V 61.012298 c -0.0035,0.0013 -0.0079,0.0013 -0.01241,0.0016 h -0.04393 -0.02687 c -0.02045,0 -0.02045,-0.02066 0,-0.02066 h 0.0052 c -5.29e-4,-0.0021 -1.06e-4,-0.0043 0.0011,-0.0062 z m 4.792988,0 c 5.29e-4,2.64e-4 0.0013,5.29e-4 0.0021,0.0011 v -0.0011 z" />
    </clipPath>
    <clipPath
       clipPathUnits="userSpaceOnUse"
       id="clipPath1938-5">
      <path
         id="path1940-04"
         style="fill:#a05a2c;stroke-width:0.264583"
         d="m 40.875543,60.986977 v 21.289655 h 4.795054 V 61.012298 c -0.0035,0.0013 -0.0079,0.0013 -0.01241,0.0016 h -0.04393 -0.02687 c -0.02045,0 -0.02045,-0.02066 0,-0.02066 h 0.0052 c -5.29e-4,-0.0021 -1.06e-4,-0.0043 0.0011,-0.0062 z m 4.792988,0 c 5.29e-4,2.64e-4 0.0013,5.29e-4 0.0021,0.0011 v -0.0011 z" />
    </clipPath>
    <clipPath
       clipPathUnits="userSpaceOnUse"
       id="clipPath1938-3">
      <path
         id="path1940-0"
         style="fill:#a05a2c;stroke-width:0.264583"
         d="m 40.875543,60.986977 v 21.289655 h 4.795054 V 61.012298 c -0.0035,0.0013 -0.0079,0.0013 -0.01241,0.0016 h -0.04393 -0.02687 c -0.02045,0 -0.02045,-0.02066 0,-0.02066 h 0.0052 c -5.29e-4,-0.0021 -1.06e-4,-0.0043 0.0011,-0.0062 z m 4.792988,0 c 5.29e-4,2.64e-4 0.0013,5.29e-4 0.0021,0.0011 v -0.0011 z" />
    </clipPath>
    <clipPath
       clipPathUnits="userSpaceOnUse"
       id="clipPath1938-7">
      <path
         id="path1940-4"
         style="fill:#a05a2c;stroke-width:0.264583"
         d="m 40.875543,60.986977 v 21.289655 h 4.795054 V 61.012298 c -0.0035,0.0013 -0.0079,0.0013 -0.01241,0.0016 h -0.04393 -0.02687 c -0.02045,0 -0.02045,-0.02066 0,-0.02066 h 0.0052 c -5.29e-4,-0.0021 -1.06e-4,-0.0043 0.0011,-0.0062 z m 4.792988,0 c 5.29e-4,2.64e-4 0.0013,5.29e-4 0.0021,0.0011 v -0.0011 z" />
    </clipPath>
    <clipPath
       clipPathUnits="userSpaceOnUse"
       id="clipPath1938-7-8">
      <path
         id="path1940-4-6"
         style="fill:#a05a2c;stroke-width:0.264583"
         d="m 40.875543,60.986977 v 21.289655 h 4.795054 V 61.012298 c -0.0035,0.0013 -0.0079,0.0013 -0.01241,0.0016 h -0.04393 -0.02687 c -0.02045,0 -0.02045,-0.02066 0,-0.02066 h 0.0052 c -5.29e-4,-0.0021 -1.06e-4,-0.0043 0.0011,-0.0062 z m 4.792988,0 c 5.29e-4,2.64e-4 0.0013,5.29e-4 0.0021,0.0011 v -0.0011 z" />
    </clipPath>
    <clipPath
       clipPathUnits="userSpaceOnUse"
       id="clipPath2789">
      <path
         id="path2791"
         style="fill:#a05a2c;stroke-width:0.264584"
         d="m 40.875512,60.987176 v 21.289501 h 4.795 v -21.26418 c -0.0035,0.0013 -0.0078,0.0013 -0.01235,0.0016 h -0.0437 -0.02725 c -0.02045,0 -0.02045,-0.02066 0,-0.02066 h 0.0051 c -5.26e-4,-0.0021 2.63e-4,-0.0043 0.0016,-0.0062 z m 4.792944,0 c 5.27e-4,2.62e-4 0.0013,5.29e-4 0.0021,0.0011 v -0.0011 z m -0.172756,17.5677 c 0.0067,-5.29e-4 0.01316,-2.41e-4 0.01953,0 0.153147,0.0058 0.2094,0.19353 0.0092,0.334352 -0.08472,0.0596 -0.171353,0.116053 -0.257076,0.174154 -0.148648,0.103041 -0.299354,0.20309 -0.445259,0.310063 -0.14348,0.113193 -0.280081,0.23444 -0.420063,0.351923 -0.152807,0.128293 -0.308659,0.253676 -0.460682,0.382927 -0.143359,0.122734 -0.288621,0.242704 -0.432917,0.364327 -0.140177,0.11676 -0.283425,0.2303 -0.424691,0.345721 -0.147885,0.117882 -0.297456,0.232956 -0.448857,0.346237 -0.153876,0.115863 -0.311377,0.229596 -0.484849,0.314198 -0.13276,0.06573 -0.267303,0.128441 -0.392811,0.207744 -0.106413,0.06897 -0.21055,0.143113 -0.299238,0.234615 -0.06389,0.06793 -0.1246,0.139472 -0.193324,0.202574 -0.240555,0.220764 -0.424193,-0.02249 -0.201547,-0.261487 0.05212,-0.05595 0.103414,-0.112249 0.15579,-0.16795 0.106362,-0.111143 0.231231,-0.201558 0.359392,-0.28526 0.136017,-0.0868 0.281967,-0.155461 0.426234,-0.226863 0.154963,-0.07586 0.2955,-0.178406 0.432917,-0.282159 0.149061,-0.111471 0.296603,-0.225027 0.442174,-0.34107 0.13937,-0.113981 0.280215,-0.225788 0.41852,-0.341069 0.143151,-0.120692 0.287605,-0.239434 0.429832,-0.361226 0.152778,-0.13 0.309152,-0.255994 0.462741,-0.384994 0.142353,-0.119813 0.282293,-0.242762 0.42829,-0.358125 0.15093,-0.111661 0.306959,-0.215525 0.461195,-0.322466 0.085,-0.05782 0.171453,-0.1134 0.255536,-0.172601 0.05837,-0.04108 0.112983,-0.06067 0.159902,-0.06357 z" />
    </clipPath>
    <clipPath
       clipPathUnits="userSpaceOnUse"
       id="clipPath1705">
      <path
         id="path1707"
         style="fill:#a05a2c;stroke-width:0.264583"
         d="M 81.98621,-40.435776 H 92.318914 V -106.794 c -0.01357,-0.0119 -0.02638,-0.0247 -0.03721,-0.0393 -0.02368,-0.0295 -0.04615,-0.0596 -0.06873,-0.0899 H 81.98621 Z" />
    </clipPath>
    <clipPath
       clipPathUnits="userSpaceOnUse"
       id="clipPath1049">
      <path
         id="path1051"
         style="fill:#a05a2c;stroke-width:0.264583"
         d="m 94.372533,66.041447 v 16.105995 h 0.141079 c 0.09215,-0.0013 0.18402,-0.01053 0.275952,-0.01654 0.07386,-0.0049 0.147701,-0.0083 0.221692,-0.01035 0.09729,-0.0027 0.09975,0.09549 0.0026,0.09819 -0.07275,0.0021 -0.145444,0.0055 -0.218075,0.01035 -0.02066,0.0013 -0.04136,0.0026 -0.06201,0.0041 0.015,0.01667 0.01421,0.04003 -0.0026,0.05684 0.01976,0.02371 0.0092,0.06051 -0.03514,0.07338 0.0052,0.02582 -0.01696,0.05545 -0.06873,0.05891 -0.0372,0.0024 -0.0744,0.0055 -0.111619,0.0083 0.0095,0.02389 -0.0055,0.05599 -0.05426,0.07028 -0.0186,0.0054 -0.03715,0.01106 -0.05581,0.01654 h 4.849317 V 66.471379 c -0.02818,-0.0027 -0.05625,-0.0058 -0.08423,-0.0098 -0.08095,-0.01045 -0.161849,-0.02217 -0.243396,-0.02687 -0.06924,-0.0037 -0.138501,-0.0035 -0.20774,5.29e-4 -0.09714,0.0057 -0.104733,-0.09233 -0.0072,-0.09818 0.02746,-0.0016 0.05517,-0.0028 0.08268,-0.0031 0.01603,-2.07e-4 0.03204,7.93e-4 0.04806,0.0011 -0.0079,-0.0024 -0.01548,-0.0047 -0.02326,-0.0072 -2.64e-4,-3e-6 -5.29e-4,5e-6 -0.0011,0 -0.01109,-1.75e-4 -0.02093,-0.0016 -0.02946,-0.0041 h -5.29e-4 c -0.01947,-0.0019 -0.03897,-0.0039 -0.05839,-0.0057 -0.09085,-0.0085 -0.09655,-0.09123 -0.01707,-0.09819 0.0053,-5.29e-4 0.01085,-2.51e-4 0.01707,0 0.0073,2.65e-4 0.01492,5.3e-4 0.02222,0.0011 0.0051,5.29e-4 0.05713,0.0066 0.08165,0.0093 2.64e-4,2.9e-5 7.94e-4,-3.7e-5 0.0011,0 0.02127,2.62e-4 0.04237,0.0021 0.06356,0.0031 -0.06023,-0.02585 -0.04568,-0.09754 0.03824,-0.0894 0.03802,0.0037 0.07582,0.0078 0.113689,0.01241 -0.02148,-0.02842 -0.0019,-0.06981 0.05736,-0.07183 0.0029,-9.8e-5 0.0057,-9.8e-5 0.0088,0 0.0072,2.01e-4 0.01447,0.0019 0.0217,0.0021 -0.03323,-0.007 -0.0519,-0.02405 -0.05788,-0.04186 z m 4.882391,0.229444 c -0.0016,2.65e-4 -0.003,7.94e-4 -0.0047,0.0011 0.0016,2.01e-4 0.003,1.42e-4 0.0047,5.29e-4 z" />
    </clipPath>
    <clipPath
       clipPathUnits="userSpaceOnUse"
       id="clipPath1717">
      <path
         id="path1719"
         style="fill:#a05a2c;stroke-width:0.264583"
         d="m 94.372585,66.041304 v 13.974857 c 5.29e-4,-0.0011 0.0019,-0.0021 0.0036,-0.0026 0.0011,-2.65e-4 0.0024,0 0.0036,0 h 0.01963 c 0.009,6.6e-5 0.01839,-2.17e-4 0.02739,0 0.0037,2.64e-4 0.01029,8.4e-5 0.01035,0.0057 0,0.0021 -7.94e-4,0.0033 -0.0016,0.0041 -0.0013,7.93e-4 -0.0037,0.0016 -0.0052,0.0021 -0.0078,0.0016 -0.01577,0.0024 -0.02376,0.0031 -0.0028,2.22e-4 -0.0055,2.65e-4 -0.0083,5.29e-4 0.0011,0.0029 7.93e-4,0.0061 -0.0026,0.0078 -0.0011,5.3e-4 -0.0024,7.94e-4 -0.0031,0.0011 -1.61e-4,2.64e-4 -5.29e-4,5.29e-4 -5.29e-4,0.0011 1.88e-4,0.0019 -2.65e-4,0.0036 -0.0011,0.0047 -0.0035,0.0032 -0.01154,7.94e-4 -0.0093,-0.0067 8e-5,-2.64e-4 -7.9e-5,-7.93e-4 0,-0.0011 -0.003,-5.29e-4 -0.0058,-7.94e-4 -0.0088,-0.0016 -1.27e-4,-2.7e-5 -2.64e-4,3.9e-5 -5.29e-4,0 v 2.113049 h 0.141079 c 0.09215,-0.0013 0.18402,-0.01053 0.275952,-0.01654 0.07386,-0.0049 0.147701,-0.0083 0.221692,-0.01035 0.09729,-0.0027 0.09973,0.09548 0.0026,0.09818 -0.07275,0.0021 -0.145445,0.0055 -0.218075,0.01035 -0.02066,0.0013 -0.04136,0.0026 -0.06201,0.0041 0.015,0.01667 0.01423,0.04003 -0.0026,0.05684 0.01976,0.02371 0.0092,0.06051 -0.03514,0.07338 0.0052,0.02582 -0.01696,0.05545 -0.06873,0.05891 -0.0372,0.0024 -0.0744,0.0055 -0.111619,0.0083 0.0095,0.02389 -0.0055,0.05599 -0.05426,0.07028 -0.0186,0.0054 -0.03715,0.01106 -0.05581,0.01654 h 4.849317 V 66.471217 c -0.02818,-0.0027 -0.05625,-0.0058 -0.08423,-0.0098 -0.08095,-0.01045 -0.161849,-0.02217 -0.243396,-0.02687 -0.06924,-0.0037 -0.138501,-0.0035 -0.20774,5.29e-4 -0.09714,0.0057 -0.104767,-0.09234 -0.0072,-0.09819 0.02746,-0.0016 0.05517,-0.0028 0.08268,-0.0031 0.01603,-2.07e-4 0.03204,7.94e-4 0.04806,0.0011 -0.0079,-0.0024 -0.01548,-0.0042 -0.02326,-0.0067 -2.65e-4,-3e-6 -5.29e-4,5e-6 -0.0011,0 -0.01109,-1.75e-4 -0.02093,-0.0016 -0.02946,-0.0041 h -5.3e-4 c -0.01947,-0.0019 -0.03897,-0.0039 -0.05839,-0.0057 -0.09085,-0.0085 -0.09653,-0.09122 -0.01704,-0.09819 0.0053,-5.29e-4 0.01082,-2.51e-4 0.01704,0 0.0073,2.65e-4 0.01492,5.3e-4 0.02222,0.0011 0.0051,5.29e-4 0.05713,0.0066 0.08165,0.0093 2.64e-4,2.9e-5 7.93e-4,-3.7e-5 0.0011,0 0.02127,2.62e-4 0.04237,0.0021 0.06356,0.0031 -0.06023,-0.02585 -0.04568,-0.09754 0.03824,-0.0894 0.03802,0.0037 0.07582,0.0078 0.113689,0.01241 -0.02148,-0.02842 -0.0019,-0.06981 0.05736,-0.07183 0.0029,-9.8e-5 0.0057,-9.8e-5 0.0088,0 0.0072,2.01e-4 0.01447,0.0019 0.0217,0.0021 -0.03323,-0.007 -0.0519,-0.02405 -0.05788,-0.04186 z m 4.882391,0.229444 c -0.0016,2.64e-4 -0.003,7.93e-4 -0.0047,0.0011 0.0016,2.01e-4 0.003,1.3e-4 0.0047,5.29e-4 z" />
    </clipPath>
    <clipPath
       clipPathUnits="userSpaceOnUse"
       id="clipPath1717-7">
      <path
         id="path1719-6"
         style="fill:#a05a2c;stroke-width:0.264583"
         d="m 94.372585,66.041304 v 13.974857 c 5.29e-4,-0.0011 0.0019,-0.0021 0.0036,-0.0026 0.0011,-2.65e-4 0.0024,0 0.0036,0 h 0.01963 c 0.009,6.6e-5 0.01839,-2.17e-4 0.02739,0 0.0037,2.64e-4 0.01029,8.4e-5 0.01035,0.0057 0,0.0021 -7.94e-4,0.0033 -0.0016,0.0041 -0.0013,7.93e-4 -0.0037,0.0016 -0.0052,0.0021 -0.0078,0.0016 -0.01577,0.0024 -0.02376,0.0031 -0.0028,2.22e-4 -0.0055,2.65e-4 -0.0083,5.29e-4 0.0011,0.0029 7.93e-4,0.0061 -0.0026,0.0078 -0.0011,5.3e-4 -0.0024,7.94e-4 -0.0031,0.0011 -1.61e-4,2.64e-4 -5.29e-4,5.29e-4 -5.29e-4,0.0011 1.88e-4,0.0019 -2.65e-4,0.0036 -0.0011,0.0047 -0.0035,0.0032 -0.01154,7.94e-4 -0.0093,-0.0067 8e-5,-2.64e-4 -7.9e-5,-7.93e-4 0,-0.0011 -0.003,-5.29e-4 -0.0058,-7.94e-4 -0.0088,-0.0016 -1.27e-4,-2.7e-5 -2.64e-4,3.9e-5 -5.29e-4,0 v 2.113049 h 0.141079 c 0.09215,-0.0013 0.18402,-0.01053 0.275952,-0.01654 0.07386,-0.0049 0.147701,-0.0083 0.221692,-0.01035 0.09729,-0.0027 0.09973,0.09548 0.0026,0.09818 -0.07275,0.0021 -0.145445,0.0055 -0.218075,0.01035 -0.02066,0.0013 -0.04136,0.0026 -0.06201,0.0041 0.015,0.01667 0.01423,0.04003 -0.0026,0.05684 0.01976,0.02371 0.0092,0.06051 -0.03514,0.07338 0.0052,0.02582 -0.01696,0.05545 -0.06873,0.05891 -0.0372,0.0024 -0.0744,0.0055 -0.111619,0.0083 0.0095,0.02389 -0.0055,0.05599 -0.05426,0.07028 -0.0186,0.0054 -0.03715,0.01106 -0.05581,0.01654 h 4.849317 V 66.471217 c -0.02818,-0.0027 -0.05625,-0.0058 -0.08423,-0.0098 -0.08095,-0.01045 -0.161849,-0.02217 -0.243396,-0.02687 -0.06924,-0.0037 -0.138501,-0.0035 -0.20774,5.29e-4 -0.09714,0.0057 -0.104767,-0.09234 -0.0072,-0.09819 0.02746,-0.0016 0.05517,-0.0028 0.08268,-0.0031 0.01603,-2.07e-4 0.03204,7.94e-4 0.04806,0.0011 -0.0079,-0.0024 -0.01548,-0.0042 -0.02326,-0.0067 -2.65e-4,-3e-6 -5.29e-4,5e-6 -0.0011,0 -0.01109,-1.75e-4 -0.02093,-0.0016 -0.02946,-0.0041 h -5.3e-4 c -0.01947,-0.0019 -0.03897,-0.0039 -0.05839,-0.0057 -0.09085,-0.0085 -0.09653,-0.09122 -0.01704,-0.09819 0.0053,-5.29e-4 0.01082,-2.51e-4 0.01704,0 0.0073,2.65e-4 0.01492,5.3e-4 0.02222,0.0011 0.0051,5.29e-4 0.05713,0.0066 0.08165,0.0093 2.64e-4,2.9e-5 7.93e-4,-3.7e-5 0.0011,0 0.02127,2.62e-4 0.04237,0.0021 0.06356,0.0031 -0.06023,-0.02585 -0.04568,-0.09754 0.03824,-0.0894 0.03802,0.0037 0.07582,0.0078 0.113689,0.01241 -0.02148,-0.02842 -0.0019,-0.06981 0.05736,-0.07183 0.0029,-9.8e-5 0.0057,-9.8e-5 0.0088,0 0.0072,2.01e-4 0.01447,0.0019 0.0217,0.0021 -0.03323,-0.007 -0.0519,-0.02405 -0.05788,-0.04186 z m 4.882391,0.229444 c -0.0016,2.64e-4 -0.003,7.93e-4 -0.0047,0.0011 0.0016,2.01e-4 0.003,1.3e-4 0.0047,5.29e-4 z" />
    </clipPath>
    <clipPath
       clipPathUnits="userSpaceOnUse"
       id="clipPath1350">
      <path
         id="path1352"
         style="fill:#a05a2c;stroke-width:0.264583"
         d="m 99.325721,66.28846 -18.970419,5.29e-4 v 3.523816 c 0.0031,-0.0033 0.0057,-0.006 0.01035,-0.0098 0.0141,-0.01177 0.03099,-0.02021 0.04754,-0.0279 0.0044,-0.0021 0.0086,-0.0043 0.01291,-0.0067 0.0077,-0.0042 0.01553,-0.0089 0.02273,-0.01394 0.0055,-0.0039 0.01042,-0.0083 0.01603,-0.01188 0.0024,-0.0016 0.0052,-0.0029 0.0078,-0.0047 2.65e-4,6.7e-5 7.94e-4,5.3e-4 0.0011,5.3e-4 0.0011,-0.0063 0.0034,-0.01252 0.0067,-0.0186 v -5.29e-4 c 0.0026,-0.0047 0.0058,-0.007 0.0088,-0.0078 7.94e-4,-1.72e-4 0.0019,-9.3e-5 0.0026,0 1.8e-4,-0.0035 0.0011,-0.0069 0.0011,-0.01035 8.2e-5,-0.0053 2.7e-5,-0.01072 0,-0.01601 -4e-5,-0.0075 0.003,-0.01196 0.0067,-0.01291 0.0048,-0.0013 0.0108,0.0032 0.01085,0.01291 3.7e-5,0.0055 -5.29e-4,0.01053 -5.29e-4,0.01601 -5.29e-4,0.01574 -0.0016,0.03141 -0.0036,0.04702 -0.0024,0.02011 -0.0057,0.04016 -0.0062,0.06046 -1.16e-4,0.01246 -2.64e-4,0.02529 0.0011,0.03772 1.64e-4,0.0021 -7.94e-4,0.0029 -0.0011,0.0047 v 5.29e-4 c 1.11e-4,2.64e-4 5.29e-4,5.29e-4 5.29e-4,0.0011 0.0011,0.0045 0.0021,0.0093 0.0026,0.01394 5.29e-4,0.0046 5.29e-4,0.0088 5.29e-4,0.01344 -7.4e-5,0.0043 -7.6e-5,0.0086 -5.29e-4,0.01291 -5.29e-4,0.0051 -0.0011,0.0105 -0.0021,0.01551 -0.0011,0.0044 -0.0019,0.0085 -0.0026,0.01291 -2.65e-4,0.0013 -0.0011,0.0065 -0.0026,0.0067 -0.0042,5.29e-4 -0.0065,2.64e-4 -0.0078,-5.29e-4 -5.3e-4,-0.0011 -0.0013,-0.0031 -0.0016,-0.0052 -8e-6,-7.93e-4 -5e-6,-0.0013 0,-0.0021 -0.0011,0.0019 -0.0026,0.0037 -0.0047,0.0057 -0.0016,0.0016 -0.0041,0.0024 -0.0062,0.0036 -0.0019,5.29e-4 -0.0034,0.0013 -0.0052,0.0016 -0.0064,0.0011 -0.01323,-2.39e-4 -0.01963,-5.3e-4 -0.0087,-5.29e-4 -0.01712,-0.0011 -0.02585,-0.0016 -0.01106,-7.94e-4 -0.02204,-0.0021 -0.03307,-0.0031 -0.0049,-5.29e-4 -0.01013,-7.94e-4 -0.01497,-0.0011 -0.0016,-1.03e-4 -0.0057,-5.29e-4 -0.0072,-5.29e-4 -0.0016,-1.14e-4 -0.0036,-2.41e-4 -0.0052,-5.29e-4 -0.0036,-7.94e-4 -0.006,-5.3e-4 -0.0088,-0.0016 v 0.168982 h 18.970924 v -3.597106 c -5.29e-4,1.24e-4 -0.0011,5.29e-4 -0.0016,5.29e-4 -2.64e-4,7.1e-5 -0.0024,5.29e-4 -0.0026,5.29e-4 0.0016,0.0042 -0.0013,0.0088 -0.0093,0.0067 -0.0024,-5.3e-4 -0.0043,-0.0013 -0.0067,-0.0021 -0.0021,0.0019 -0.0037,0.0037 -0.0057,0.0057 -0.01196,0.01103 -0.02479,0.02154 -0.03721,0.03204 -0.0092,0.0075 -0.01931,0.01447 -0.02946,0.02066 -0.0021,0.0013 -0.004,0.0019 -0.0057,0.0021 -0.0046,0.02275 -0.01016,0.04516 -0.02273,0.06511 -0.03671,0.05821 -0.09151,0.0218 -0.05788,-0.03824 0.01045,-0.0186 0.01397,-0.04022 0.01757,-0.06098 7.94e-4,-0.0049 0.0019,-0.0096 0.0026,-0.01447 5.29e-4,-0.0031 0.0013,-0.0055 0.0021,-0.0083 v -5.29e-4 l -5.29e-4,-5.29e-4 c -2.65e-4,-5.3e-4 -0.0021,-0.0021 -0.0021,-0.0026 -5e-6,-5.29e-4 -1.3e-5,-0.0021 0,-0.0026 v -5.29e-4 c -3.7e-5,-0.0013 -9e-5,-0.0044 0,-0.0057 1.19e-4,-0.0013 0.0013,-0.0034 0.0016,-0.0047 1.05e-4,-5.3e-4 5.29e-4,-0.0024 5.29e-4,-0.0031 5.3e-5,-2.65e-4 -8e-5,-0.0029 0,-0.0031 l 0.0011,-0.0016 c -0.0011,0 -0.0019,8e-6 -0.0031,0 -0.02,-3.7e-5 -0.03949,-0.0013 -0.05943,-0.0016 -0.0199,-2.01e-4 -0.04056,-0.0011 -0.06046,-0.0021 -0.01558,-7.94e-4 -0.03112,-7.94e-4 -0.04651,-0.0036 -0.0042,-7.94e-4 -0.0055,-0.0031 -0.0062,-0.0052 -5.29e-4,3.4e-5 -0.0021,-2.7e-5 -0.0026,0 -0.01204,7.93e-4 -0.02424,0.0013 -0.03617,0.0031 v -5.29e-4 c -0.01209,0.0019 -0.01254,-0.01008 -0.0016,-0.01188 0.01225,-0.0019 0.02484,-0.0024 0.03721,-0.0031 0.0029,-1.8e-4 0.0054,-7.94e-4 0.0083,-0.0011 0.0011,-9e-5 0.0021,3.7e-5 0.0031,0 0.0064,-2.54e-4 0.0127,-2.64e-4 0.01913,0 0.008,5.29e-4 0.0163,0.0013 0.02429,0.0021 0.0087,0.0011 0.01754,0.0013 0.02635,0.0016 0.01164,2.62e-4 0.02299,1.86e-4 0.03462,0 0.01032,-1.05e-4 0.02069,0.0011 0.03101,0.0016 0.0127,5.29e-4 0.02564,0.0021 0.03824,0.0036 0.0045,5.29e-4 0.009,0.0011 0.01344,0.0016 0.0038,-0.0024 0.0078,-0.0032 0.01188,-0.0036 0.0011,-1.05e-4 0.0021,-8e-6 0.0031,0 0.0084,1.12e-4 0.01622,0.0051 0.02222,0.01291 -2.38e-4,-0.0011 -2.7e-5,-0.0021 -5.29e-4,-0.0031 -0.0013,-0.0059 5.29e-4,-0.01011 0.0036,-0.01085 0.003,-7.94e-4 0.0069,0.0013 0.0083,0.0072 5.3e-4,0.0024 0.0016,0.0048 0.0021,0.0072 5.29e-4,-7.9e-5 0.0011,-5.29e-4 0.0016,-5.29e-4 7.93e-4,-5.8e-5 0.0024,-2.9e-5 0.0031,0 0.01439,5.29e-4 0.0285,0.0013 0.04289,0.0016 0.0016,4.5e-5 0.0019,0.0016 0.0031,0.0021 0.0036,-0.0031 0.0078,-0.0067 0.01291,-0.0088 0.0061,-0.0029 0.01191,-0.0053 0.0186,-0.0067 5.3e-4,-5.9e-5 0.0021,-0.0011 0.0026,-0.0011 0.0011,-1.56e-4 0.0021,-1.6e-5 0.0031,0 z m -0.0925,0.256315 c -5.29e-4,7.1e-5 -0.0011,5.29e-4 -0.0016,5.29e-4 v 5.29e-4 c 5.29e-4,-2.65e-4 0.0011,-7.94e-4 0.0016,-0.0011 z" />
    </clipPath>
    <clipPath
       clipPathUnits="userSpaceOnUse"
       id="clipPath1049-1">
      <path
         id="path1051-2"
         style="fill:#a05a2c;stroke-width:0.264583"
         d="m 94.372533,66.041447 v 16.105995 h 0.141079 c 0.09215,-0.0013 0.18402,-0.01053 0.275952,-0.01654 0.07386,-0.0049 0.147701,-0.0083 0.221692,-0.01035 0.09729,-0.0027 0.09975,0.09549 0.0026,0.09819 -0.07275,0.0021 -0.145444,0.0055 -0.218075,0.01035 -0.02066,0.0013 -0.04136,0.0026 -0.06201,0.0041 0.015,0.01667 0.01421,0.04003 -0.0026,0.05684 0.01976,0.02371 0.0092,0.06051 -0.03514,0.07338 0.0052,0.02582 -0.01696,0.05545 -0.06873,0.05891 -0.0372,0.0024 -0.0744,0.0055 -0.111619,0.0083 0.0095,0.02389 -0.0055,0.05599 -0.05426,0.07028 -0.0186,0.0054 -0.03715,0.01106 -0.05581,0.01654 h 4.849317 V 66.471379 c -0.02818,-0.0027 -0.05625,-0.0058 -0.08423,-0.0098 -0.08095,-0.01045 -0.161849,-0.02217 -0.243396,-0.02687 -0.06924,-0.0037 -0.138501,-0.0035 -0.20774,5.29e-4 -0.09714,0.0057 -0.104733,-0.09233 -0.0072,-0.09818 0.02746,-0.0016 0.05517,-0.0028 0.08268,-0.0031 0.01603,-2.07e-4 0.03204,7.93e-4 0.04806,0.0011 -0.0079,-0.0024 -0.01548,-0.0047 -0.02326,-0.0072 -2.64e-4,-3e-6 -5.29e-4,5e-6 -0.0011,0 -0.01109,-1.75e-4 -0.02093,-0.0016 -0.02946,-0.0041 h -5.29e-4 c -0.01947,-0.0019 -0.03897,-0.0039 -0.05839,-0.0057 -0.09085,-0.0085 -0.09655,-0.09123 -0.01707,-0.09819 0.0053,-5.29e-4 0.01085,-2.51e-4 0.01707,0 0.0073,2.65e-4 0.01492,5.3e-4 0.02222,0.0011 0.0051,5.29e-4 0.05713,0.0066 0.08165,0.0093 2.64e-4,2.9e-5 7.94e-4,-3.7e-5 0.0011,0 0.02127,2.62e-4 0.04237,0.0021 0.06356,0.0031 -0.06023,-0.02585 -0.04568,-0.09754 0.03824,-0.0894 0.03802,0.0037 0.07582,0.0078 0.113689,0.01241 -0.02148,-0.02842 -0.0019,-0.06981 0.05736,-0.07183 0.0029,-9.8e-5 0.0057,-9.8e-5 0.0088,0 0.0072,2.01e-4 0.01447,0.0019 0.0217,0.0021 -0.03323,-0.007 -0.0519,-0.02405 -0.05788,-0.04186 z m 4.882391,0.229444 c -0.0016,2.65e-4 -0.003,7.94e-4 -0.0047,0.0011 0.0016,2.01e-4 0.003,1.42e-4 0.0047,5.29e-4 z" />
    </clipPath>
    <clipPath
       clipPathUnits="userSpaceOnUse"
       id="clipPath1350-3">
      <path
         id="path1352-6"
         style="fill:#a05a2c;stroke-width:0.264583"
         d="m 99.325721,66.28846 -18.970419,5.29e-4 v 3.523816 c 0.0031,-0.0033 0.0057,-0.006 0.01035,-0.0098 0.0141,-0.01177 0.03099,-0.02021 0.04754,-0.0279 0.0044,-0.0021 0.0086,-0.0043 0.01291,-0.0067 0.0077,-0.0042 0.01553,-0.0089 0.02273,-0.01394 0.0055,-0.0039 0.01042,-0.0083 0.01603,-0.01188 0.0024,-0.0016 0.0052,-0.0029 0.0078,-0.0047 2.65e-4,6.7e-5 7.94e-4,5.3e-4 0.0011,5.3e-4 0.0011,-0.0063 0.0034,-0.01252 0.0067,-0.0186 v -5.29e-4 c 0.0026,-0.0047 0.0058,-0.007 0.0088,-0.0078 7.94e-4,-1.72e-4 0.0019,-9.3e-5 0.0026,0 1.8e-4,-0.0035 0.0011,-0.0069 0.0011,-0.01035 8.2e-5,-0.0053 2.7e-5,-0.01072 0,-0.01601 -4e-5,-0.0075 0.003,-0.01196 0.0067,-0.01291 0.0048,-0.0013 0.0108,0.0032 0.01085,0.01291 3.7e-5,0.0055 -5.29e-4,0.01053 -5.29e-4,0.01601 -5.29e-4,0.01574 -0.0016,0.03141 -0.0036,0.04702 -0.0024,0.02011 -0.0057,0.04016 -0.0062,0.06046 -1.16e-4,0.01246 -2.64e-4,0.02529 0.0011,0.03772 1.64e-4,0.0021 -7.94e-4,0.0029 -0.0011,0.0047 v 5.29e-4 c 1.11e-4,2.64e-4 5.29e-4,5.29e-4 5.29e-4,0.0011 0.0011,0.0045 0.0021,0.0093 0.0026,0.01394 5.29e-4,0.0046 5.29e-4,0.0088 5.29e-4,0.01344 -7.4e-5,0.0043 -7.6e-5,0.0086 -5.29e-4,0.01291 -5.29e-4,0.0051 -0.0011,0.0105 -0.0021,0.01551 -0.0011,0.0044 -0.0019,0.0085 -0.0026,0.01291 -2.65e-4,0.0013 -0.0011,0.0065 -0.0026,0.0067 -0.0042,5.29e-4 -0.0065,2.64e-4 -0.0078,-5.29e-4 -5.3e-4,-0.0011 -0.0013,-0.0031 -0.0016,-0.0052 -8e-6,-7.93e-4 -5e-6,-0.0013 0,-0.0021 -0.0011,0.0019 -0.0026,0.0037 -0.0047,0.0057 -0.0016,0.0016 -0.0041,0.0024 -0.0062,0.0036 -0.0019,5.29e-4 -0.0034,0.0013 -0.0052,0.0016 -0.0064,0.0011 -0.01323,-2.39e-4 -0.01963,-5.3e-4 -0.0087,-5.29e-4 -0.01712,-0.0011 -0.02585,-0.0016 -0.01106,-7.94e-4 -0.02204,-0.0021 -0.03307,-0.0031 -0.0049,-5.29e-4 -0.01013,-7.94e-4 -0.01497,-0.0011 -0.0016,-1.03e-4 -0.0057,-5.29e-4 -0.0072,-5.29e-4 -0.0016,-1.14e-4 -0.0036,-2.41e-4 -0.0052,-5.29e-4 -0.0036,-7.94e-4 -0.006,-5.3e-4 -0.0088,-0.0016 v 0.168982 h 18.970924 v -3.597106 c -5.29e-4,1.24e-4 -0.0011,5.29e-4 -0.0016,5.29e-4 -2.64e-4,7.1e-5 -0.0024,5.29e-4 -0.0026,5.29e-4 0.0016,0.0042 -0.0013,0.0088 -0.0093,0.0067 -0.0024,-5.3e-4 -0.0043,-0.0013 -0.0067,-0.0021 -0.0021,0.0019 -0.0037,0.0037 -0.0057,0.0057 -0.01196,0.01103 -0.02479,0.02154 -0.03721,0.03204 -0.0092,0.0075 -0.01931,0.01447 -0.02946,0.02066 -0.0021,0.0013 -0.004,0.0019 -0.0057,0.0021 -0.0046,0.02275 -0.01016,0.04516 -0.02273,0.06511 -0.03671,0.05821 -0.09151,0.0218 -0.05788,-0.03824 0.01045,-0.0186 0.01397,-0.04022 0.01757,-0.06098 7.94e-4,-0.0049 0.0019,-0.0096 0.0026,-0.01447 5.29e-4,-0.0031 0.0013,-0.0055 0.0021,-0.0083 v -5.29e-4 l -5.29e-4,-5.29e-4 c -2.65e-4,-5.3e-4 -0.0021,-0.0021 -0.0021,-0.0026 -5e-6,-5.29e-4 -1.3e-5,-0.0021 0,-0.0026 v -5.29e-4 c -3.7e-5,-0.0013 -9e-5,-0.0044 0,-0.0057 1.19e-4,-0.0013 0.0013,-0.0034 0.0016,-0.0047 1.05e-4,-5.3e-4 5.29e-4,-0.0024 5.29e-4,-0.0031 5.3e-5,-2.65e-4 -8e-5,-0.0029 0,-0.0031 l 0.0011,-0.0016 c -0.0011,0 -0.0019,8e-6 -0.0031,0 -0.02,-3.7e-5 -0.03949,-0.0013 -0.05943,-0.0016 -0.0199,-2.01e-4 -0.04056,-0.0011 -0.06046,-0.0021 -0.01558,-7.94e-4 -0.03112,-7.94e-4 -0.04651,-0.0036 -0.0042,-7.94e-4 -0.0055,-0.0031 -0.0062,-0.0052 -5.29e-4,3.4e-5 -0.0021,-2.7e-5 -0.0026,0 -0.01204,7.93e-4 -0.02424,0.0013 -0.03617,0.0031 v -5.29e-4 c -0.01209,0.0019 -0.01254,-0.01008 -0.0016,-0.01188 0.01225,-0.0019 0.02484,-0.0024 0.03721,-0.0031 0.0029,-1.8e-4 0.0054,-7.94e-4 0.0083,-0.0011 0.0011,-9e-5 0.0021,3.7e-5 0.0031,0 0.0064,-2.54e-4 0.0127,-2.64e-4 0.01913,0 0.008,5.29e-4 0.0163,0.0013 0.02429,0.0021 0.0087,0.0011 0.01754,0.0013 0.02635,0.0016 0.01164,2.62e-4 0.02299,1.86e-4 0.03462,0 0.01032,-1.05e-4 0.02069,0.0011 0.03101,0.0016 0.0127,5.29e-4 0.02564,0.0021 0.03824,0.0036 0.0045,5.29e-4 0.009,0.0011 0.01344,0.0016 0.0038,-0.0024 0.0078,-0.0032 0.01188,-0.0036 0.0011,-1.05e-4 0.0021,-8e-6 0.0031,0 0.0084,1.12e-4 0.01622,0.0051 0.02222,0.01291 -2.38e-4,-0.0011 -2.7e-5,-0.0021 -5.29e-4,-0.0031 -0.0013,-0.0059 5.29e-4,-0.01011 0.0036,-0.01085 0.003,-7.94e-4 0.0069,0.0013 0.0083,0.0072 5.3e-4,0.0024 0.0016,0.0048 0.0021,0.0072 5.29e-4,-7.9e-5 0.0011,-5.29e-4 0.0016,-5.29e-4 7.93e-4,-5.8e-5 0.0024,-2.9e-5 0.0031,0 0.01439,5.29e-4 0.0285,0.0013 0.04289,0.0016 0.0016,4.5e-5 0.0019,0.0016 0.0031,0.0021 0.0036,-0.0031 0.0078,-0.0067 0.01291,-0.0088 0.0061,-0.0029 0.01191,-0.0053 0.0186,-0.0067 5.3e-4,-5.9e-5 0.0021,-0.0011 0.0026,-0.0011 0.0011,-1.56e-4 0.0021,-1.6e-5 0.0031,0 z m -0.0925,0.256315 c -5.29e-4,7.1e-5 -0.0011,5.29e-4 -0.0016,5.29e-4 v 5.29e-4 c 5.29e-4,-2.65e-4 0.0011,-7.94e-4 0.0016,-0.0011 z" />
    </clipPath>
    <clipPath
       clipPathUnits="userSpaceOnUse"
       id="clipPath1049-8">
      <path
         id="path1051-4"
         style="fill:#a05a2c;stroke-width:0.264583"
         d="m 94.372533,66.041447 v 16.105995 h 0.141079 c 0.09215,-0.0013 0.18402,-0.01053 0.275952,-0.01654 0.07386,-0.0049 0.147701,-0.0083 0.221692,-0.01035 0.09729,-0.0027 0.09975,0.09549 0.0026,0.09819 -0.07275,0.0021 -0.145444,0.0055 -0.218075,0.01035 -0.02066,0.0013 -0.04136,0.0026 -0.06201,0.0041 0.015,0.01667 0.01421,0.04003 -0.0026,0.05684 0.01976,0.02371 0.0092,0.06051 -0.03514,0.07338 0.0052,0.02582 -0.01696,0.05545 -0.06873,0.05891 -0.0372,0.0024 -0.0744,0.0055 -0.111619,0.0083 0.0095,0.02389 -0.0055,0.05599 -0.05426,0.07028 -0.0186,0.0054 -0.03715,0.01106 -0.05581,0.01654 h 4.849317 V 66.471379 c -0.02818,-0.0027 -0.05625,-0.0058 -0.08423,-0.0098 -0.08095,-0.01045 -0.161849,-0.02217 -0.243396,-0.02687 -0.06924,-0.0037 -0.138501,-0.0035 -0.20774,5.29e-4 -0.09714,0.0057 -0.104733,-0.09233 -0.0072,-0.09818 0.02746,-0.0016 0.05517,-0.0028 0.08268,-0.0031 0.01603,-2.07e-4 0.03204,7.93e-4 0.04806,0.0011 -0.0079,-0.0024 -0.01548,-0.0047 -0.02326,-0.0072 -2.64e-4,-3e-6 -5.29e-4,5e-6 -0.0011,0 -0.01109,-1.75e-4 -0.02093,-0.0016 -0.02946,-0.0041 h -5.29e-4 c -0.01947,-0.0019 -0.03897,-0.0039 -0.05839,-0.0057 -0.09085,-0.0085 -0.09655,-0.09123 -0.01707,-0.09819 0.0053,-5.29e-4 0.01085,-2.51e-4 0.01707,0 0.0073,2.65e-4 0.01492,5.3e-4 0.02222,0.0011 0.0051,5.29e-4 0.05713,0.0066 0.08165,0.0093 2.64e-4,2.9e-5 7.94e-4,-3.7e-5 0.0011,0 0.02127,2.62e-4 0.04237,0.0021 0.06356,0.0031 -0.06023,-0.02585 -0.04568,-0.09754 0.03824,-0.0894 0.03802,0.0037 0.07582,0.0078 0.113689,0.01241 -0.02148,-0.02842 -0.0019,-0.06981 0.05736,-0.07183 0.0029,-9.8e-5 0.0057,-9.8e-5 0.0088,0 0.0072,2.01e-4 0.01447,0.0019 0.0217,0.0021 -0.03323,-0.007 -0.0519,-0.02405 -0.05788,-0.04186 z m 4.882391,0.229444 c -0.0016,2.65e-4 -0.003,7.94e-4 -0.0047,0.0011 0.0016,2.01e-4 0.003,1.42e-4 0.0047,5.29e-4 z" />
    </clipPath>
    <clipPath
       clipPathUnits="userSpaceOnUse"
       id="clipPath1350-4">
      <path
         id="path1352-7"
         style="fill:#a05a2c;stroke-width:0.264583"
         d="m 99.325721,66.28846 -18.970419,5.29e-4 v 3.523816 c 0.0031,-0.0033 0.0057,-0.006 0.01035,-0.0098 0.0141,-0.01177 0.03099,-0.02021 0.04754,-0.0279 0.0044,-0.0021 0.0086,-0.0043 0.01291,-0.0067 0.0077,-0.0042 0.01553,-0.0089 0.02273,-0.01394 0.0055,-0.0039 0.01042,-0.0083 0.01603,-0.01188 0.0024,-0.0016 0.0052,-0.0029 0.0078,-0.0047 2.65e-4,6.7e-5 7.94e-4,5.3e-4 0.0011,5.3e-4 0.0011,-0.0063 0.0034,-0.01252 0.0067,-0.0186 v -5.29e-4 c 0.0026,-0.0047 0.0058,-0.007 0.0088,-0.0078 7.94e-4,-1.72e-4 0.0019,-9.3e-5 0.0026,0 1.8e-4,-0.0035 0.0011,-0.0069 0.0011,-0.01035 8.2e-5,-0.0053 2.7e-5,-0.01072 0,-0.01601 -4e-5,-0.0075 0.003,-0.01196 0.0067,-0.01291 0.0048,-0.0013 0.0108,0.0032 0.01085,0.01291 3.7e-5,0.0055 -5.29e-4,0.01053 -5.29e-4,0.01601 -5.29e-4,0.01574 -0.0016,0.03141 -0.0036,0.04702 -0.0024,0.02011 -0.0057,0.04016 -0.0062,0.06046 -1.16e-4,0.01246 -2.64e-4,0.02529 0.0011,0.03772 1.64e-4,0.0021 -7.94e-4,0.0029 -0.0011,0.0047 v 5.29e-4 c 1.11e-4,2.64e-4 5.29e-4,5.29e-4 5.29e-4,0.0011 0.0011,0.0045 0.0021,0.0093 0.0026,0.01394 5.29e-4,0.0046 5.29e-4,0.0088 5.29e-4,0.01344 -7.4e-5,0.0043 -7.6e-5,0.0086 -5.29e-4,0.01291 -5.29e-4,0.0051 -0.0011,0.0105 -0.0021,0.01551 -0.0011,0.0044 -0.0019,0.0085 -0.0026,0.01291 -2.65e-4,0.0013 -0.0011,0.0065 -0.0026,0.0067 -0.0042,5.29e-4 -0.0065,2.64e-4 -0.0078,-5.29e-4 -5.3e-4,-0.0011 -0.0013,-0.0031 -0.0016,-0.0052 -8e-6,-7.93e-4 -5e-6,-0.0013 0,-0.0021 -0.0011,0.0019 -0.0026,0.0037 -0.0047,0.0057 -0.0016,0.0016 -0.0041,0.0024 -0.0062,0.0036 -0.0019,5.29e-4 -0.0034,0.0013 -0.0052,0.0016 -0.0064,0.0011 -0.01323,-2.39e-4 -0.01963,-5.3e-4 -0.0087,-5.29e-4 -0.01712,-0.0011 -0.02585,-0.0016 -0.01106,-7.94e-4 -0.02204,-0.0021 -0.03307,-0.0031 -0.0049,-5.29e-4 -0.01013,-7.94e-4 -0.01497,-0.0011 -0.0016,-1.03e-4 -0.0057,-5.29e-4 -0.0072,-5.29e-4 -0.0016,-1.14e-4 -0.0036,-2.41e-4 -0.0052,-5.29e-4 -0.0036,-7.94e-4 -0.006,-5.3e-4 -0.0088,-0.0016 v 0.168982 h 18.970924 v -3.597106 c -5.29e-4,1.24e-4 -0.0011,5.29e-4 -0.0016,5.29e-4 -2.64e-4,7.1e-5 -0.0024,5.29e-4 -0.0026,5.29e-4 0.0016,0.0042 -0.0013,0.0088 -0.0093,0.0067 -0.0024,-5.3e-4 -0.0043,-0.0013 -0.0067,-0.0021 -0.0021,0.0019 -0.0037,0.0037 -0.0057,0.0057 -0.01196,0.01103 -0.02479,0.02154 -0.03721,0.03204 -0.0092,0.0075 -0.01931,0.01447 -0.02946,0.02066 -0.0021,0.0013 -0.004,0.0019 -0.0057,0.0021 -0.0046,0.02275 -0.01016,0.04516 -0.02273,0.06511 -0.03671,0.05821 -0.09151,0.0218 -0.05788,-0.03824 0.01045,-0.0186 0.01397,-0.04022 0.01757,-0.06098 7.94e-4,-0.0049 0.0019,-0.0096 0.0026,-0.01447 5.29e-4,-0.0031 0.0013,-0.0055 0.0021,-0.0083 v -5.29e-4 l -5.29e-4,-5.29e-4 c -2.65e-4,-5.3e-4 -0.0021,-0.0021 -0.0021,-0.0026 -5e-6,-5.29e-4 -1.3e-5,-0.0021 0,-0.0026 v -5.29e-4 c -3.7e-5,-0.0013 -9e-5,-0.0044 0,-0.0057 1.19e-4,-0.0013 0.0013,-0.0034 0.0016,-0.0047 1.05e-4,-5.3e-4 5.29e-4,-0.0024 5.29e-4,-0.0031 5.3e-5,-2.65e-4 -8e-5,-0.0029 0,-0.0031 l 0.0011,-0.0016 c -0.0011,0 -0.0019,8e-6 -0.0031,0 -0.02,-3.7e-5 -0.03949,-0.0013 -0.05943,-0.0016 -0.0199,-2.01e-4 -0.04056,-0.0011 -0.06046,-0.0021 -0.01558,-7.94e-4 -0.03112,-7.94e-4 -0.04651,-0.0036 -0.0042,-7.94e-4 -0.0055,-0.0031 -0.0062,-0.0052 -5.29e-4,3.4e-5 -0.0021,-2.7e-5 -0.0026,0 -0.01204,7.93e-4 -0.02424,0.0013 -0.03617,0.0031 v -5.29e-4 c -0.01209,0.0019 -0.01254,-0.01008 -0.0016,-0.01188 0.01225,-0.0019 0.02484,-0.0024 0.03721,-0.0031 0.0029,-1.8e-4 0.0054,-7.94e-4 0.0083,-0.0011 0.0011,-9e-5 0.0021,3.7e-5 0.0031,0 0.0064,-2.54e-4 0.0127,-2.64e-4 0.01913,0 0.008,5.29e-4 0.0163,0.0013 0.02429,0.0021 0.0087,0.0011 0.01754,0.0013 0.02635,0.0016 0.01164,2.62e-4 0.02299,1.86e-4 0.03462,0 0.01032,-1.05e-4 0.02069,0.0011 0.03101,0.0016 0.0127,5.29e-4 0.02564,0.0021 0.03824,0.0036 0.0045,5.29e-4 0.009,0.0011 0.01344,0.0016 0.0038,-0.0024 0.0078,-0.0032 0.01188,-0.0036 0.0011,-1.05e-4 0.0021,-8e-6 0.0031,0 0.0084,1.12e-4 0.01622,0.0051 0.02222,0.01291 -2.38e-4,-0.0011 -2.7e-5,-0.0021 -5.29e-4,-0.0031 -0.0013,-0.0059 5.29e-4,-0.01011 0.0036,-0.01085 0.003,-7.94e-4 0.0069,0.0013 0.0083,0.0072 5.3e-4,0.0024 0.0016,0.0048 0.0021,0.0072 5.29e-4,-7.9e-5 0.0011,-5.29e-4 0.0016,-5.29e-4 7.93e-4,-5.8e-5 0.0024,-2.9e-5 0.0031,0 0.01439,5.29e-4 0.0285,0.0013 0.04289,0.0016 0.0016,4.5e-5 0.0019,0.0016 0.0031,0.0021 0.0036,-0.0031 0.0078,-0.0067 0.01291,-0.0088 0.0061,-0.0029 0.01191,-0.0053 0.0186,-0.0067 5.3e-4,-5.9e-5 0.0021,-0.0011 0.0026,-0.0011 0.0011,-1.56e-4 0.0021,-1.6e-5 0.0031,0 z m -0.0925,0.256315 c -5.29e-4,7.1e-5 -0.0011,5.29e-4 -0.0016,5.29e-4 v 5.29e-4 c 5.29e-4,-2.65e-4 0.0011,-7.94e-4 0.0016,-0.0011 z" />
    </clipPath>
    <clipPath
       clipPathUnits="userSpaceOnUse"
       id="clipPath1049-6">
      <path
         id="path1051-3"
         style="fill:#a05a2c;stroke-width:0.264583"
         d="m 94.372533,66.041447 v 16.105995 h 0.141079 c 0.09215,-0.0013 0.18402,-0.01053 0.275952,-0.01654 0.07386,-0.0049 0.147701,-0.0083 0.221692,-0.01035 0.09729,-0.0027 0.09975,0.09549 0.0026,0.09819 -0.07275,0.0021 -0.145444,0.0055 -0.218075,0.01035 -0.02066,0.0013 -0.04136,0.0026 -0.06201,0.0041 0.015,0.01667 0.01421,0.04003 -0.0026,0.05684 0.01976,0.02371 0.0092,0.06051 -0.03514,0.07338 0.0052,0.02582 -0.01696,0.05545 -0.06873,0.05891 -0.0372,0.0024 -0.0744,0.0055 -0.111619,0.0083 0.0095,0.02389 -0.0055,0.05599 -0.05426,0.07028 -0.0186,0.0054 -0.03715,0.01106 -0.05581,0.01654 h 4.849317 V 66.471379 c -0.02818,-0.0027 -0.05625,-0.0058 -0.08423,-0.0098 -0.08095,-0.01045 -0.161849,-0.02217 -0.243396,-0.02687 -0.06924,-0.0037 -0.138501,-0.0035 -0.20774,5.29e-4 -0.09714,0.0057 -0.104733,-0.09233 -0.0072,-0.09818 0.02746,-0.0016 0.05517,-0.0028 0.08268,-0.0031 0.01603,-2.07e-4 0.03204,7.93e-4 0.04806,0.0011 -0.0079,-0.0024 -0.01548,-0.0047 -0.02326,-0.0072 -2.64e-4,-3e-6 -5.29e-4,5e-6 -0.0011,0 -0.01109,-1.75e-4 -0.02093,-0.0016 -0.02946,-0.0041 h -5.29e-4 c -0.01947,-0.0019 -0.03897,-0.0039 -0.05839,-0.0057 -0.09085,-0.0085 -0.09655,-0.09123 -0.01707,-0.09819 0.0053,-5.29e-4 0.01085,-2.51e-4 0.01707,0 0.0073,2.65e-4 0.01492,5.3e-4 0.02222,0.0011 0.0051,5.29e-4 0.05713,0.0066 0.08165,0.0093 2.64e-4,2.9e-5 7.94e-4,-3.7e-5 0.0011,0 0.02127,2.62e-4 0.04237,0.0021 0.06356,0.0031 -0.06023,-0.02585 -0.04568,-0.09754 0.03824,-0.0894 0.03802,0.0037 0.07582,0.0078 0.113689,0.01241 -0.02148,-0.02842 -0.0019,-0.06981 0.05736,-0.07183 0.0029,-9.8e-5 0.0057,-9.8e-5 0.0088,0 0.0072,2.01e-4 0.01447,0.0019 0.0217,0.0021 -0.03323,-0.007 -0.0519,-0.02405 -0.05788,-0.04186 z m 4.882391,0.229444 c -0.0016,2.65e-4 -0.003,7.94e-4 -0.0047,0.0011 0.0016,2.01e-4 0.003,1.42e-4 0.0047,5.29e-4 z" />
    </clipPath>
    <clipPath
       clipPathUnits="userSpaceOnUse"
       id="clipPath1350-61">
      <path
         id="path1352-0"
         style="fill:#a05a2c;stroke-width:0.264583"
         d="m 99.325721,66.28846 -18.970419,5.29e-4 v 3.523816 c 0.0031,-0.0033 0.0057,-0.006 0.01035,-0.0098 0.0141,-0.01177 0.03099,-0.02021 0.04754,-0.0279 0.0044,-0.0021 0.0086,-0.0043 0.01291,-0.0067 0.0077,-0.0042 0.01553,-0.0089 0.02273,-0.01394 0.0055,-0.0039 0.01042,-0.0083 0.01603,-0.01188 0.0024,-0.0016 0.0052,-0.0029 0.0078,-0.0047 2.65e-4,6.7e-5 7.94e-4,5.3e-4 0.0011,5.3e-4 0.0011,-0.0063 0.0034,-0.01252 0.0067,-0.0186 v -5.29e-4 c 0.0026,-0.0047 0.0058,-0.007 0.0088,-0.0078 7.94e-4,-1.72e-4 0.0019,-9.3e-5 0.0026,0 1.8e-4,-0.0035 0.0011,-0.0069 0.0011,-0.01035 8.2e-5,-0.0053 2.7e-5,-0.01072 0,-0.01601 -4e-5,-0.0075 0.003,-0.01196 0.0067,-0.01291 0.0048,-0.0013 0.0108,0.0032 0.01085,0.01291 3.7e-5,0.0055 -5.29e-4,0.01053 -5.29e-4,0.01601 -5.29e-4,0.01574 -0.0016,0.03141 -0.0036,0.04702 -0.0024,0.02011 -0.0057,0.04016 -0.0062,0.06046 -1.16e-4,0.01246 -2.64e-4,0.02529 0.0011,0.03772 1.64e-4,0.0021 -7.94e-4,0.0029 -0.0011,0.0047 v 5.29e-4 c 1.11e-4,2.64e-4 5.29e-4,5.29e-4 5.29e-4,0.0011 0.0011,0.0045 0.0021,0.0093 0.0026,0.01394 5.29e-4,0.0046 5.29e-4,0.0088 5.29e-4,0.01344 -7.4e-5,0.0043 -7.6e-5,0.0086 -5.29e-4,0.01291 -5.29e-4,0.0051 -0.0011,0.0105 -0.0021,0.01551 -0.0011,0.0044 -0.0019,0.0085 -0.0026,0.01291 -2.65e-4,0.0013 -0.0011,0.0065 -0.0026,0.0067 -0.0042,5.29e-4 -0.0065,2.64e-4 -0.0078,-5.29e-4 -5.3e-4,-0.0011 -0.0013,-0.0031 -0.0016,-0.0052 -8e-6,-7.93e-4 -5e-6,-0.0013 0,-0.0021 -0.0011,0.0019 -0.0026,0.0037 -0.0047,0.0057 -0.0016,0.0016 -0.0041,0.0024 -0.0062,0.0036 -0.0019,5.29e-4 -0.0034,0.0013 -0.0052,0.0016 -0.0064,0.0011 -0.01323,-2.39e-4 -0.01963,-5.3e-4 -0.0087,-5.29e-4 -0.01712,-0.0011 -0.02585,-0.0016 -0.01106,-7.94e-4 -0.02204,-0.0021 -0.03307,-0.0031 -0.0049,-5.29e-4 -0.01013,-7.94e-4 -0.01497,-0.0011 -0.0016,-1.03e-4 -0.0057,-5.29e-4 -0.0072,-5.29e-4 -0.0016,-1.14e-4 -0.0036,-2.41e-4 -0.0052,-5.29e-4 -0.0036,-7.94e-4 -0.006,-5.3e-4 -0.0088,-0.0016 v 0.168982 h 18.970924 v -3.597106 c -5.29e-4,1.24e-4 -0.0011,5.29e-4 -0.0016,5.29e-4 -2.64e-4,7.1e-5 -0.0024,5.29e-4 -0.0026,5.29e-4 0.0016,0.0042 -0.0013,0.0088 -0.0093,0.0067 -0.0024,-5.3e-4 -0.0043,-0.0013 -0.0067,-0.0021 -0.0021,0.0019 -0.0037,0.0037 -0.0057,0.0057 -0.01196,0.01103 -0.02479,0.02154 -0.03721,0.03204 -0.0092,0.0075 -0.01931,0.01447 -0.02946,0.02066 -0.0021,0.0013 -0.004,0.0019 -0.0057,0.0021 -0.0046,0.02275 -0.01016,0.04516 -0.02273,0.06511 -0.03671,0.05821 -0.09151,0.0218 -0.05788,-0.03824 0.01045,-0.0186 0.01397,-0.04022 0.01757,-0.06098 7.94e-4,-0.0049 0.0019,-0.0096 0.0026,-0.01447 5.29e-4,-0.0031 0.0013,-0.0055 0.0021,-0.0083 v -5.29e-4 l -5.29e-4,-5.29e-4 c -2.65e-4,-5.3e-4 -0.0021,-0.0021 -0.0021,-0.0026 -5e-6,-5.29e-4 -1.3e-5,-0.0021 0,-0.0026 v -5.29e-4 c -3.7e-5,-0.0013 -9e-5,-0.0044 0,-0.0057 1.19e-4,-0.0013 0.0013,-0.0034 0.0016,-0.0047 1.05e-4,-5.3e-4 5.29e-4,-0.0024 5.29e-4,-0.0031 5.3e-5,-2.65e-4 -8e-5,-0.0029 0,-0.0031 l 0.0011,-0.0016 c -0.0011,0 -0.0019,8e-6 -0.0031,0 -0.02,-3.7e-5 -0.03949,-0.0013 -0.05943,-0.0016 -0.0199,-2.01e-4 -0.04056,-0.0011 -0.06046,-0.0021 -0.01558,-7.94e-4 -0.03112,-7.94e-4 -0.04651,-0.0036 -0.0042,-7.94e-4 -0.0055,-0.0031 -0.0062,-0.0052 -5.29e-4,3.4e-5 -0.0021,-2.7e-5 -0.0026,0 -0.01204,7.93e-4 -0.02424,0.0013 -0.03617,0.0031 v -5.29e-4 c -0.01209,0.0019 -0.01254,-0.01008 -0.0016,-0.01188 0.01225,-0.0019 0.02484,-0.0024 0.03721,-0.0031 0.0029,-1.8e-4 0.0054,-7.94e-4 0.0083,-0.0011 0.0011,-9e-5 0.0021,3.7e-5 0.0031,0 0.0064,-2.54e-4 0.0127,-2.64e-4 0.01913,0 0.008,5.29e-4 0.0163,0.0013 0.02429,0.0021 0.0087,0.0011 0.01754,0.0013 0.02635,0.0016 0.01164,2.62e-4 0.02299,1.86e-4 0.03462,0 0.01032,-1.05e-4 0.02069,0.0011 0.03101,0.0016 0.0127,5.29e-4 0.02564,0.0021 0.03824,0.0036 0.0045,5.29e-4 0.009,0.0011 0.01344,0.0016 0.0038,-0.0024 0.0078,-0.0032 0.01188,-0.0036 0.0011,-1.05e-4 0.0021,-8e-6 0.0031,0 0.0084,1.12e-4 0.01622,0.0051 0.02222,0.01291 -2.38e-4,-0.0011 -2.7e-5,-0.0021 -5.29e-4,-0.0031 -0.0013,-0.0059 5.29e-4,-0.01011 0.0036,-0.01085 0.003,-7.94e-4 0.0069,0.0013 0.0083,0.0072 5.3e-4,0.0024 0.0016,0.0048 0.0021,0.0072 5.29e-4,-7.9e-5 0.0011,-5.29e-4 0.0016,-5.29e-4 7.93e-4,-5.8e-5 0.0024,-2.9e-5 0.0031,0 0.01439,5.29e-4 0.0285,0.0013 0.04289,0.0016 0.0016,4.5e-5 0.0019,0.0016 0.0031,0.0021 0.0036,-0.0031 0.0078,-0.0067 0.01291,-0.0088 0.0061,-0.0029 0.01191,-0.0053 0.0186,-0.0067 5.3e-4,-5.9e-5 0.0021,-0.0011 0.0026,-0.0011 0.0011,-1.56e-4 0.0021,-1.6e-5 0.0031,0 z m -0.0925,0.256315 c -5.29e-4,7.1e-5 -0.0011,5.29e-4 -0.0016,5.29e-4 v 5.29e-4 c 5.29e-4,-2.65e-4 0.0011,-7.94e-4 0.0016,-0.0011 z" />
    </clipPath>
    <clipPath
       clipPathUnits="userSpaceOnUse"
       id="clipPath1717-6">
      <path
         id="path1719-9"
         style="fill:#a05a2c;stroke-width:0.264583"
         d="m 94.372585,66.041304 v 13.974857 c 5.29e-4,-0.0011 0.0019,-0.0021 0.0036,-0.0026 0.0011,-2.65e-4 0.0024,0 0.0036,0 h 0.01963 c 0.009,6.6e-5 0.01839,-2.17e-4 0.02739,0 0.0037,2.64e-4 0.01029,8.4e-5 0.01035,0.0057 0,0.0021 -7.94e-4,0.0033 -0.0016,0.0041 -0.0013,7.93e-4 -0.0037,0.0016 -0.0052,0.0021 -0.0078,0.0016 -0.01577,0.0024 -0.02376,0.0031 -0.0028,2.22e-4 -0.0055,2.65e-4 -0.0083,5.29e-4 0.0011,0.0029 7.93e-4,0.0061 -0.0026,0.0078 -0.0011,5.3e-4 -0.0024,7.94e-4 -0.0031,0.0011 -1.61e-4,2.64e-4 -5.29e-4,5.29e-4 -5.29e-4,0.0011 1.88e-4,0.0019 -2.65e-4,0.0036 -0.0011,0.0047 -0.0035,0.0032 -0.01154,7.94e-4 -0.0093,-0.0067 8e-5,-2.64e-4 -7.9e-5,-7.93e-4 0,-0.0011 -0.003,-5.29e-4 -0.0058,-7.94e-4 -0.0088,-0.0016 -1.27e-4,-2.7e-5 -2.64e-4,3.9e-5 -5.29e-4,0 v 2.113049 h 0.141079 c 0.09215,-0.0013 0.18402,-0.01053 0.275952,-0.01654 0.07386,-0.0049 0.147701,-0.0083 0.221692,-0.01035 0.09729,-0.0027 0.09973,0.09548 0.0026,0.09818 -0.07275,0.0021 -0.145445,0.0055 -0.218075,0.01035 -0.02066,0.0013 -0.04136,0.0026 -0.06201,0.0041 0.015,0.01667 0.01423,0.04003 -0.0026,0.05684 0.01976,0.02371 0.0092,0.06051 -0.03514,0.07338 0.0052,0.02582 -0.01696,0.05545 -0.06873,0.05891 -0.0372,0.0024 -0.0744,0.0055 -0.111619,0.0083 0.0095,0.02389 -0.0055,0.05599 -0.05426,0.07028 -0.0186,0.0054 -0.03715,0.01106 -0.05581,0.01654 h 4.849317 V 66.471217 c -0.02818,-0.0027 -0.05625,-0.0058 -0.08423,-0.0098 -0.08095,-0.01045 -0.161849,-0.02217 -0.243396,-0.02687 -0.06924,-0.0037 -0.138501,-0.0035 -0.20774,5.29e-4 -0.09714,0.0057 -0.104767,-0.09234 -0.0072,-0.09819 0.02746,-0.0016 0.05517,-0.0028 0.08268,-0.0031 0.01603,-2.07e-4 0.03204,7.94e-4 0.04806,0.0011 -0.0079,-0.0024 -0.01548,-0.0042 -0.02326,-0.0067 -2.65e-4,-3e-6 -5.29e-4,5e-6 -0.0011,0 -0.01109,-1.75e-4 -0.02093,-0.0016 -0.02946,-0.0041 h -5.3e-4 c -0.01947,-0.0019 -0.03897,-0.0039 -0.05839,-0.0057 -0.09085,-0.0085 -0.09653,-0.09122 -0.01704,-0.09819 0.0053,-5.29e-4 0.01082,-2.51e-4 0.01704,0 0.0073,2.65e-4 0.01492,5.3e-4 0.02222,0.0011 0.0051,5.29e-4 0.05713,0.0066 0.08165,0.0093 2.64e-4,2.9e-5 7.93e-4,-3.7e-5 0.0011,0 0.02127,2.62e-4 0.04237,0.0021 0.06356,0.0031 -0.06023,-0.02585 -0.04568,-0.09754 0.03824,-0.0894 0.03802,0.0037 0.07582,0.0078 0.113689,0.01241 -0.02148,-0.02842 -0.0019,-0.06981 0.05736,-0.07183 0.0029,-9.8e-5 0.0057,-9.8e-5 0.0088,0 0.0072,2.01e-4 0.01447,0.0019 0.0217,0.0021 -0.03323,-0.007 -0.0519,-0.02405 -0.05788,-0.04186 z m 4.882391,0.229444 c -0.0016,2.64e-4 -0.003,7.93e-4 -0.0047,0.0011 0.0016,2.01e-4 0.003,1.3e-4 0.0047,5.29e-4 z" />
    </clipPath>
    <clipPath
       clipPathUnits="userSpaceOnUse"
       id="clipPath3737">
      <path
         id="path3739"
         style="fill:#a05a2c;stroke-width:0.264583"
         d="m 40.875541,60.987259 v 21.085056 h 0.04959 0.03535 c 0.171248,0 0.209313,0.141823 0.113902,0.204675 h 4.595896 V 61.012584 c -0.0035,0.0013 -0.0078,0.0013 -0.01227,0.0016 h -0.04419 -0.02651 c -0.0029,0 -0.0043,-7.94e-4 -0.0064,-0.0016 7.54e-4,0.0071 0.001,0.01442 0.001,0.02223 v 0.0522 c 0,0.07504 -0.03298,0.115725 -0.06873,0.121978 -0.01083,0.03453 -0.0367,0.07108 -0.08199,0.103888 -0.02044,0.0149 -0.0415,0.02886 -0.06088,0.04497 -0.04452,0.0538 -0.0817,0.117397 -0.146306,0.147303 -0.05168,0.02562 -0.106014,0.04399 -0.1576,0.06977 -0.06079,0.03524 -0.121705,0.07097 -0.178709,0.112674 -0.03506,0.02811 -0.06798,0.05706 -0.09819,0.09097 -0.01832,0.02061 -0.05754,0.07068 -0.07512,0.08838 -0.01121,0.0113 -0.02466,0.0203 -0.03682,0.03049 -0.05351,0.03466 -0.107974,0.06701 -0.159564,0.104922 -0.06348,0.04359 -0.122302,0.09454 -0.188529,0.133347 0.0035,0.03543 -0.02003,0.07832 -0.07954,0.106474 -0.04897,0.02321 -0.09795,0.04569 -0.146304,0.07029 -0.07603,0.0382 -0.153641,0.07318 -0.228789,0.113193 -0.02774,0.01641 -0.03838,0.0221 -0.06432,0.04031 -0.03211,0.02249 -0.06195,0.0481 -0.09377,0.07081 -0.02792,0.01995 -0.05309,0.02958 -0.07413,0.03101 h -5.03e-4 c -5.03e-4,5.29e-4 -10e-4,0.0011 -0.0015,0.0016 -0.04194,0.03351 -0.08764,0.0624 -0.130103,0.0951 -0.06127,0.04472 -0.120583,0.09177 -0.185093,0.131279 -0.07147,0.04573 -0.1423,0.09259 -0.210132,0.144205 -0.08775,0.06541 -0.176509,0.129393 -0.263155,0.196402 -0.08681,0.06378 -0.174925,0.126176 -0.255301,0.198991 -0.08192,0.06848 -0.16381,0.136644 -0.246461,0.204156 -0.08604,0.06832 -0.172331,0.136229 -0.263157,0.19744 -0.115538,0.08016 -0.23502,0.153718 -0.357421,0.221728 -0.04669,0.0271 -0.08586,0.04967 -0.131086,0.07908 -0.06988,0.04553 -0.133647,0.0997 -0.195404,0.156607 -0.06592,0.06112 -0.131493,0.122704 -0.199329,0.181417 l 5.03e-4,-0.0011 c -0.16994,0.147026 -0.312458,-0.03304 -0.14238,-0.179866 0.06641,-0.05733 0.130008,-0.117569 0.194422,-0.17728 0.06946,-0.06414 0.14206,-0.124537 0.220443,-0.176248 0.05129,-0.03381 0.0929,-0.05704 0.145814,-0.08787 0.117265,-0.06521 0.231547,-0.13603 0.342201,-0.212942 0.08692,-0.0585 0.169588,-0.124273 0.251863,-0.189686 0.08118,-0.06634 0.162064,-0.132712 0.242536,-0.200023 0.08393,-0.0758 0.175561,-0.140746 0.266101,-0.207257 0.08624,-0.06672 0.174369,-0.131294 0.261684,-0.196406 0.0721,-0.05478 0.146985,-0.103967 0.222897,-0.152471 0.06064,-0.03716 0.116714,-0.08203 0.174289,-0.124045 0.0423,-0.0326 0.08781,-0.06077 0.129615,-0.09407 0.01445,-0.01151 0.05655,-0.05039 0.06824,-0.06099 0.07524,-0.07348 0.152536,-0.143495 0.238608,-0.202605 0.06288,-0.04388 0.131657,-0.07625 0.201294,-0.105955 0.06403,-0.02562 0.130277,-0.04533 0.193932,-0.07184 0.06274,-0.0393 0.119585,-0.08752 0.180674,-0.12973 0.05316,-0.03912 0.109859,-0.07263 0.164963,-0.10854 0.0032,-0.004 0.0079,-0.0064 0.01081,-0.01035 0.04931,-0.05961 -0.03302,0.03064 0.05106,-0.06357 0.03984,-0.04465 0.08244,-0.08375 0.128142,-0.12146 0.06572,-0.0498 0.136897,-0.09121 0.207676,-0.132315 0.05377,-0.03141 0.113975,-0.04737 0.168892,-0.07598 0.0053,-0.003 0.01146,-0.0053 0.01619,-0.0093 0.001,0 7.54e-4,-0.0031 0.0015,-0.0041 0.002,-0.0044 0.0045,-0.0074 0.0074,-0.01138 0.01586,-0.02181 0.03258,-0.04276 0.04959,-0.06358 0.02957,-0.03401 0.06728,-0.05875 0.103103,-0.08476 0.0394,-0.02864 0.07591,-0.04206 0.10752,-0.04393 h 5.03e-4 c 0.0038,-2.01e-4 0.0072,2.65e-4 0.01081,5.3e-4 v -0.04187 c 0,-0.01781 0.0015,-0.03359 0.0049,-0.04755 z m 4.70096,0 c 7.54e-4,0.0029 0.0015,0.0057 0.002,0.0088 0.0025,-0.0013 0.0048,-0.0026 0.0088,-0.0026 h 0.0049 c -5.03e-4,-0.0021 1.68e-4,-0.0043 0.0015,-0.0062 z m 0.09181,0 c 5.03e-4,2.65e-4 0.0018,5.29e-4 0.0025,0.0011 v -0.0011 z" />
    </clipPath>
    <clipPath
       clipPathUnits="userSpaceOnUse"
       id="clipPath4195">
      <path
         id="path4197"
         style="fill:#a05a2c;stroke-width:0.264582"
         d="m 40.875522,60.986998 v 21.289875 h 4.794946 V 61.012319 c -0.0035,0.0013 -0.0079,0.0013 -0.01237,0.0016 h -0.04379 -0.02679 c -0.02044,0 -0.02044,-0.02066 0,-0.02066 h 0.0051 c -5.28e-4,-0.0021 -2.46e-4,-0.0043 0.0011,-0.0062 z m 4.792886,0 c 5.27e-4,2.65e-4 0.0013,5.29e-4 0.0021,0.0011 v -0.0011 z m -0.643999,17.943793 c 0.0041,-1.56e-4 0.0079,-8e-6 0.01184,0 0.2204,2.62e-4 0.240015,0.234193 -0.02679,0.336416 -0.0099,0.0038 -0.03977,0.01513 -0.04276,0.01654 -0.02253,0.0117 -0.0525,0.03765 -0.06955,0.05271 -0.06079,0.05366 -0.06908,0.06421 -0.128799,0.124541 -0.02831,0.02978 -0.134521,0.142845 -0.160743,0.165885 -0.177525,0.156296 -0.38304,0.279543 -0.581656,0.406179 -0.122896,0.07766 -0.242347,0.160691 -0.361154,0.244433 -0.122861,0.0866 -0.228648,0.07565 -0.281813,0.02066 -0.152503,0.0092 -0.226844,-0.171346 -0.04225,-0.331767 0.277258,-0.240935 0.134315,-0.118882 0.428131,-0.366391 0.07849,-0.06251 0.15519,-0.127435 0.235446,-0.187586 0.151946,-0.113815 0.243396,-0.172074 0.4034,-0.261486 0.09945,-0.05557 0.202479,-0.10985 0.312724,-0.140561 0.03359,-0.0094 0.0642,-0.01458 0.09171,-0.01601 0.03668,-0.02029 0.07554,-0.03688 0.117464,-0.04806 h 5.28e-4 c 0.0345,-0.0092 0.06591,-0.01445 0.09428,-0.01551 z" />
    </clipPath>
    <clipPath
       clipPathUnits="userSpaceOnUse"
       id="clipPath5766">
      <path
         id="path5768"
         style="fill:#a05a2c"
         d="M 9.1582031,2.6699219 V 3.1914062 H 11.484375 V 2.6699219 H 9.8710938 c 0.00231,0.019567 -0.00407,0.043308 -0.025391,0.068359 -0.020803,0.024441 -0.043583,0.047726 -0.066406,0.070313 -0.03211,0.030488 -0.065785,0.058725 -0.1035157,0.082031 -0.010048,0.00621 -0.021018,0.011678 -0.03125,0.017578 -0.054022,0.0302 -0.1102746,0.053372 -0.1660156,0.080078 -0.039186,0.016038 -0.073236,0.041663 -0.1054687,0.068359 -0.021955,0.019246 -0.04319,0.038555 -0.0625,0.060547 -0.072166,0.082189 -0.1556691,0.00665 -0.082031,-0.074219 0.023367,-0.025663 0.047746,-0.047898 0.074219,-0.070313 0.039177,-0.032424 0.079699,-0.064001 0.1269531,-0.083984 0.053335,-0.025503 0.1083453,-0.047561 0.1601563,-0.076172 0.040613,-0.022988 0.079918,-0.04916 0.1132812,-0.082031 0.019008,-0.018686 0.0355,-0.040133 0.052734,-0.060547 z" />
    </clipPath>
  </defs>
  <g
     inkscape:label="Layer 1"
     inkscape:groupmode="layer"
     id="layer1">
    <rect
       style="fill:#808080;stroke:#000000;stroke-width:0.0130267"
       id="rect286-6-7"
       width="1.3250206"
       height="8.7154503"
       x="7.4482489"
       y="-10.924415"
       transform="rotate(90)" />
    <rect
       style="stroke-width:0.1;stroke:black;fill:#808080;"
       id="rect286-3"
       width="10.232703"
       height="112.12632"
       x="125.13392"
       y="65.536697"
       clip-path="url(#clipPath3677)"
       transform="matrix(0.13118539,0,0,0.10907302,-3.1411458,-5.1134945)" />
    <rect
       style="fill:#808080;stroke:#000000;stroke-width:0.0130267"
       id="rect286-6-5"
       width="1.3250206"
       height="8.7154503"
       x="12.927973"
       y="-10.924049"
       transform="rotate(90)" />
    <path
       style="fill:#808080;stroke:#000000;stroke-width:0.0954124"
       d="m 30.793873,64.343727 4.484062,-3.186711 10.40536,-0.09818 -4.408887,3.441116 z"
       id="path708-0-2-3"
       sodipodi:nodetypes="ccccc"
       clip-path="url(#clipPath1926)"
       transform="matrix(0.13104939,0,0,0.1294888,-3.1043539,-6.3661643)" />
    <path
       style="fill:#808080;stroke:#000000;stroke-width:0.0954124"
       d="m 30.876717,64.509142 4.118313,-3.441655 10.688265,-0.0087 -4.408887,3.441116 z"
       id="path708-0-2-3-9"
       sodipodi:nodetypes="ccccc"
       clip-path="url(#clipPath1926-6)"
       transform="matrix(0.12937142,0,0,0.1253177,9.2704146,-6.0542738)" />
    <path
       style="fill:#808080;stroke:#000000;stroke-width:0.017227"
       d="m 10.782958,1.5269988 -0.01829,0.4703281 -8.4965351,-0.00368 0.012481,-0.4395687 z"
       id="path414-5"
       sodipodi:nodetypes="ccccc" />
    <path
       style="fill:#808080;stroke:#000000;stroke-width:0.0137383"
       d="m 9.839416,2.6770171 1.624608,0.00702 -0.65753,0.4951005 -1.6270617,0.00561 z"
       id="path679"
       sodipodi:nodetypes="ccccc"
       clip-path="url(#clipPath5766)"
       transform="translate(0.03112793,-1.1566544)" />
    <path
       style="fill:#808080;stroke:#000000;stroke-width:0.0137383"
       d="M 6.2064988,6.9933307 11.533702,7.0106617 10.9233,7.4509557 5.5881431,7.4434857 Z"
       id="path679-7"
       sodipodi:nodetypes="ccccc" />
    <path
       style="fill:#808080;stroke:#000000;stroke-width:0.0181422"
       d="m 2.1665759,12.473672 9.3617041,0.01722 -0.559125,0.441261 -9.9106976,-0.0027 z"
       id="path679-7-5"
       sodipodi:nodetypes="ccccc" />
    <path
       style="fill:#808080;stroke:#000000;stroke-width:0.105463"
       d="m 26.936903,120.68468 40.65034,0.13398 -4.6578,3.40024 -40.711031,-0.0577 z"
       id="path679-7-4"
       sodipodi:nodetypes="ccccc"
       clip-path="url(#clipPath2400)"
       transform="matrix(0.13103032,0,0,0.13899715,-3.1220029,-9.814019)" />
    <path
       style="fill:#808080;stroke:#000000;stroke-width:0.1"
       d="M 40.547855,64.201858 40.926549,82.174153 45.62066,78.550767 45.58488,61.084813 Z"
       id="path912-7"
       sodipodi:nodetypes="ccccc"
       clip-path="url(#clipPath1938-3)"
       transform="matrix(0.13104939,0,0,0.1294888,-3.0995165,-5.0443249)" />
    <path
       style="fill:#808080;stroke:#000000;stroke-width:0.1"
       d="M 40.17894,48.696935 40.926549,82.174153 45.62066,78.550767 45.58488,48.783701 Z"
       id="path912-4"
       sodipodi:nodetypes="ccccc"
       clip-path="url(#clipPath1938-7)"
       transform="matrix(0.13171469,0,0,0.12948661,-3.1299936,-3.1964058)" />
    <path
       style="fill:#808080;stroke:#000000;stroke-width:0.1"
       d="m 40.738083,61.198383 0.188462,20.97577 4.694111,-3.623386 -0.03578,-17.364814 z"
       id="path912-4-8"
       sodipodi:nodetypes="ccccc"
       clip-path="url(#clipPath1938-7-8)"
       transform="matrix(0.13171469,0,0,0.12948661,-3.1466994,2.2993836)" />
    <path
       style="fill:#808080;stroke:#000000;stroke-width:0.1"
       d="m 39.83285,66.837306 1.093695,15.336847 4.694111,-3.623386 0.02978,-11.692644 z"
       id="path912-4-8-6"
       sodipodi:nodetypes="ccccc"
       clip-path="url(#clipPath2789)"
       transform="matrix(0.13171469,0,0,0.12948661,-3.1508656,0.11727834)" />
    <rect
       style="fill:#808080;stroke:#000000;stroke-width:0.0999121"
       id="rect316"
       width="10.232791"
       height="66.38765"
       x="82.036308"
       y="-106.87319"
       transform="matrix(0,0.1294888,-0.13104939,0,-3.1228612,-8.6328618)"
       clip-path="url(#clipPath1705)" />
    <path
       style="fill:#808080;stroke:#000000;stroke-width:0.1"
       d="m 94.432074,79.939569 4.711934,-3.522151 0.0053,-10.164758 -4.748772,3.503964 z"
       id="path727-9"
       sodipodi:nodetypes="ccccc"
       clip-path="url(#clipPath1717)"
       transform="matrix(0.13104939,0,0,0.1294888,-1.5007996,-7.0395238)" />
    <path
       style="fill:#808080;stroke:#000000;stroke-width:0.1"
       d="m 94.432074,79.939569 4.711934,-3.522151 0.0053,-10.164758 -4.748772,3.503964 z"
       id="path727-9-5"
       sodipodi:nodetypes="ccccc"
       clip-path="url(#clipPath1717-7)"
       transform="matrix(0.13104939,0,0,0.1294888,-1.4476758,-1.5801883)" />
    <path
       style="fill:#a05a2c;stroke:#000000;stroke-width:0.209467"
       d="m 94.479349,82.301629 4.624005,-3.600118 -0.03672,-12.094148 -5.674339,0.433195 z"
       id="path727-93"
       sodipodi:nodetypes="ccccc"
       clip-path="url(#clipPath1049-1)"
       transform="matrix(0.13104939,0,0,0.1294888,-6.7828826,-3.1917793)" />
    <rect
       style="fill:#a05a2c;stroke:#000000;stroke-width:0.0260042"
       id="rect819-1"
       width="1.8346206"
       height="1.5813476"
       x="3.77965"
       y="5.8513732" />
    <path
       style="fill:#a05a2c;stroke:#000000;stroke-width:0.197206"
       d="m 80.555659,69.821783 4.554717,-3.433597 13.925834,0.189111 -4.549529,3.345712 z"
       id="path821-9"
       sodipodi:nodetypes="ccccc"
       clip-path="url(#clipPath1350-3)"
       transform="matrix(0.13104939,0,0,0.1294888,-6.7828826,-3.1917793)" />
    <path
       style="fill:#a05a2c;stroke:#000000;stroke-width:0.209467"
       d="m 94.479349,82.301629 4.624005,-3.600118 -0.03672,-12.094148 -5.674339,0.433195 z"
       id="path727-5"
       sodipodi:nodetypes="ccccc"
       clip-path="url(#clipPath1049-8)"
       transform="matrix(0.13104939,0,0,0.1294888,-7.6326855,2.2899479)" />
    <rect
       style="fill:#a05a2c;stroke:#000000;stroke-width:0.0260042"
       id="rect819-0"
       width="1.8346206"
       height="1.5813476"
       x="2.9298401"
       y="11.333097" />
    <path
       style="fill:#a05a2c;stroke:#000000;stroke-width:0.197206"
       d="m 80.555659,69.821783 4.554717,-3.433597 13.925834,0.189111 -4.549529,3.345712 z"
       id="path821-3"
       sodipodi:nodetypes="ccccc"
       clip-path="url(#clipPath1350-4)"
       transform="matrix(0.13104939,0,0,0.1294888,-7.6326855,2.2899479)" />
    <path
       style="fill:#a05a2c;stroke:#000000;stroke-width:0.209467"
       d="m 94.479349,82.301629 4.624005,-3.600118 -0.03672,-12.094148 -5.674339,0.433195 z"
       id="path727-2"
       sodipodi:nodetypes="ccccc"
       clip-path="url(#clipPath1049-6)"
       transform="matrix(0.13104939,0,0,0.1294888,-2.2733258,2.2877825)" />
    <rect
       style="fill:#a05a2c;stroke:#000000;stroke-width:0.0260042"
       id="rect819-06"
       width="1.8346206"
       height="1.5813476"
       x="8.2892008"
       y="11.330934" />
    <path
       style="fill:#a05a2c;stroke:#000000;stroke-width:0.197206"
       d="m 80.555659,69.821783 4.554717,-3.433597 13.925834,0.189111 -4.549529,3.345712 z"
       id="path821-1"
       sodipodi:nodetypes="ccccc"
       clip-path="url(#clipPath1350-61)"
       transform="matrix(0.13104939,0,0,0.1294888,-2.2733258,2.2877825)" />
    <rect
       style="fill:#808080;stroke:#000000;stroke-width:0.011958"
       id="rect2189"
       width="1.3483758"
       height="12.282192"
       x="0.91019708"
       y="1.9758558" />
    <path
       style="fill:#808080;stroke:#000000;stroke-width:0.1"
       d="m 94.432074,79.939569 4.711934,-3.522151 0.0053,-10.164758 -4.748772,3.503964 z"
       id="path727-9-3"
       sodipodi:nodetypes="ccccc"
       clip-path="url(#clipPath1717-6)"
       transform="matrix(0.13104939,0,0,0.1294888,-1.4528887,3.8990887)" />
    <rect
       style="fill:#808080;stroke-width:0.0344663"
       id="rect2897"
       width="0.46895793"
       height="1.3293374"
       x="2.2993097"
       y="9.824975" />
    <path
       style="fill:#808080;stroke:#000000;stroke-width:0.0128741"
       d="m 14.570019,4.2684572 0.61697,-0.4875943 0.02146,9.9502321 -0.632457,0.454491 z"
       id="path3437"
       sodipodi:nodetypes="ccccc" />
    <path
       style="fill:#808080;stroke:#000000;stroke-width:0.1"
       d="M 41.030244,64.365649 40.926549,82.174153 45.62066,78.550767 45.584879,61.084813 Z"
       id="path3585"
       sodipodi:nodetypes="ccccc"
       clip-path="url(#clipPath3737)"
       transform="matrix(0.13796955,0,0,0.12959569,8.9142439,3.6306313)" />
    <rect
       style="fill:#808080;stroke-width:0.0344877"
       id="rect3741"
       width="0.47670341"
       height="0.69867671"
       x="14.617278"
       y="11.780617" />
    <rect
       style="fill:#808080;stroke-width:0.0344877"
       id="rect3743"
       width="0.41620642"
       height="1.0160182"
       x="14.725875"
       y="11.239293" />
    <path
       style="fill:#808080;stroke:#000000;stroke-width:0.1"
       d="M 41.030244,64.365649 40.926549,82.174153 45.62066,78.550767 45.584879,61.084813 Z"
       id="path3783"
       sodipodi:nodetypes="ccccc"
       clip-path="url(#clipPath4195)"
       transform="matrix(0.13153564,0,0,0.12595053,9.1860434,-6.0860888)" />
    <rect
       style="fill:#808080;stroke-width:0.0344877"
       id="rect4167"
       width="0.11597452"
       height="0.10126977"
       x="14.70175"
       y="3.9888501" />
    <rect
       style="fill:#808080;stroke-width:0.0344877"
       id="rect4169"
       width="0.20382033"
       height="0.26977471"
       x="14.975942"
       y="3.6113663" />
    <rect
       style="fill:#808080;stroke-width:0.0364889"
       id="rect4173"
       width="0.021464225"
       height="0.04621961"
       x="14.589511"
       y="1.9311075" />
    <rect
       style="fill:#808080;stroke-width:0.037123"
       id="rect4223"
       width="0.52238536"
       height="0.51009309"
       x="14.578028"
       y="3.8525915" />
    <path
       style="fill:#000000;stroke-width:0.0344663"
       d="m 4.5543902,5.858142 v 0.4844643 h 0.398295 V 5.8702171 L 5.4369947,5.4220804 5.0200243,5.4099071 Z"
       id="path4349-9"
       sodipodi:nodetypes="ccccccc" />
    <path
       style="fill:#000000;stroke-width:0.0344663"
       d="m 9.1115679,11.335382 v 0.484465 H 9.5098624 V 11.347458 L 9.9941731,10.89932 9.5772018,10.88714 Z"
       id="path4349-91"
       sodipodi:nodetypes="ccccccc" />
    <path
       style="fill:#000000;stroke-width:0.0344663"
       d="M 4.1287369,5.583638 5.918744,5.632898 5.903565,5.64784 4.1092396,5.598618 Z"
       id="path4434" />
    <path
       style="fill:#000000;stroke-width:0.0344663"
       d="m 8.6306168,11.058569 1.7900122,0.04927 -0.01518,0.01498 -1.7943309,-0.04923 z"
       id="path4434-71" />
    <path
       style="fill:#a05a2c;stroke:#000000;stroke-width:0.0260534"
       d="M 4.7549631,11.342777 5.4597903,12.051412 6.035863,11.524526 5.3497207,10.910356 Z"
       id="path4663"
       sodipodi:nodetypes="ccccc" />
    <path
       style="fill:#a05a2c;stroke:#000000;stroke-width:0.031197"
       d="M 2.9208277,11.35016 2.4718992,11.924449 2.9132108,11.762343 Z"
       id="path4725"
       sodipodi:nodetypes="cccc" />
    <path
       style="fill:#000000;stroke-width:0.0344663"
       d="m 3.5190546,10.887829 0.00322,0.445194 h 0.027588 l -0.00618,-0.451231 z"
       id="path4727" />
    <path
       style="fill:#808080;stroke:#000000;stroke-width:0.0954124"
       d="m 30.675109,64.434205 4.662208,-3.337839 10.137268,-0.06736 -4.617598,3.470944 z"
       id="path5728"
       sodipodi:nodetypes="ccccc"
       clip-path="url(#clipPath1926)"
       transform="matrix(0.13104939,0,0,0.1294888,-3.1043539,-6.3661643)" />
  </g>
</svg>
