<?xml version="1.0" encoding="UTF-8" standalone="no"?>
<!-- Created with Inkscape (http://www.inkscape.org/) -->

<svg
   width="16.0px"
   height="16.0px"
   viewBox="0 0 16.0 16.0"
   version="1.1"
   id="SVGRoot"
   sodipodi:docname="hold.svg"
   inkscape:version="1.2.2 (b0a8486541, 2022-12-01)"
   xmlns:inkscape="http://www.inkscape.org/namespaces/inkscape"
   xmlns:sodipodi="http://sodipodi.sourceforge.net/DTD/sodipodi-0.dtd"
   xmlns="http://www.w3.org/2000/svg"
   xmlns:svg="http://www.w3.org/2000/svg">
  <sodipodi:namedview
     id="namedview4481"
     pagecolor="#ffffff"
     bordercolor="#000000"
     borderopacity="0.25"
     inkscape:showpageshadow="2"
     inkscape:pageopacity="0.0"
     inkscape:pagecheckerboard="0"
     inkscape:deskcolor="#d1d1d1"
     inkscape:document-units="px"
     showgrid="true"
     inkscape:zoom="26.910887"
     inkscape:cx="-4.2733634"
     inkscape:cy="10.256072"
     inkscape:window-width="1920"
     inkscape:window-height="1008"
     inkscape:window-x="0"
     inkscape:window-y="0"
     inkscape:window-maximized="1"
     inkscape:current-layer="layer1">
    <inkscape:grid
       type="xygrid"
       id="grid4604" />
  </sodipodi:namedview>
  <defs
     id="defs4476">
    <clipPath
       clipPathUnits="userSpaceOnUse"
       id="clipPath708">
      <path
         id="path710"
         style="fill:#a05a2c"
         d="m 4.0859375,2.4335938 v 4.2304687 c 0.023255,-0.093983 0.045595,-0.1884555 0.072266,-0.28125 0.03315,-0.135924 0.06437,-0.2736476 0.1152344,-0.4042969 C 4.3234309,5.8552144 4.3796565,5.7357659 4.4316406,5.6132812 4.494475,5.4776376 4.5601509,5.3422641 4.6386719,5.2148438 4.7149015,5.0915746 4.7882894,4.9666016 4.8769531,4.8515625 4.9774679,4.7201896 5.0798716,4.5891128 5.1914062,4.4667969 5.2984429,4.3495588 5.4118539,4.2376471 5.5410156,4.1445312 5.6786971,4.0478795 5.8169809,3.9534858 5.9589844,3.8632812 6.142904,3.7450869 6.3284083,3.6259997 6.5,3.4902344 6.5676717,3.4366586 6.6351658,3.3826483 6.7050781,3.3320312 c 0.024052,-0.04888 0.068401,-0.09802 0.140625,-0.140625 0.067407,-0.039763 0.1362986,-0.078384 0.203125,-0.1191406 0.1423948,-0.079582 0.2913202,-0.1441831 0.4433594,-0.203125 0.1726222,-0.071408 0.3433667,-0.1461254 0.5214844,-0.203125 0.184107,-0.058914 0.370957,-0.114234 0.5566406,-0.1679687 0.069855,-0.021382 0.139163,-0.043265 0.2089844,-0.064453 z m 9.1328125,0 c 0.158535,0.068688 0.312349,0.1475777 0.457031,0.2441406 0.122928,0.082043 0.239808,0.1747727 0.351563,0.2714844 0.297973,0.2578648 0.355759,0.3586203 0.607422,0.6679687 0.361119,0.5117592 0.618638,1.0841285 0.828125,1.671875 0.110074,0.3088311 0.166445,0.5100583 0.261718,0.8242187 0.09839,0.3333804 0.190668,0.668326 0.28125,1.0039063 V 2.4335938 Z M 4.0859375,9.6640625 V 13.660156 H 8.3730469 C 8.196278,13.589172 8.019662,13.517004 7.8476562,13.435547 7.6357926,13.334113 7.4263294,13.22921 7.2167969,13.123047 7.089148,13.058067 7.0914715,13.059984 6.9628906,12.996094 6.8381911,12.934129 6.7129651,12.875064 6.59375,12.802734 6.562223,12.783604 6.530737,12.762542 6.5,12.742188 6.3273773,12.61737 6.1607085,12.483758 5.9921875,12.353516 5.8155001,12.208861 5.64152,12.062469 5.4902344,11.890625 5.4634754,11.859315 5.4360612,11.826942 5.4101562,11.794922 5.311697,11.673228 5.229049,11.540799 5.1347656,11.416016 5.0367874,11.290264 4.9344213,11.166981 4.8417969,11.037109 4.7219229,10.868879 4.6101823,10.694604 4.5136719,10.511719 4.4342665,10.373211 4.3507772,10.238933 4.2695312,10.101562 4.1994197,9.9650219 4.1376652,9.8237707 4.0898438,9.6777344 c -0.00144,-0.00452 -0.00247,-0.00915 -0.00391,-0.013672 z M 16.005859,10.763672 c -0.113427,0.202096 -0.246199,0.393069 -0.404297,0.564453 -0.07604,0.08244 -0.15379,0.165982 -0.24414,0.232422 -0.11274,0.08291 -0.228889,0.167681 -0.361328,0.212891 -0.02269,0.0077 -0.04713,0.01182 -0.07031,0.01758 0.0068,0.06533 0.0096,0.130481 0.0059,0.195312 -0.0091,0.155182 -0.140148,0.277624 -0.210938,0.416016 -0.07229,0.06292 -0.14063,0.13199 -0.21875,0.1875 -0.04191,0.02979 -0.08539,0.05596 -0.130859,0.08008 0.142432,0.138712 0.02287,0.349921 -0.259766,0.271484 -0.105791,-0.02936 -0.212225,-0.05607 -0.318359,-0.08398 -0.03105,0.0049 -0.0625,0.0082 -0.09375,0.01172 0.08293,0.111751 0.05977,0.18641 -0.09766,0.335937 -0.03191,0.03031 -0.08017,0.0297 -0.126953,0.0293 -0.0067,0.04366 -0.03844,0.08006 -0.05664,0.121094 -0.03006,0.02341 -0.05712,0.05079 -0.08984,0.07031 -0.02426,0.01448 -0.05308,0.02295 -0.08008,0.03125 -0.121648,0.03741 -0.248892,0.04004 -0.375,0.0293 0.02213,0.05365 0.02903,0.113691 0.03516,0.173828 h 3.097656 z m -2.320312,0.626953 c -0.0048,0.0065 -0.0072,0.0076 -0.01172,0.01367 0.005,-0.0019 0.01062,-0.0018 0.01563,-0.0039 -0.0019,-0.0029 -0.002,-0.0069 -0.0039,-0.0098 z m -3.8183595,0.787109 c 0.0097,0.0035 0.0196,0.0063 0.029297,0.0098 -8.581e-4,-0.0013 -0.00113,-0.0026 -0.00195,-0.0039 -0.00905,-0.0022 -0.01829,-0.0036 -0.027344,-0.0059 z" />
    </clipPath>
    <clipPath
       clipPathUnits="userSpaceOnUse"
       id="clipPath881">
      <path
         id="path883"
         style="fill:#a05a2c"
         d="m 0.04355,2.066434 v 10.90625 H 6.916596 C 6.80746,12.918874 6.698644,12.866051 6.594331,12.802762 6.562801,12.783632 6.531321,12.762572 6.500581,12.742212 6.327958,12.617394 6.161289,12.483782 5.992768,12.35354 5.816081,12.208885 5.642101,12.062493 5.490815,11.890649 5.464055,11.859339 5.436645,11.826969 5.410735,11.794949 5.312275,11.673255 5.229628,11.540826 5.135344,11.416043 5.037364,11.290291 4.934996,11.167009 4.842376,11.037137 4.722502,10.868907 4.610757,10.694631 4.514251,10.511746 4.434855,10.373238 4.351358,10.238961 4.270112,10.10159 4.200002,9.96505 4.138246,9.823798 4.090424,9.677762 4.049714,9.550246 4.017644,9.420528 3.992764,9.28909 3.955434,9.185328 3.921944,9.080808 3.899014,8.972684 3.872204,8.860135 3.843464,8.748696 3.822844,8.634793 c -0.0112,-0.07548 -0.01253,-0.150422 -0.0078,-0.226562 0.0022,-0.05487 0.0068,-0.109466 0.01172,-0.164063 -3.33e-4,-0.0013 3.03e-4,-0.0026 0,-0.0039 -0.0016,-0.007 -0.0032,-0.01534 -0.0039,-0.02344 -0.0067,-0.07641 -0.01341,-0.151815 -0.01563,-0.228515 -8.2e-4,-0.05693 0.01287,-0.112909 0.02539,-0.167969 0.0042,-0.01831 0.01022,-0.03289 0.01758,-0.04492 0.0057,-0.06313 0.01401,-0.126513 0.02148,-0.189453 0.02355,-0.16723 0.0549,-0.333126 0.09961,-0.496094 C 4.002074,6.975736 4.036184,6.862724 4.065044,6.74808 4.096154,6.626671 4.124164,6.503343 4.158794,6.382846 4.191954,6.246922 4.223164,6.109198 4.274028,5.978549 4.324018,5.855248 4.380247,5.735799 4.432231,5.613315 4.495071,5.477671 4.560742,5.342297 4.639263,5.214877 4.715493,5.091608 4.78888,4.966635 4.877544,4.851596 4.978059,4.720223 5.080462,4.589146 5.191997,4.46683 5.299034,4.349592 5.412445,4.237681 5.541606,4.144565 c 0.0342,-0.02401 0.0692,-0.04661 0.103516,-0.07031 0.03711,-0.04074 0.075,-0.08133 0.113281,-0.121094 C 5.837613,3.870081 5.924294,3.796203 6.012309,3.722693 6.114937,3.638353 6.225246,3.562581 6.336528,3.490271 6.456359,3.414971 6.576622,3.342598 6.697856,3.269568 6.827082,3.193938 6.957981,3.118725 7.090434,3.048865 c 0.01883,-0.0097 0.03781,-0.0196 0.05664,-0.0293 0.01083,-0.0056 0.02143,-0.01072 0.03125,-0.01367 0.001,-5.13e-4 0.0029,5.12e-4 0.0039,0 0.101408,-0.0495 0.204994,-0.0958 0.310547,-0.136719 C 7.665393,2.797766 7.836138,2.723051 8.014256,2.666051 8.198358,2.607141 8.385213,2.551817 8.570896,2.498082 8.757571,2.440942 8.943762,2.383906 9.131443,2.330114 9.300965,2.283564 9.470876,2.236604 9.647068,2.224645 c 0.09417,-0.006 0.188815,-0.01117 0.2832033,-0.0098 0.047892,8.06e-4 0.087712,0.0099 0.1230467,0.02148 0.0084,-0.004 0.01696,-0.0077 0.02539,-0.01172 0.08953,-0.04244 0.179271,-0.08806 0.269531,-0.128906 0.02256,-0.01021 0.04562,-0.01941 0.06836,-0.0293 z m 11.667968,0 c 0.01143,0.0176 0.02234,0.03554 0.03125,0.05469 0.01042,-5.18e-4 0.02083,-0.0016 0.03125,-0.002 0.0068,-2.62e-4 0.01279,1.89e-4 0.01953,0 V 2.066394 Z M 9.8677683,12.177762 c 0.0097,0.0035 0.0196,0.0063 0.029297,0.0098 -8.581e-4,-0.0013 -0.00113,-0.0026 -0.00195,-0.0039 -0.00905,-0.0022 -0.01829,-0.0036 -0.027344,-0.0059 z" />
    </clipPath>
  </defs>
  <g
     inkscape:label="Layer 1"
     inkscape:groupmode="layer"
     id="layer1">
    <ellipse
       style="fill:#ffffff;fill-rule:evenodd;stroke-width:0.043339"
       id="path4456"
       clip-path="url(#clipPath881)"
       transform="matrix(1.2794552,0,0,1.4296375,2.0254743,-2.917946)"
       ry="5.4530339"
       rx="5.8750525"
       cy="7.5197735"
       cx="5.918859" />
    <ellipse
       style="fill:#000000;fill-rule:evenodd;stroke-width:0.033248"
       id="path4458"
       cx="10.045577"
       cy="8.0474234"
       rx="5.9604754"
       ry="5.613317"
       clip-path="url(#clipPath708)"
       transform="translate(-17.836647,-1.9314235)" />
  </g>
</svg>
