<?xml version="1.0" encoding="UTF-8" standalone="no"?>
<!-- Created with Inkscape (http://www.inkscape.org/) -->

<svg
   xmlns:dc="http://purl.org/dc/elements/1.1/"
   xmlns:cc="http://creativecommons.org/ns#"
   xmlns:rdf="http://www.w3.org/1999/02/22-rdf-syntax-ns#"
   xmlns:svg="http://www.w3.org/2000/svg"
   xmlns="http://www.w3.org/2000/svg"
   xmlns:sodipodi="http://sodipodi.sourceforge.net/DTD/sodipodi-0.dtd"
   xmlns:inkscape="http://www.inkscape.org/namespaces/inkscape"
   width="16px"
   height="16px"
   viewBox="0 0 16 16"
   version="1.1"
   id="SVGRoot"
   inkscape:version="0.92.3 (2405546, 2018-03-11)"
   sodipodi:docname="operations.svg">
  <sodipodi:namedview
     id="base"
     pagecolor="#ffffff"
     bordercolor="#666666"
     borderopacity="1.0"
     inkscape:pageopacity="0.0"
     inkscape:pageshadow="2"
     inkscape:zoom="16"
     inkscape:cx="11.729849"
     inkscape:cy="7.8116783"
     inkscape:document-units="px"
     inkscape:current-layer="layer1"
     showgrid="false"
     inkscape:window-width="1920"
     inkscape:window-height="1017"
     inkscape:window-x="-8"
     inkscape:window-y="-8"
     inkscape:window-maximized="1"
     inkscape:grid-bbox="true" />
  <defs
     id="defs4214" />
  <metadata
     id="metadata4217">
    <rdf:RDF>
      <cc:Work
         rdf:about="">
        <dc:format>image/svg+xml</dc:format>
        <dc:type
           rdf:resource="http://purl.org/dc/dcmitype/StillImage" />
        <dc:title></dc:title>
      </cc:Work>
    </rdf:RDF>
  </metadata>
  <g
     id="layer1"
     inkscape:groupmode="layer"
     inkscape:label="1. réteg">
    <path
       style="fill:#000000;stroke-width:0.06203828"
       d="M 4.0026411,9.7130975 V 9.1810346 l -0.3175337,-0.1293 C 3.5104669,8.9806275 3.2237966,8.8621518 3.0480611,8.7884685 2.741734,8.6600312 2.7267592,8.6593032 2.6851734,8.770891 2.6613316,8.8348919 2.5395284,9.0120665 2.4145312,9.1646088 L 2.1872683,9.4419649 1.9706208,9.2231378 C 1.8514668,9.102778 1.5616061,8.7807411 1.326488,8.5074946 L 0.89900259,8.0106809 1.1876526,7.7434408 1.4763023,7.4762007 1.1893673,6.7565637 0.90242818,6.0369219 0.52287557,6.0796948 0.14332297,6.1224679 0.10869569,5.6543494 C 0.0896468,5.3968866 0.05739523,4.9356705 0.03702389,4.6294326 L 0,4.0726252 H 0.384912 0.76982399 L 1.0556434,3.4672542 C 1.212842,3.1343025 1.3414586,2.8219612 1.3414586,2.7731717 c 0,-0.048796 -0.1392404,-0.2204303 -0.3094222,-0.3814151 L 0.72261434,2.0990542 1.077399,1.6727843 C 1.2725307,1.4383372 1.5695811,1.0907416 1.7375149,0.90034955 L 2.0428462,0.55418461 2.3299218,0.90773335 2.6170015,1.261278 3.022541,1.1435007 C 3.2455934,1.0787227 3.5437554,0.9942833 3.6851322,0.95585409 l 0.2570473,-0.06987 V 0.4429894 0 H 4.8796523 5.8171209 V 0.43844216 0.87688944 L 6.4627908,1.1499141 7.1084612,1.4229397 7.2641759,1.2091867 C 7.6336997,0.70192548 7.5244011,0.68046645 8.2829562,1.4092407 L 8.9633284,2.0629013 8.6603442,2.3856899 C 8.4937038,2.5632256 8.3573595,2.7302801 8.3573595,2.7569265 c 0,0.026636 0.1409351,0.3192629 0.3131863,0.6502544 L 8.9837329,4.0089873 H 9.3660861 9.7484413 V 5.027146 6.0452994 H 9.3672312 8.9860184 L 8.7624119,6.7074655 C 8.5397108,7.3669401 8.4979103,7.5703808 8.5841679,7.574923 8.6091249,7.576353 8.7364003,7.673547 8.8670244,7.791172 L 9.1045231,8.0050272 8.5135422,8.7419562 7.9225561,9.4788812 7.7161687,9.3132582 C 7.6026552,9.2221606 7.4623405,9.0811039 7.404354,8.999794 L 7.2989272,8.8519601 6.6941075,9.0075592 C 6.3614545,9.0931354 6.0144424,9.1632117 5.9229652,9.1632787 L 5.7566389,9.1634054 V 9.7043006 10.245199 H 4.8796523 4.0026657 Z M 5.5937173,8.1139269 C 6.8828838,7.7606379 7.7494943,6.5583881 7.7517962,5.1200244 7.7538865,3.9070573 7.133543,2.8279993 6.1364312,2.3095106 5.7320072,2.0992158 5.620477,2.0704966 5.1184191,2.0473955 4.3961849,2.0141628 3.8705657,2.1691954 3.357066,2.5669149 1.9074159,3.6897151 1.7259575,5.9131964 2.9725051,7.2790179 3.7018219,8.0781237 4.6371954,8.3760562 5.5937173,8.1139269 Z"
       id="path477"
       inkscape:connector-curvature="0" />
    <path
       style="fill:#000000;stroke-width:0.03231157"
       d="m 6.4183227,15.722871 v -0.277119 l -0.1653768,-0.06734 c -0.090962,-0.03704 -0.2402665,-0.09875 -0.3317936,-0.137115 -0.1595482,-0.06689 -0.1673515,-0.06727 -0.1890075,-0.0092 -0.012415,0.03332 -0.075858,0.125614 -0.1409599,0.205064 L 5.4728204,15.581675 5.3599828,15.467701 C 5.297924,15.405019 5.1469561,15.237283 5.0244981,15.094969 L 4.8018516,14.836218 4.9521871,14.697026 5.1025273,14.557842 4.9530787,14.183033 4.8036345,13.808218 l -0.197688,0.02229 -0.1976784,0.02229 -0.018022,-0.243811 c -0.00993,-0.134093 -0.026699,-0.374311 -0.03734,-0.533807 l -0.019269,-0.290002 h 0.2004777 0.2004729 l 0.148864,-0.315297 c 0.081873,-0.173417 0.148864,-0.336092 0.148864,-0.361501 0,-0.02543 -0.072521,-0.114804 -0.1611587,-0.198654 L 4.7099979,11.75728 4.8947825,11.535263 c 0.1016316,-0.122115 0.2563479,-0.303145 0.3438103,-0.402305 l 0.1590259,-0.180294 0.1495205,0.184134 0.1495207,0.184141 0.2112194,-0.06134 c 0.1161691,-0.03372 0.2714656,-0.07771 0.3450996,-0.09774 l 0.1338808,-0.0364 v -0.230777 -0.230723 h 0.4882648 0.4882643 v 0.228357 0.228355 l 0.3362847,0.142197 0.3362854,0.142202 0.081101,-0.111331 c 0.1924632,-0.264201 0.1355345,-0.275376 0.5306176,0.104191 l 0.3543603,0.340448 -0.1578033,0.168123 c -0.086797,0.09246 -0.1578083,0.179468 -0.1578083,0.193347 0,0.01386 0.073403,0.166278 0.1631194,0.338675 l 0.1631186,0.313436 h 0.1991407 0.1991455 v 0.530292 0.530286 H 9.2124041 9.0138536 l -0.1164612,0.344875 c -0.1159876,0.343476 -0.1377633,0.449437 -0.092836,0.451803 0.012991,5.94e-4 0.079286,0.05133 0.1473201,0.112627 l 0.1237,0.111372 -0.3078034,0.383827 -0.3078032,0.38382 -0.1074941,-0.08627 c -0.059117,-0.04742 -0.1322022,-0.120895 -0.1624047,-0.16325 l -0.054914,-0.07699 -0.3150077,0.08105 c -0.1732567,0.04459 -0.3539909,0.08107 -0.4016361,0.0811 l -0.086628,8.2e-5 V 15.718287 16 H 6.8751245 6.4183562 Z m 0.8286857,-0.832898 c 0.671444,-0.184005 1.122805,-0.810179 1.1240031,-1.559322 9.7e-4,-0.631747 -0.322006,-1.193761 -0.8413353,-1.463802 -0.2106392,-0.10953 -0.2687287,-0.124481 -0.5302151,-0.136523 -0.3761642,-0.01731 -0.6499263,0.06342 -0.9173707,0.270586 -0.7550279,0.584792 -0.8495365,1.742852 -0.2002907,2.454213 0.3798507,0.416198 0.8670221,0.571371 1.3652087,0.434848 z"
       id="path477-0"
       inkscape:connector-curvature="0" />
    <path
       style="fill:#000000;stroke-width:0.04523622"
       d="m 11.810387,13.03816 v -0.387965 l -0.231534,-0.09428 c -0.127339,-0.05185 -0.336372,-0.138239 -0.46451,-0.191963 -0.223365,-0.09366 -0.234284,-0.09419 -0.264609,-0.01286 -0.0174,0.04669 -0.106199,0.175855 -0.197341,0.287087 l -0.165713,0.202248 -0.15797,-0.159563 c -0.08689,-0.08776 -0.29824,-0.322581 -0.4696797,-0.52182 L 9.5473219,11.79678 9.7577948,11.601918 9.9682706,11.407051 9.7590428,10.882319 l -0.209227,-0.524742 -0.2767552,0.0312 -0.2767565,0.03119 -0.025259,-0.34133 C 8.9571347,9.8908927 8.933648,9.5545945 8.9187847,9.331294 L 8.8917607,8.9252853 H 9.1724252 9.453092 L 9.6615025,8.4838685 C 9.7761259,8.2410869 9.8699079,8.0133448 9.8699079,7.9777641 c 0,-0.035551 -0.1015259,-0.1607283 -0.2256215,-0.2781126 L 9.4186658,7.486219 9.677363,7.1753979 c 0.1422856,-0.170957 0.358886,-0.4244106 0.481333,-0.5632371 l 0.222638,-0.2524124 0.209327,0.2577943 0.209329,0.2577954 0.295706,-0.085877 c 0.162641,-0.047221 0.380053,-0.1087966 0.48314,-0.1368229 l 0.187433,-0.050967 V 6.2786587 5.9556462 h 0.68357 0.683571 v 0.3196962 0.3196962 l 0.470803,0.1990839 0.470798,0.1990795 0.113546,-0.1558615 c 0.269444,-0.3698741 0.189742,-0.3855277 0.74286,0.1458714 l 0.496103,0.4766295 -0.220924,0.2353677 c -0.121511,0.1294519 -0.220927,0.251262 -0.220927,0.2706895 0,0.019417 0.102763,0.2327958 0.228363,0.4741463 l 0.228363,0.4388147 H 15.7212 16 v 0.7424045 0.7424039 h -0.277966 -0.277965 l -0.163046,0.482828 c -0.162385,0.480868 -0.192864,0.629213 -0.129972,0.632523 0.0182,0.0011 0.111007,0.07191 0.206252,0.157681 l 0.173174,0.155939 -0.430922,0.53734 -0.430928,0.537338 -0.15049,-0.120764 c -0.08277,-0.06642 -0.185083,-0.16928 -0.227365,-0.228568 l -0.07687,-0.107792 -0.441012,0.11346 c -0.242558,0.06241 -0.49559,0.113496 -0.562293,0.113543 l -0.121276,1.04e-4 v 0.394404 0.394399 h -0.639477 -0.63947 z m 1.160162,-1.16606 c 0.940016,-0.257606 1.571917,-1.134241 1.5736,-2.1830533 C 14.545449,8.8045937 14.09334,8.017784 13.366277,7.6397211 13.071382,7.4863803 12.99006,7.4654378 12.623978,7.4485917 c -0.526631,-0.024213 -0.909894,0.088816 -1.284318,0.3788177 -1.057038,0.8187102 -1.189352,2.4399936 -0.280412,3.4359076 0.531796,0.582676 1.213836,0.799917 1.911301,0.608783 z"
       id="path477-4"
       inkscape:connector-curvature="0" />
  </g>
</svg>
