<?xml version="1.0" encoding="UTF-8" standalone="no"?>
<!-- Created with Inkscape (http://www.inkscape.org/) -->

<svg
   width="16.0px"
   height="16.0px"
   viewBox="0 0 16.0 16.0"
   version="1.1"
   id="SVGRoot"
   sodipodi:docname="nap.svg"
   inkscape:version="1.2.2 (b0a8486541, 2022-12-01)"
   inkscape:export-filename="nap.png"
   inkscape:export-xdpi="96"
   inkscape:export-ydpi="96"
   xmlns:inkscape="http://www.inkscape.org/namespaces/inkscape"
   xmlns:sodipodi="http://sodipodi.sourceforge.net/DTD/sodipodi-0.dtd"
   xmlns="http://www.w3.org/2000/svg"
   xmlns:svg="http://www.w3.org/2000/svg">
  <sodipodi:namedview
     id="namedview431"
     pagecolor="#ffffff"
     bordercolor="#000000"
     borderopacity="0.25"
     inkscape:showpageshadow="2"
     inkscape:pageopacity="0.0"
     inkscape:pagecheckerboard="0"
     inkscape:deskcolor="#d1d1d1"
     inkscape:document-units="px"
     showgrid="true"
     inkscape:zoom="38.057741"
     inkscape:cx="2.0757932"
     inkscape:cy="9.4067591"
     inkscape:window-width="1920"
     inkscape:window-height="1008"
     inkscape:window-x="0"
     inkscape:window-y="0"
     inkscape:window-maximized="1"
     inkscape:current-layer="layer1">
    <inkscape:grid
       type="xygrid"
       id="grid554" />
  </sodipodi:namedview>
  <defs
     id="defs426">
    <clipPath
       clipPathUnits="userSpaceOnUse"
       id="clipPath3145">
      <path
         id="path3147"
         style="fill:#a05a2c"
         d="m 3.4785156,3.4785156 v 3 C 3.5787437,6.245115 3.6879692,6.0155693 3.8144531,5.7949219 4.0115679,5.45883 4.222102,5.1289674 4.4707031,4.828125 4.5941514,4.6836706 4.6365575,4.6290824 4.7714844,4.4941406 4.9837902,4.2818115 5.2181446,4.0929683 5.4726562,3.9335938 5.5301119,3.8994456 5.5884418,3.8632189 5.6464844,3.8300781 5.8835571,3.6947159 6.1314994,3.5799871 6.3847656,3.4785156 Z m 5.8164063,0 c 0.068703,0.019474 0.1373572,0.041161 0.2050781,0.064453 0.1752649,0.06028 0.2250936,0.086045 0.3925781,0.1601562 0.2306309,0.1097726 0.4540929,0.2373015 0.6679689,0.3769531 0.137748,0.089943 0.202764,0.1384281 0.335937,0.234375 0.216204,0.1604477 0.424808,0.3327076 0.609375,0.5292969 0.11867,0.1263958 0.148991,0.1721378 0.25586,0.3066406 0.150064,0.199388 0.282378,0.4118196 0.382812,0.640625 0.06376,0.1452663 0.07685,0.1934381 0.126953,0.34375 0.108855,0.3529916 0.153138,0.7201889 0.19336,1.0859375 0.0046,0.038345 0.0093,0.076841 0.01367,0.1152344 V 3.4785156 Z M 7.8984375,4.1328125 C 7.7353366,4.1373178 7.5736233,4.1540374 7.4121094,4.1816406 7.2314858,4.2125097 7.0838677,4.1954712 6.9707031,4.1503906 6.8997955,4.1756086 6.829965,4.2018788 6.7597656,4.2285156 6.5148013,4.3234014 6.2767008,4.4315148 6.0488281,4.5625 5.9994724,4.5908708 5.9492452,4.6211651 5.9003906,4.6503906 5.6989949,4.7779896 5.5151521,4.9300009 5.3476562,5.0996094 5.2437365,5.2048403 5.2032501,5.2578294 5.1074219,5.3710938 4.8912824,5.6352109 4.707035,5.9225487 4.5351562,6.2167969 4.3876343,6.4758065 4.2672017,6.7491171 4.15625,7.0253906 4.0962834,7.1769445 4.0505904,7.334729 4.0390625,7.4980469 c -0.00537,0.076054 -0.00197,0.1484052 0,0.2246093 0.017486,0.3144004 0.04162,0.6280297 0.072266,0.9414063 0.00665,0.059392 0.01243,0.118395 0.019531,0.1777344 0.015834,0.1323111 0.028358,0.2245428 0.052734,0.3554687 0.016953,0.091056 0.038037,0.1802587 0.060547,0.2695313 0.2120263,0.2907048 0.4326867,0.5776241 0.6816406,0.8378911 0.05864,0.0613 0.1196492,0.119751 0.1796876,0.179687 0.3131648,0.300426 0.6636083,0.559026 1.0175781,0.808594 0.174872,0.122661 0.3546109,0.236391 0.5488281,0.326172 0.094958,0.0439 0.1798151,0.07553 0.2773438,0.113281 0.1675014,0.05615 0.3396626,0.104173 0.515625,0.125 0.075318,0.0089 0.1628575,0.01233 0.2382812,0.01563 0.2556695,0.0013 0.5112292,-0.0072 0.765625,-0.0332 0.2567588,-0.0315 0.4887398,-0.130447 0.7226562,-0.234375 0.2374846,-0.106663 0.4844203,-0.193446 0.7207032,-0.302735 0.1860597,-0.08946 0.3621197,-0.195519 0.5292967,-0.316406 0.174929,-0.127936 0.327089,-0.284375 0.466797,-0.449219 0.141997,-0.17151 0.25761,-0.361426 0.363281,-0.5566402 0.102406,-0.1907531 0.19595,-0.3856902 0.28711,-0.5820313 0.08314,-0.1740763 0.152614,-0.3527112 0.208984,-0.5371094 0.0026,-0.00841 0.0053,-0.016954 0.0078,-0.025391 -0.0028,-0.017058 -0.0076,-0.032843 -0.0098,-0.050781 -0.02419,-0.2008593 -0.02943,-0.4017609 -0.04297,-0.6035156 -0.02182,-0.2905726 -0.05565,-0.57979 -0.08984,-0.8691406 -0.03378,-0.3080456 -0.06784,-0.6177894 -0.15625,-0.9160156 -0.03586,-0.1110961 -0.04252,-0.1428888 -0.08789,-0.25 C 11.316162,5.9752051 11.216068,5.8170801 11.105469,5.6679688 11.026226,5.5668616 10.997626,5.5261991 10.910156,5.4316406 10.758345,5.2675231 10.585136,5.1255509 10.40625,4.9921875 10.134412,4.7957022 9.8569649,4.6102301 9.5527344,4.4667969 9.4283935,4.4107458 9.3795949,4.3852873 9.25,4.3398438 9.0057573,4.254197 8.7524984,4.2008413 8.4960938,4.1679688 8.424744,4.1600208 8.3528195,4.1501612 8.28125,4.1445312 8.208677,4.1388185 8.1351566,4.1342385 8.0625,4.1328125 c -0.054493,-0.00107 -0.1096956,-0.0015 -0.1640625,0 z m 4.5800785,5.2304687 c -0.04845,0.1316915 -0.101487,0.2620404 -0.16211,0.3886719 -0.09864,0.2120292 -0.199692,0.4229539 -0.310547,0.6289059 -0.13413,0.24639 -0.2823,0.485456 -0.46289,0.701172 -0.03295,0.03826 -0.06385,0.07579 -0.09766,0.113281 -0.155968,0.172943 -0.328554,0.332076 -0.515624,0.470704 -0.211335,0.150409 -0.43301,0.285743 -0.667969,0.396484 -0.240212,0.110047 -0.4886141,0.200337 -0.730469,0.306641 -0.082313,0.03644 -0.169161,0.07526 -0.2539062,0.109375 H 12.478516 Z M 3.4785156,9.84375 v 2.634766 H 6.5605469 C 6.4736271,12.444839 6.3986152,12.415026 6.296875,12.367188 6.06587,12.258562 5.8493629,12.122889 5.640625,11.976562 5.2476759,11.699157 4.8599793,11.411417 4.5136719,11.076172 4.4447266,11.006889 4.3739796,10.938025 4.3066406,10.867188 4.157257,10.710028 4.0176711,10.544854 3.8828125,10.375 3.7256751,10.332555 3.5690258,10.178409 3.4902344,9.8886719 3.4861644,9.8737159 3.4825446,9.858695 3.4785156,9.84375 Z" />
    </clipPath>
    <clipPath
       clipPathUnits="userSpaceOnUse"
       id="clipPath3717">
      <path
         id="path3719"
         style="fill:#a05a2c;stroke-width:2.39917"
         d="m 29.589035,56.834554 v 37.815104 h 38.01191 V 56.834554 Z m 18.574853,7.169406 c 0.01293,-0.001 0.02839,2.02e-4 0.04217,0 0.474608,-0.0069 0.920193,0.165406 1.354221,0.337384 0.122898,0.0487 0.191617,0.120681 0.220237,0.192121 0.07347,0.0089 0.147261,0.01581 0.220237,0.02344 0.745671,0.09409 1.481469,0.247291 2.192995,0.492018 0.420469,0.144622 0.540038,0.206437 0.941863,0.384243 0.55329,0.263343 1.08945,0.569326 1.602573,0.904376 0.330482,0.215782 0.486459,0.332112 0.805971,0.562306 0.518666,0.384943 1.019227,0.798243 1.461997,1.269875 0.28471,0.303246 0.357453,0.413008 0.613853,0.735684 0.360027,0.478368 0.677476,0.988046 0.918432,1.536971 0.152971,0.34852 0.184377,0.464109 0.304582,0.824716 0.261117,0.846869 0.367403,1.727877 0.463905,2.605353 0.0108,0.09039 0.01751,0.181327 0.02812,0.271781 0.01847,0.01919 0.03368,0.04936 0.05156,0.07029 0.04894,-0.174571 0.165903,-0.266688 0.285838,-0.267096 0.147429,-5.01e-4 0.297353,0.139347 0.318641,0.431102 0.01823,0.249248 0.05976,0.49546 0.107771,0.74037 0.05072,0.222728 0.05573,0.452926 0.0375,0.679453 -0.01152,0.143085 -0.0541,0.250739 -0.112449,0.323326 0.0274,0.224261 0.04131,0.447628 0.0328,0.674768 -0.0094,0.251928 -0.05295,0.463132 -0.11245,0.651338 v 0.0047 c -5.2e-5,0.01224 7.97e-4,0.02449 0,0.03749 -0.01247,0.202663 -0.0761,0.398944 -0.140567,0.590422 0.0055,0.0528 0.0038,0.114959 -0.0048,0.18275 -0.04551,0.364021 -0.180801,0.715632 -0.328012,1.049639 -0.03241,0.06527 -0.06128,0.131532 -0.09371,0.196806 -0.104124,0.209582 -0.248953,0.30254 -0.374871,0.304583 -0.01775,0.04345 -0.03121,0.08876 -0.05153,0.131206 -0.236655,0.508689 -0.479091,1.014779 -0.745056,1.508855 -0.321806,0.591132 -0.677289,1.164698 -1.110554,1.682234 -0.07905,0.09179 -0.153187,0.181833 -0.234303,0.27178 -0.374195,0.41487 -0.788294,0.796742 -1.237074,1.129299 -0.507027,0.360862 -1.038876,0.685544 -1.602572,0.951234 -0.576259,0.264019 -1.172238,0.480653 -1.752471,0.735682 -0.226216,0.100142 -0.467636,0.211344 -0.698197,0.299897 -0.532647,0.204602 -1.087479,0.354994 -1.654118,0.426415 -0.708093,0.06924 -1.420582,0.09513 -2.132079,0.08436 -0.306561,-0.01511 -0.482827,-0.01608 -0.791914,-0.05624 -0.561727,-0.07313 -1.111313,-0.226669 -1.644746,-0.41236 -0.327926,-0.128219 -0.515799,-0.194933 -0.838774,-0.346755 -0.554204,-0.260613 -1.073659,-0.586114 -1.574458,-0.937178 -0.786486,-0.555202 -1.54935,-1.143789 -2.267969,-1.785323 -0.06652,-0.001 -0.145257,-0.02456 -0.229608,-0.08434 C 40.295193,83.312402 40.15858,83.205871 40.0292,83.089607 39.83145,82.91757 39.629041,82.75332 39.429406,82.583533 c -0.235307,-0.206744 -0.462617,-0.420755 -0.674768,-0.65134 -0.210179,-0.233931 -0.415566,-0.476543 -0.581049,-0.745054 -0.152935,-0.245877 -0.301438,-0.493199 -0.407673,-0.7638 -0.104438,-0.262424 -0.196121,-0.530513 -0.276467,-0.801287 -0.05856,-0.201636 -0.123669,-0.40431 -0.145262,-0.613851 -0.015,-0.145554 0.02239,-0.241857 0.07966,-0.290525 -0.03897,-0.24181 -0.07121,-0.463547 -0.10309,-0.730998 -0.01808,-0.151641 -0.03462,-0.307443 -0.05154,-0.459217 -0.07828,-0.803593 -0.141344,-1.606834 -0.182749,-2.413231 -0.005,-0.331914 -0.01738,-0.498473 0.01406,-0.834088 0.05243,-0.559751 0.206166,-1.104577 0.412358,-1.626003 0.303792,-0.753663 0.635657,-1.496556 1.040266,-2.202366 0.472895,-0.806324 0.97804,-1.597759 1.574458,-2.319514 0.296175,-0.346553 0.397913,-0.477557 0.721627,-0.801286 0.509339,-0.509416 1.071632,-0.962482 1.682233,-1.34485 0.137846,-0.08193 0.27779,-0.168841 0.417044,-0.248352 0.407639,-0.232751 0.831491,-0.433833 1.260503,-0.623223 0.0209,-0.06033 0.06816,-0.126096 0.149948,-0.187435 0.255238,-0.191394 0.558181,-0.297883 0.857518,-0.398301 0.393387,-0.112973 0.788742,-0.211018 1.190215,-0.290524 0.02706,-0.0054 0.05067,-0.01257 0.07497,-0.01406 0.03973,-0.0024 0.07569,-0.0018 0.107776,0.0047 0.0053,-0.0013 0.0085,-0.0035 0.01406,-0.0047 0.172172,-0.03831 0.34193,-0.08482 0.515448,-0.117147 0.145143,-0.02298 0.293546,-0.04433 0.440473,-0.05154 0.04898,-0.0024 0.09612,-0.0012 0.145263,0 0.09072,0.0023 0.165317,0.01351 0.248352,0.02344 0.0482,-0.03856 0.118416,-0.06761 0.210866,-0.07497 z m -0.538877,0.496704 c 0.0039,0.0022 0.01017,0.0024 0.01406,0.0047 0.02498,-0.0023 0.04999,-0.0025 0.07497,-0.0047 -0.02971,-9.42e-4 -0.05942,-7.86e-4 -0.08903,0 z m 6.44778,13.411007 c -0.0048,0.0016 -0.0094,0.0032 -0.01416,0.0047 0.02015,0.03227 0.04825,0.06665 0.08436,0.07029 -0.0091,-0.01535 -0.053,-0.05547 -0.0703,-0.07497 z" />
    </clipPath>
    <clipPath
       clipPathUnits="userSpaceOnUse"
       id="clipPath3727">
      <path
         id="path3729"
         style="fill:#a05a2c"
         d="M 4.1660156,3.4238281 V 5.2382812 C 4.2621089,5.0977401 4.3621437,4.9594972 4.4707031,4.828125 4.5941512,4.6836708 4.6365577,4.6290822 4.7714844,4.4941406 4.9837898,4.2818119 5.2181452,4.0929679 5.4726562,3.9335938 5.5301119,3.8994456 5.5884418,3.8632189 5.6464844,3.8300781 5.9087062,3.6803565 6.1833412,3.5541662 6.4648438,3.4453125 c 0.01887,-0.00712 0.03773,-0.01434 0.056641,-0.021484 z m 4.9140625,0 C 9.2219139,3.4561415 9.3619382,3.4954839 9.5,3.5429688 c 0.1752645,0.06028 0.225094,0.086045 0.3925781,0.1601562 0.2306309,0.1097724 0.4540929,0.2373019 0.6679689,0.3769531 0.137748,0.089943 0.202766,0.1384283 0.335937,0.234375 0.216204,0.1604475 0.42481,0.332708 0.609375,0.5292969 0.11867,0.1263956 0.148991,0.1721382 0.25586,0.3066406 0.150064,0.1993876 0.282378,0.4118202 0.382812,0.640625 0.06376,0.1452661 0.07685,0.1934385 0.126953,0.34375 0.103801,0.3366001 0.148662,0.6862955 0.1875,1.0351563 0.02299,-0.02424 0.05161,-0.037013 0.08008,-0.037109 0.06145,-2.089e-4 0.12394,0.058081 0.132813,0.1796875 0.0076,0.1038894 0.02491,0.2065129 0.04492,0.3085938 0.02114,0.092835 0.02323,0.1887843 0.01563,0.2832031 -0.0012,0.014779 -0.0032,0.028068 -0.0059,0.041016 0.03516,0.1626283 0.05703,0.3274422 0.05078,0.4941406 -0.0084,0.2242446 -0.07152,0.3875636 -0.160156,0.4902344 v 0.00195 c -0.01538,0.059037 -0.03272,0.1175866 -0.05078,0.1757813 -0.06852,0.220157 -0.15036,0.4364004 -0.25,0.6445312 -0.09864,0.2120288 -0.199692,0.4229562 -0.310547,0.6289062 -0.134128,0.24639 -0.2823,0.485456 -0.46289,0.701172 -0.03295,0.03826 -0.06385,0.07579 -0.09766,0.113281 -0.155966,0.172943 -0.328556,0.332076 -0.515624,0.470704 -0.211335,0.150407 -0.43301,0.285743 -0.667969,0.396484 -0.240212,0.110047 -0.4886145,0.200337 -0.730469,0.306641 -0.094289,0.04174 -0.1949151,0.08809 -0.2910156,0.125 -0.2220193,0.08528 -0.453272,0.147964 -0.6894532,0.177734 -0.2951467,0.02886 -0.5921062,0.03966 -0.8886718,0.03516 -0.1277783,-0.0063 -0.2012468,-0.0067 -0.3300782,-0.02344 C 7.0980065,12.653134 6.868832,12.589124 6.6464844,12.511719 6.5098027,12.458278 6.4314938,12.430483 6.296875,12.367188 6.0658704,12.258562 5.8493625,12.122889 5.640625,11.976562 5.2476767,11.699159 4.8599785,11.411417 4.5136719,11.076172 4.4447266,11.006889 4.3739796,10.938023 4.3066406,10.867188 c -0.048299,-0.05081 -0.094053,-0.103874 -0.140625,-0.15625 v 2.429687 H 13.232422 V 3.4238281 Z M 7.8984375,4.1328125 C 7.7353368,4.1373178 7.5736229,4.1540375 7.4121094,4.1816406 7.2317317,4.2124678 7.083673,4.195393 6.9707031,4.1503906 6.8997957,4.1756086 6.829965,4.201879 6.7597656,4.2285156 6.5148019,4.3234012 6.2767004,4.431515 6.0488281,4.5625 5.9994726,4.5908708 5.9492452,4.6211653 5.9003906,4.6503906 5.6989953,4.7779894 5.5151519,4.9300011 5.3476562,5.0996094 5.2437369,5.2048401 5.2032499,5.2578296 5.1074219,5.3710938 4.8912828,5.6352103 4.7070348,5.9225493 4.5351562,6.2167969 4.3918122,6.4684714 4.2743606,6.7336757 4.1660156,7.0019531 v 2.0878907 c 0.00562,0.034666 0.010213,0.067864 0.017578,0.1074218 0.016953,0.091056 0.038037,0.1802589 0.060547,0.2695313 0.2120259,0.2907042 0.4326873,0.5776241 0.6816406,0.8378911 0.05864,0.0613 0.1196492,0.119751 0.1796876,0.179687 0.313164,0.300426 0.6636089,0.559026 1.0175781,0.808594 0.1748716,0.122661 0.3546113,0.236391 0.5488281,0.326172 0.094958,0.0439 0.1798151,0.07553 0.2773438,0.113281 0.167501,0.05615 0.3396628,0.104173 0.515625,0.125 0.075318,0.0089 0.1628577,0.01233 0.2382812,0.01563 0.2556689,0.0013 0.5112298,-0.0072 0.765625,-0.0332 0.2567582,-0.0315 0.4887404,-0.130447 0.7226562,-0.234375 0.2374842,-0.106663 0.4844207,-0.193446 0.7207032,-0.302735 0.1860596,-0.08946 0.3621196,-0.195519 0.5292966,-0.316406 0.174929,-0.127936 0.327089,-0.284375 0.466797,-0.449219 0.141997,-0.171508 0.25761,-0.361426 0.363281,-0.5566402 0.102406,-0.1907529 0.19595,-0.3856906 0.28711,-0.5820313 0.08314,-0.1740759 0.152614,-0.3527116 0.208984,-0.5371094 0.0028,-0.009 0.0051,-0.018308 0.0078,-0.027344 -0.0028,-0.016768 -0.0076,-0.031213 -0.0098,-0.048828 -0.02419,-0.2008587 -0.02943,-0.4017613 -0.04297,-0.6035156 -0.02182,-0.290572 -0.05565,-0.5797906 -0.08984,-0.8691406 -0.03378,-0.308045 -0.06784,-0.61779 -0.15625,-0.9160156 -0.03586,-0.1110959 -0.04252,-0.142889 -0.08789,-0.25 C 11.316249,5.9751895 11.216068,5.8170797 11.105469,5.6679688 11.026226,5.5668618 10.997626,5.5261989 10.910156,5.4316406 10.758345,5.2675235 10.585136,5.1255507 10.40625,4.9921875 10.134412,4.7957026 9.8569643,4.6102297 9.5527344,4.4667969 9.4283937,4.4107458 9.3795947,4.3852871 9.25,4.3398438 9.0057577,4.254197 8.7524978,4.2008411 8.4960938,4.1679688 8.424744,4.1600208 8.3528193,4.1501612 8.28125,4.1445312 8.2086772,4.1388186 8.1351565,4.1342385 8.0625,4.1328125 c -0.054493,-0.00107 -0.1096957,-0.0015 -0.1640625,0 z" />
    </clipPath>
  </defs>
  <g
     inkscape:label="Layer 1"
     inkscape:groupmode="layer"
     id="layer1">
    <path
       sodipodi:type="star"
       style="fill:#000000;stroke-width:0.264583"
       id="path288"
       inkscape:flatsided="false"
       sodipodi:sides="10"
       sodipodi:cx="48.594696"
       sodipodi:cy="75.742104"
       sodipodi:r1="19.195902"
       sodipodi:r2="9.5979519"
       sodipodi:arg1="0.76922165"
       sodipodi:arg2="1.0833809"
       inkscape:rounded="0"
       inkscape:randomized="0"
       d="m 62.386036,89.094317 -9.296198,-4.871979 -1.185948,10.428279 -4.657105,-9.405681 -7.08904,7.739572 1.760844,-10.346734 -10.284361,2.094612 7.50621,-7.335685 -9.551404,-4.350419 10.384459,-1.522654 -5.170137,-9.133738 9.296198,4.871979 1.185948,-10.428279 4.657105,9.405682 7.08904,-7.739573 -1.760844,10.346734 10.284361,-2.094612 -7.50621,7.335685 9.551404,4.350419 -10.384459,1.522654 z"
       transform="matrix(0.41681015,0,0,0.41681015,-12.33301,-23.689219)"
       clip-path="url(#clipPath3717)" />
    <ellipse
       style="fill:none;"
       id="path1232"
       cx="8.6995754"
       cy="8.2816238"
       rx="4.5337353"
       ry="4.8585649"
       clip-path="url(#clipPath3727)" />
    <circle
       style="fill:#000000;stroke-width:0.954008"
       id="path3581"
       cx="7.9027948"
       cy="7.7912412"
       r="4.1999998" />
  </g>
</svg>
