<?xml version="1.0" encoding="UTF-8" standalone="no"?>
<!-- Created with Inkscape (http://www.inkscape.org/) -->

<svg
   width="16px"
   height="16px"
   viewBox="0 0 16 16"
   version="1.1"
   id="SVGRoot"
   inkscape:version="1.3.2 (091e20e, 2023-11-25, custom)"
   sodipodi:docname="user.svg"
   inkscape:export-filename="C:\Users\3041TAN-04.TANUZEM\Downloads\user.png"
   inkscape:export-xdpi="96"
   inkscape:export-ydpi="96"
   xmlns:inkscape="http://www.inkscape.org/namespaces/inkscape"
   xmlns:sodipodi="http://sodipodi.sourceforge.net/DTD/sodipodi-0.dtd"
   xmlns="http://www.w3.org/2000/svg"
   xmlns:svg="http://www.w3.org/2000/svg"
   xmlns:rdf="http://www.w3.org/1999/02/22-rdf-syntax-ns#"
   xmlns:cc="http://creativecommons.org/ns#"
   xmlns:dc="http://purl.org/dc/elements/1.1/">
  <sodipodi:namedview
     id="base"
     pagecolor="#ffffff"
     bordercolor="#666666"
     borderopacity="1.0"
     inkscape:pageopacity="0.0"
     inkscape:pageshadow="2"
     inkscape:zoom="45.254834"
     inkscape:cx="7.1594562"
     inkscape:cy="7.1926018"
     inkscape:document-units="px"
     inkscape:current-layer="layer1"
     showgrid="false"
     inkscape:window-width="1920"
     inkscape:window-height="1017"
     inkscape:window-x="-8"
     inkscape:window-y="-8"
     inkscape:window-maximized="1"
     inkscape:grid-bbox="true"
     inkscape:showpageshadow="2"
     inkscape:pagecheckerboard="0"
     inkscape:deskcolor="#d1d1d1" />
  <defs
     id="defs1078">
    <inkscape:path-effect
       effect="bspline"
       id="path-effect42"
       is_visible="true"
       weight="33.333333"
       steps="2"
       helper_size="0"
       apply_no_weight="true"
       apply_with_weight="true"
       only_selected="false" />
    <inkscape:path-effect
       effect="bspline"
       id="path-effect42-5"
       is_visible="true"
       weight="33.333333"
       steps="2"
       helper_size="0"
       apply_no_weight="true"
       apply_with_weight="true"
       only_selected="false" />
  </defs>
  <metadata
     id="metadata1081">
    <rdf:RDF>
      <cc:Work
         rdf:about="">
        <dc:format>image/svg+xml</dc:format>
        <dc:type
           rdf:resource="http://purl.org/dc/dcmitype/StillImage" />
      </cc:Work>
    </rdf:RDF>
  </metadata>
  <g
     id="layer1"
     inkscape:groupmode="layer"
     inkscape:label="1. réteg">
    <path
       id="path16"
       style="fill:#000000;stroke-width:0.03130915"
       d="M 8.0078125 0.12695312 A 7.8895631 7.9208126 0 0 0 0.11914062 8.046875 A 7.8895631 7.9208126 0 0 0 8.0078125 15.96875 A 7.8895631 7.9208126 0 0 0 15.896484 8.046875 A 7.8895631 7.9208126 0 0 0 8.0078125 0.12695312 z M 8.0449219 0.45703125 A 7.5362992 7.5661497 0 0 1 15.580078 8.0234375 A 7.5362992 7.5661497 0 0 1 12.697266 13.972656 A 4.723 5.4650002 0 0 0 8.8125 8.7753906 A 2.943867 2.9555273 0 0 0 10.902344 5.9492188 A 2.943867 2.9555273 0 0 0 7.9570312 2.9941406 A 2.943867 2.9555273 0 0 0 5.0136719 5.9492188 A 2.943867 2.9555273 0 0 0 7.1328125 8.7851562 A 4.723 5.4650002 0 0 0 3.28125 13.871094 A 7.5362992 7.5661497 0 0 1 0.5078125 8.0234375 A 7.5362992 7.5661497 0 0 1 8.0449219 0.45703125 z " />
  </g>
</svg>
