<?xml version="1.0" encoding="UTF-8" standalone="no"?>
<!-- Created with Inkscape (http://www.inkscape.org/) -->

<svg
   xmlns:dc="http://purl.org/dc/elements/1.1/"
   xmlns:cc="http://creativecommons.org/ns#"
   xmlns:rdf="http://www.w3.org/1999/02/22-rdf-syntax-ns#"
   xmlns:svg="http://www.w3.org/2000/svg"
   xmlns="http://www.w3.org/2000/svg"
   xmlns:sodipodi="http://sodipodi.sourceforge.net/DTD/sodipodi-0.dtd"
   xmlns:inkscape="http://www.inkscape.org/namespaces/inkscape"
   width="16px"
   height="16px"
   viewBox="0 0 16 16"
   version="1.1"
   id="SVGRoot"
   inkscape:version="0.92.3 (2405546, 2018-03-11)"
   sodipodi:docname="warehouse.svg">
  <sodipodi:namedview
     id="base"
     pagecolor="#ffffff"
     bordercolor="#666666"
     borderopacity="1.0"
     inkscape:pageopacity="0.0"
     inkscape:pageshadow="2"
     inkscape:zoom="16"
     inkscape:cx="-5.8823779"
     inkscape:cy="10.612966"
     inkscape:document-units="px"
     inkscape:current-layer="layer1"
     showgrid="false"
     inkscape:window-width="1920"
     inkscape:window-height="1017"
     inkscape:window-x="-8"
     inkscape:window-y="-8"
     inkscape:window-maximized="1"
     inkscape:grid-bbox="true" />
  <defs
     id="defs4185" />
  <metadata
     id="metadata4188">
    <rdf:RDF>
      <cc:Work
         rdf:about="">
        <dc:format>image/svg+xml</dc:format>
        <dc:type
           rdf:resource="http://purl.org/dc/dcmitype/StillImage" />
        <dc:title></dc:title>
      </cc:Work>
    </rdf:RDF>
  </metadata>
  <g
     id="layer1"
     inkscape:groupmode="layer"
     inkscape:label="1. réteg">
    <path
       style="fill:#000000;stroke-width:0.05728467"
       d="M 4.0077872,3.1471207 8.0155809,0 12.007794,3.134277 C 14.203509,4.8581309 16,6.2743317 16,6.2813977 c 0,0.00704 -3.599997,0.012853 -7.9999999,0.012853 H 0 Z"
       id="path44"
       inkscape:connector-curvature="0" />
    <path
       style="fill:#000000;stroke-width:0.0607296"
       d="m 1.5503209,10.487395 -0.00577,-5.2700008 6.4709412,0.69565 6.4709489,-0.69565 V 10.434782 16 H 8.0154976 1.5445501 Z M 13.015856,10.434755 V 6.7825879 H 8.0155809 3.0152996 v 3.6521691 3.826087 h 5.0002813 5.0002751 z"
       id="path46"
       inkscape:connector-curvature="0"
       sodipodi:nodetypes="cccccccccccccccccc" />
    <path
       style="fill:#000000;stroke-width:0.01509903"
       d="M 3.4158622,11.711173 V 9.7391316 h 0.2379125 0.2379192 l -0.021864,1.9746184 0.021864,1.969478 H 3.6537747 3.4158622 Z"
       id="path200"
       inkscape:connector-curvature="0"
       sodipodi:nodetypes="ccccccccc" />
    <path
       style="fill:#000000;stroke-width:0.01509903"
       d="M 7.5397429,11.711173 V 9.7391316 h 0.2379126 0.2379254 v 1.9720414 1.972055 H 7.7776555 7.5397429 Z"
       id="path202"
       inkscape:connector-curvature="0"
       sodipodi:nodetypes="ccccccccc" />
    <path
       style="fill:#000000;stroke-width:0.00533831"
       d="m 3.8123853,13.471936 v -0.140861 h 1.9033266 1.9033395 v 0.140861 0.07043 H 5.7157119 3.8123853 Z"
       id="path214"
       inkscape:connector-curvature="0"
       sodipodi:nodetypes="ccccccccc" />
    <path
       style="fill:#000000;stroke-width:0.00533831"
       d="M 3.8123853,11.781611 V 11.64075 h 1.9033266 1.9033395 v 0.140861 0.07043 H 5.7157119 3.8123853 Z"
       id="path216"
       inkscape:connector-curvature="0"
       sodipodi:nodetypes="ccccccccc" />
    <path
       style="fill:#000000;stroke-width:0.00533831"
       d="m 6.2708521,12.908491 v -0.352143 h 0.4758317 0.4758444 v 0.352143 0.35216 H 6.7466838 6.2708521 Z"
       id="path218"
       inkscape:connector-curvature="0"
       sodipodi:nodetypes="ccccccccc" />
    <path
       style="fill:#000000;stroke-width:0.00533831"
       d="m 5.1605783,12.908491 v -0.352143 h 0.4758316 0.475838 v 0.352143 0.35216 H 5.6364099 L 5.151717,13.260253 Z"
       id="path220"
       inkscape:connector-curvature="0"
       sodipodi:nodetypes="ccccccccc" />
    <path
       style="fill:#000000;stroke-width:0.00533831"
       d="M 4.050298,12.908491 V 12.556348 H 4.5261424 5.001974 v 0.352143 0.35216 H 4.5261424 4.050298 Z"
       id="path222"
       inkscape:connector-curvature="0"
       sodipodi:nodetypes="ccccccccc" />
    <path
       style="fill:#000000;stroke-width:0.00533831"
       d="m 3.8123853,9.9504178 v -0.07043 h 1.9033266 1.9033395 v 0.07043 0.1408602 H 5.7157119 3.8123853 Z"
       id="path228"
       inkscape:connector-curvature="0"
       sodipodi:nodetypes="ccccccccc" />
    <path
       style="fill:#000000;stroke-width:0.01479027"
       d="M 8.2533077,11.686953 V 9.7391316 h 0.2311224 0.2311288 l -0.021223,1.9503614 0.021223,1.945289 H 8.4844301 8.2533077 Z"
       id="path200-5"
       inkscape:connector-curvature="0"
       sodipodi:nodetypes="ccccccccc" />
    <path
       style="fill:#000000;stroke-width:0.01479027"
       d="M 12.259473,11.686953 V 9.7391316 h 0.231116 0.231129 v 1.9478214 1.947829 h -0.231129 -0.231116 z"
       id="path202-4"
       inkscape:connector-curvature="0"
       sodipodi:nodetypes="ccccccccc" />
    <path
       style="fill:#000000;stroke-width:0.00522914"
       d="m 8.6385139,13.426079 v -0.139132 h 1.8489931 1.849004 v 0.139132 0.06957 H 10.487507 8.6385139 Z"
       id="path214-3"
       inkscape:connector-curvature="0"
       sodipodi:nodetypes="ccccccccc" />
    <path
       style="fill:#000000;stroke-width:0.00522914"
       d="m 8.6385139,11.756517 v -0.139131 h 1.8489931 1.849004 v 0.139131 0.06957 H 10.487507 8.6385139 Z"
       id="path216-0"
       inkscape:connector-curvature="0"
       sodipodi:nodetypes="ccccccccc" />
    <path
       style="fill:#000000;stroke-width:0.00522914"
       d="m 11.026803,12.869562 v -0.347818 h 0.462245 0.462257 v 0.347818 0.347832 h -0.462257 -0.462245 z"
       id="path218-1"
       inkscape:connector-curvature="0"
       sodipodi:nodetypes="ccccccccc" />
    <path
       style="fill:#000000;stroke-width:0.00522914"
       d="m 9.9482166,12.869562 v -0.347818 h 0.4622514 0.462258 v 0.347818 0.347832 h -0.462258 l -0.4708564,-3.96e-4 z"
       id="path220-4"
       inkscape:connector-curvature="0"
       sodipodi:nodetypes="ccccccccc" />
    <path
       style="fill:#000000;stroke-width:0.00522914"
       d="m 8.8696299,12.869562 v -0.347818 h 0.4622637 0.462245 v 0.347818 0.347832 H 9.3318936 8.8696299 Z"
       id="path222-6"
       inkscape:connector-curvature="0"
       sodipodi:nodetypes="ccccccccc" />
    <path
       style="fill:#000000;stroke-width:0.00522914"
       d="m 10.256391,11.2 v -0.34783 h 0.462251 0.446837 V 11.2 11.54782 h -0.446837 -0.462251 z"
       id="path224-7"
       inkscape:connector-curvature="0"
       sodipodi:nodetypes="ccccccccc" />
    <path
       style="fill:#000000;stroke-width:0.00522914"
       d="m 9.0237196,11.2 v -0.34783 h 0.462252 0.462245 V 11.2 11.54782 h -0.462245 -0.462252 z"
       id="path226-7"
       inkscape:connector-curvature="0"
       sodipodi:nodetypes="ccccccccc" />
    <path
       style="fill:#000000;stroke-width:0.00522914"
       d="m 8.6385139,9.9478228 v -0.069573 h 1.8489931 1.849004 v 0.069573 0.1391312 H 10.487507 8.6385139 Z"
       id="path228-6"
       inkscape:connector-curvature="0"
       sodipodi:nodetypes="ccccccccc" />
  </g>
</svg>
