<?xml version="1.0" encoding="UTF-8" standalone="no"?>
<svg
   id="Layer_1"
   data-name="Layer 1"
   viewBox="0 0 532.39 791.92"
   version="1.1"
   sodipodi:docname="cimer fixup.svg"
   inkscape:version="1.3.2 (091e20e, 2023-11-25, custom)"
   inkscape:export-filename="cimer_apro.png"
   inkscape:export-xdpi="43.276543"
   inkscape:export-ydpi="43.276543"
   xmlns:inkscape="http://www.inkscape.org/namespaces/inkscape"
   xmlns:sodipodi="http://sodipodi.sourceforge.net/DTD/sodipodi-0.dtd"
   xmlns="http://www.w3.org/2000/svg"
   xmlns:svg="http://www.w3.org/2000/svg"
   xmlns:rdf="http://www.w3.org/1999/02/22-rdf-syntax-ns#"
   xmlns:cc="http://creativecommons.org/ns#"
   xmlns:dc="http://purl.org/dc/elements/1.1/">
  <sodipodi:namedview
     id="namedview53"
     pagecolor="#fd03ff"
     bordercolor="#000000"
     borderopacity="0.25"
     inkscape:showpageshadow="2"
     inkscape:pageopacity="0.0"
     inkscape:pagecheckerboard="0"
     inkscape:deskcolor="#d1d1d1"
     inkscape:zoom="2.8284271"
     inkscape:cx="99.348502"
     inkscape:cy="307.76823"
     inkscape:window-width="1920"
     inkscape:window-height="1017"
     inkscape:window-x="-8"
     inkscape:window-y="-8"
     inkscape:window-maximized="1"
     inkscape:current-layer="g2" />
  <defs
     id="defs2">
    <style
       id="style1">.cls-1{fill:#e3000f;}.cls-1,.cls-10,.cls-11,.cls-12,.cls-13,.cls-14,.cls-2,.cls-3,.cls-4,.cls-5,.cls-7,.cls-8,.cls-9{fill-rule:evenodd;}.cls-2{fill:#2f2483;stroke:#422483;}.cls-10,.cls-14,.cls-2,.cls-6,.cls-9{stroke-miterlimit:22.93;}.cls-10,.cls-14,.cls-2,.cls-7,.cls-8,.cls-9{stroke-width:0.22px;}.cls-3{fill:#ffed00;}.cls-14,.cls-4{stroke:#fff;}.cls-4,.cls-7,.cls-8{stroke-linecap:round;}.cls-13,.cls-4,.cls-7,.cls-8{stroke-linejoin:bevel;}.cls-4{stroke-width:0.28px;fill:url(#GradientFill_1);}.cls-10,.cls-5,.cls-8{fill:#1a1a18;}.cls-6{fill:none;}.cls-6,.cls-7{stroke:#1a1a18;}.cls-12,.cls-7,.cls-9{fill:#000003;}.cls-13,.cls-8,.cls-9{stroke:#000003;}.cls-10{stroke:#000;}.cls-11,.cls-13,.cls-14{fill:#fff;}.cls-13{stroke-linecap:square;stroke-width:4px;}</style>
    <linearGradient
       id="GradientFill_1"
       x1="212.67"
       y1="567.4"
       x2="389.16"
       y2="567.4"
       gradientUnits="userSpaceOnUse">
      <stop
         offset="0"
         stop-color="#fff"
         id="stop1" />
      <stop
         offset="1"
         stop-color="#fff"
         id="stop2" />
    </linearGradient>
  </defs>
  <title
     id="title2">cimer 2005 11 19</title>
  <path
     class="cls-2"
     d="m 103,241.66 c 130.74,0.37 261,0.75 393.25,0.57 -0.73161,180.05777 5.875,385.7 -196.37,470.83 C 93.046039,616.39157 102.76678,416.89693 103,241.66 Z"
     transform="translate(-33.8,-15.4)"
     id="path3"
     inkscape:label="Hatter"
     sodipodi:nodetypes="cccc" />
  <line
     class="cls-6"
     x1="67.332077"
     y1="225.61964"
     x2="464.71536"
     y2="226.66101"
     id="line6"
     inkscape:label="Lezaro"
     style="stroke-width:1.30785" />
  <g
     id="g1"
     inkscape:label="Korona"
     style="stroke:none">
    <path
       class="cls-3"
       d="M448.88,240.26c15.78-73.3,29.36-121,67.33-167C487.38,60.09,474,63.59,464.48,89c-19.82-5.84-35,8.46-17.76,48.16-13.64,34.73-62,50.2-52.5-26.27,49.15-33.27-36-66.54-15.44-4.38-12.35,59-58.67,63.63-63.3,2.63,0-4.68,3.72-10.12,7.87-10.48,38.92-.82,35.79-46.66,2.93-49.06-4.88-43.67-50.7-42.9-54-1.75-32.23,6-29.83,54,2.77,51.31,4.4-.84,7,7.45,6.49,11.73C282,164.28,227,176.54,217.43,103c24.7-60.41-61.76-31.52-13.9,5.25,16.21,46.7-27,69.76-48.64,24.52,22.91-14.3,15.7-42.61-14.67-42.9-9.77-18.1-33.45-32.69-57.13-12.26,41.18,51.08,63,101.37,70.95,162.07Z"
       transform="translate(-33.8,-15.4)"
       id="path4"
       inkscape:label="Korona_szin"
       style="stroke:none" />
    <path
       class="cls-5"
       d="M447.28,239.38c7.77-36,15.68-68.55,25.69-94.57a252.38,252.38,0,0,1,40.93-71c-13.21-5.82-23-7.91-30.44-5.69-7.69,2.27-13.14,9.21-17.73,21.44l-.45,1.22-1.15-.34a23.94,23.94,0,0,0-11.9-.76,13.48,13.48,0,0,0-8.53,5.69c-2.07,3.08-3.23,7.39-3.13,13,.13,7.24,2.36,16.57,7.38,28.13l.27.62-.25.62c-5.15,13.12-15.15,23.59-25.26,27.68a21.72,21.72,0,0,1-13.4,1.37,18.57,18.57,0,0,1-11.2-8.39c-5.54-8.52-8.22-23.72-5.23-47.72l.09-.7.55-.38c15.14-10.25,16.94-20.26,13.13-27.13A18.74,18.74,0,0,0,397,74.4a16.68,16.68,0,0,0-12.1-.34c-7,2.84-11.33,12.34-4.84,31.92l.05.85c-4.48,21.38-13.41,35.81-23.27,42.72-4.76,3.34-9.74,4.95-14.57,4.77a21,21,0,0,1-13.68-6c-7.42-6.89-13-19.81-14.47-39.08v-.13a13.77,13.77,0,0,1,2.8-8,9.37,9.37,0,0,1,6.33-4h.08c12.9-.27,20.94-5.6,24.64-12.56a21,21,0,0,0,2.4-9.5,22.68,22.68,0,0,0-2.05-9.7c-3.4-7.45-10.95-13.47-22.12-14.28L325.07,51l-.13-1.23c-1.61-14.36-7.76-23.71-15.28-28.21a21.76,21.76,0,0,0-11.41-3.16,21.26,21.26,0,0,0-11.2,3.37C280.08,26.19,274.66,35,273.6,48l-.09,1.16-1.05.19c-11.18,2.09-18,9.45-20.58,17.82a27.26,27.26,0,0,0-1.13,10.65,24.09,24.09,0,0,0,3.06,9.82c3.74,6.48,10.82,10.89,21.1,10l-.13,0a4.36,4.36,0,0,1,1.44,0c1.87.26,3.38,1.68,4.48,3.6a17.67,17.67,0,0,1,2,6,15.15,15.15,0,0,1,.16,3.69c.16,18.64-6.31,32.45-15.32,39.61A24.52,24.52,0,0,1,254,156a23.78,23.78,0,0,1-14.37-3.77c-10.7-6.67-20.13-22.34-23.59-49l.11-.83c7.64-18.69,4.33-28.24-2.11-31.45a15.61,15.61,0,0,0-11.69-.38,18.79,18.79,0,0,0-10,7.54c-4.33,6.86-3.14,17.37,11.91,28.93l.49.7c5.87,16.89,4.14,30.86-1.53,39.87a24.18,24.18,0,0,1-9.48,8.85,21.06,21.06,0,0,1-12.24,2.1c-9.7-1.22-20.15-8.94-27.86-25.07l-.61-1.29,1.15-.71c6.23-3.89,10.11-8.82,11.8-13.89a18.08,18.08,0,0,0,.44-10.25A18.32,18.32,0,0,0,161,98.4c-4.53-4.18-11.53-7-20.83-7h-.76l-.39-.72A45.77,45.77,0,0,0,136.18,86c-4.94-7-12-12.87-20.23-15.44S98.42,68.73,88.89,75a46.43,46.43,0,0,0-3.81,2.81c20.2,25.2,35.69,49.45,47.15,74.88s19.55,56.34,23.61,86.15l291.44.53Zm2.93-1-.34,1.59-.31,1.64-296.36-.15-.28-3.16-.23-1.75c-4-30.18-11.36-56.95-22.89-82.52S102.59,104,82.08,78.6l-1-1.19,1.14-1a51.45,51.45,0,0,1,5.24-4c10.25-6.75,20.33-7.54,29.18-4.78s16.37,9,21.64,16.49A49.72,49.72,0,0,1,141,88.37c9.6.24,16.94,3.25,21.79,7.73a21,21,0,0,1,5.8,22.5c-1.8,5.38-5.71,10.57-11.87,14.72,7.16,14.28,16.51,21.14,25.14,22.23a18.6,18.6,0,0,0,10.81-1.84,21.4,21.4,0,0,0,8.38-7.85c5.15-8.18,6.7-21,1.37-36.66C186,96.47,185.08,84.44,190.16,76.37a21.53,21.53,0,0,1,11.45-8.7c4.6-1.51,9.57-1.49,13.59.52,7.66,3.82,11.88,14.56,3.63,35,3.36,25.39,12.19,40.2,22.17,46.41A21.33,21.33,0,0,0,253.87,153,22,22,0,0,0,266,148.09c8.36-6.63,14.35-19.59,14.18-37.21l0-.2a11.68,11.68,0,0,0-.12-3,14.93,14.93,0,0,0-1.63-4.89,4,4,0,0,0-2.53-2.25,2,2,0,0,0-.64,0l-.13,0c-11.42,1-19.35-4.07-23.6-11.42a27.32,27.32,0,0,1-3.46-11.14,30.63,30.63,0,0,1,1.25-11.92A28.37,28.37,0,0,1,271,46.57c1.37-13.47,7.23-22.66,14.71-27.41a23.75,23.75,0,0,1,12.54-3.76A24.21,24.21,0,0,1,311,18.92c8,4.8,14.6,14.51,16.53,29.26C339.12,49.39,347.06,56,350.74,64a25.8,25.8,0,0,1,2.35,11.1,24.08,24.08,0,0,1-2.78,11c-4.14,7.8-13,13.77-26.93,14.06h.08a6.66,6.66,0,0,0-4.44,2.93,10.54,10.54,0,0,0-2.18,5.94c1.4,18.39,6.61,30.62,13.5,37a18.52,18.52,0,0,0,12,5.29,21.46,21.46,0,0,0,13-4.3c9.25-6.48,17.66-20.12,22-40.44-7-21.37-1.68-32,6.61-35.33a19.13,19.13,0,0,1,13.91.32A21.52,21.52,0,0,1,409,80.9c4.5,8.1,2.86,19.59-13.48,30.87-2.74,22.75-.28,37,4.83,44.87a16,16,0,0,0,9.58,7.22,19.37,19.37,0,0,0,11.88-1.27c9.31-3.76,18.53-13.35,23.46-25.43-5-11.69-7.24-21.23-7.38-28.74-.11-6.31,1.24-11.24,3.67-14.84a16.19,16.19,0,0,1,10.18-6.86,25.67,25.67,0,0,1,12,.5c4.85-12.42,10.74-19.55,19.07-22s19.28-.07,34,6.63l1.79.81-1.3,1.58A249.63,249.63,0,0,0,475.47,146C465.4,172.17,458.08,201.81,450.21,238.39Z"
       transform="translate(-33.8,-15.4)"
       id="path6"
       inkscape:label="Korona_vonal"
       style="stroke:none" />
  </g>
  <g
     id="g54"
     inkscape:label="Szoveg"
     style="stroke:none">
    <path
       d="m 465.28906,267.2793 -1.08984,56.77148 h -0.41992 c -0.52,50.90995 -5.05907,94.99903 -12.28907,134.45899 -7.22999,39.45996 -18.76118,74.08987 -34.95117,106.08984 -16.99998,31.99997 -38.19994,59.36002 -63.41992,82 a 280.82,280.82 0 0 1 -87.19922,52.93945 l -0.5,0.19141 -0.49023,-0.2207 c -30.29997,-13.69999 -57.77042,-31.24003 -81.90039,-53 A 298.26,298.26 0 0 1 123.19922,571.59961 C 103.77924,538.23964 89.389209,495.66948 79.949219,445.26953 70.639228,395.31958 66.200469,337.59955 66.480469,273.59961 c -0.889999,5.12999 -1.999689,10.47008 -3.179688,15.83008 -3.509996,15.37998 -8.329927,31.0004 -14.169922,42.65039 A 126.58,126.58 0 0 1 30.849609,365.2207 156.9,156.9 0 0 1 2.6601563,393.74023 C 5.2001537,434.36019 14.200016,480.59981 30.5,527.50977 a 535.58,535.58 0 0 0 62.300781,124.62109 c 19.099979,29.70997 42.230189,57.60885 70.660159,81.29883 a 301.57,301.57 0 0 0 102,55.87109 c 44.94995,-15.99998 81.99987,-35.77135 113.83984,-61.61133 31.83997,-25.83997 58.79862,-57.92902 83.30859,-98.20898 23.22998,-40.60996 38.61056,-74.53965 48.81055,-112.59961 10.19999,-38.05996 15.19047,-80.00139 17.73047,-136.86133 A 140.42,140.42 0 0 1 506.4707,361.59961 97.76,97.76 0 0 1 488.67969,336.65039 v 0.0488 a 228.33,228.33 0 0 1 -18.7793,-45.47852 c -2.45,-8.54999 -3.41133,-14.71141 -4.61133,-23.9414 z"
       style="fill:#ffffff;fill-rule:evenodd;fill-opacity:1;stroke:none"
       id="path54"
       inkscape:label="Szoveg_hatter_feher" />
    <path
       class="cls-1"
       d="M95.31,336.85c4.12,184.68,52.66,319,203.94,386.85,157-62.9,204.48-197.2,205.83-394C517.25,364,534.59,385.88,554.45,400c-2.87,199.36-116.52,355.65-255.2,394.83C166,760.13,52.18,570.39,45.42,412.39,71.51,390.23,85.55,367.71,95.31,336.85Z"
       transform="translate(-33.8,-15.4)"
       id="path2"
       inkscape:label="Szoveg_hatter_piros"
       style="stroke:none" />
    <path
       class="cls-8"
       d="M394.41,710.54,413,711.78a24.13,24.13,0,0,0,7.09-.29,12,12,0,0,0,4.34-2l.64.73L412.21,721.4l-.64-.74a3.62,3.62,0,0,0,1.32-1.84,1.43,1.43,0,0,0-.24-1.31,2.51,2.51,0,0,0-.93-.69,10.82,10.82,0,0,0-2.48-.34l-17.36-1.11,7.57,8.71a11.63,11.63,0,0,0,2.62,2.48,2.31,2.31,0,0,0,1.59.13,4.82,4.82,0,0,0,2.23-1.09l.91-.8.64.74-11.52,10-.64-.73,1-.83a3.83,3.83,0,0,0,1.59-3.1q-.07-1-2.19-3.48l-15.19-17.47a12.28,12.28,0,0,0-2.63-2.51,2.52,2.52,0,0,0-1.55-.13,5,5,0,0,0-2.25,1.13l-.95.82-.65-.74,11.53-10,.64.74-.92.8a5.09,5.09,0,0,0-1.41,2,2.23,2.23,0,0,0,0,1.7,11.76,11.76,0,0,0,2,2.84l7.2,8.28c.05-.49.22-2.12.53-4.91q1.22-10.58.88-13.46a3.61,3.61,0,0,0-.68-1.87,1.41,1.41,0,0,0-1.13-.44,2.94,2.94,0,0,0-1.71.89l-.62.53-.65-.74,9.93-8.63.65.74a7.6,7.6,0,0,0-1.39,1.62,11.19,11.19,0,0,0-1,2.37,23.39,23.39,0,0,0-.79,4.25c-.06.52-.23,3-.5,7.61l-.55,7.69Zm17.4-39.83a17.11,17.11,0,0,0-4.81,12,18.14,18.14,0,0,0,6.22,13.74q6.11,5.7,13.38,5.6a17.22,17.22,0,0,0,16.89-18.3,18.89,18.89,0,0,0-6.4-13,18.26,18.26,0,0,0-13.16-5.27,16.25,16.25,0,0,0-12.12,5.23Zm1.07,1.67a9.46,9.46,0,0,0-2.65,8.09q.78,5.65,7,11.5,6.42,6,12.43,6.47a9.27,9.27,0,0,0,7.82-3.12,10.36,10.36,0,0,0,2.8-8.78q-.63-5.09-6.84-10.87Q426.78,669.4,421,669a9.74,9.74,0,0,0-8.11,3.41Zm-4.38-10.56a2.77,2.77,0,0,1,2-.9,2.81,2.81,0,0,1,2.05.78,2.86,2.86,0,0,1-1.86,4.95,2.73,2.73,0,0,1-2.06-.75,2.81,2.81,0,0,1-.9-2,2.78,2.78,0,0,1,.77-2.07Zm-6.37,6.83a2.79,2.79,0,0,1,2-.92,2.75,2.75,0,0,1,2.05.77,2.69,2.69,0,0,1,.9,2,2.83,2.83,0,0,1-2.75,3,2.71,2.71,0,0,1-2.06-.75,2.79,2.79,0,0,1-.91-2,2.72,2.72,0,0,1,.75-2.06ZM443,634.76l11.35,39.48,9.24-11.42a8,8,0,0,0,2.12-5c0-1.56-.88-3.65-2.64-6.27l.67-.58,6.31,7.28L451.64,681l-.76-.61L439.93,641.9l-7.21,8.91a10.15,10.15,0,0,0-2.13,3.6,4.34,4.34,0,0,0,.17,2.65,14.61,14.61,0,0,0,2.64,3.72l-.63.78-6.5-6.21L443,634.76Zm6.08-7.71,5.35-8.25a12.25,12.25,0,0,1,2.36-2.91,4.24,4.24,0,0,1,2.44-.79,12.52,12.52,0,0,1,3.92,1.08l.57-.87-6.8-3.94-15,23.16.82.54.7-1.07a4.08,4.08,0,0,1,2.6-2.08c.7-.09,2,.48,3.9,1.72l19.52,12.67a12.79,12.79,0,0,1,2.75,2.14,2.29,2.29,0,0,1,.43,1.66,5.07,5.07,0,0,1-.8,2.34l-.69,1.07.82.53,15-23.16-5.85-7.48-.58.89a20.29,20.29,0,0,1,2.32,5.5,6.52,6.52,0,0,1-.05,3.12,16,16,0,0,1-2.05,3.93L477.4,642a4.47,4.47,0,0,1-1.34,1.52,1.77,1.77,0,0,1-1.09.18,11.55,11.55,0,0,1-2.54-1.41l-9.91-6.43,4.29-6.6a7.94,7.94,0,0,1,2.26-2.51,3.3,3.3,0,0,1,2.06-.51,13.42,13.42,0,0,1,3.22,1.2l.53-.81-10.46-6.8-.53.82c1.66,1.21,2.58,2.41,2.76,3.62.14.91-.35,2.22-1.46,3.93l-4.29,6.61L449,627.05Zm-5.3-16.83,3.4,11.5-.49.75-6.13-7.29,3.22-5Zm35.54-.34,9.29,4.74c2,1,3.37,1.43,4.09,1.24a3.75,3.75,0,0,0,2.41-2.17l.63-1.23.86.44-7,13.68-.87-.44.61-1.2a3.56,3.56,0,0,0,.15-3.56c-.33-.57-1.4-1.32-3.22-2.24l-20.62-10.51c-2-1-3.37-1.45-4.07-1.27a3.88,3.88,0,0,0-2.42,2.2l-.61,1.2-.88-.45,6-11.7a23.65,23.65,0,0,1,4.32-6.3,10.53,10.53,0,0,1,5.11-2.65,8.55,8.55,0,0,1,5.83.84,9.36,9.36,0,0,1,5,5.81q1.14,3.84-1.26,8.54a23.13,23.13,0,0,1-1.44,2.41c-.56.83-1.22,1.71-2,2.62Zm-1.35-.68c.58-.76,1.08-1.44,1.49-2a15.33,15.33,0,0,0,.95-1.59,6.29,6.29,0,0,0,.26-5.19,7.69,7.69,0,0,0-4-4.27,9.85,9.85,0,0,0-4.28-1.12,6.49,6.49,0,0,0-3.88,1,7.72,7.72,0,0,0-2.69,3.08,16.49,16.49,0,0,0-1.13,3.31l13.28,6.77Zm30.75-24.42-.55,1.17a4.84,4.84,0,0,1-1.59,1.92,2.46,2.46,0,0,1-1.5.52,12,12,0,0,1-3.4-1.2l-21-9.79c-1.95-.91-3.08-1.68-3.41-2.32a3.84,3.84,0,0,1,.18-3.44l.55-1.18-.89-.41L470.59,584l.89.41.54-1.15a5,5,0,0,1,1.6-1.94,2.42,2.42,0,0,1,1.49-.5,12.14,12.14,0,0,1,3.4,1.2l21,9.79c1.94.91,3.09,1.68,3.41,2.3a3.81,3.81,0,0,1-.18,3.47l-.54,1.15.88.41,6.5-13.92-.89-.41Zm-23.12-37.42L497,552l-.36.9a15.86,15.86,0,0,0-5.91-.55,8.77,8.77,0,0,0-4.42,2,9.59,9.59,0,0,0-2.92,3.89,6.41,6.41,0,0,0-.14,4.84,5.06,5.06,0,0,0,2.86,3.09,4.48,4.48,0,0,0,3.19.07q2.46-.78,7.82-5.25a52.76,52.76,0,0,1,6.41-4.8,10.08,10.08,0,0,1,4.2-1.36,8.92,8.92,0,0,1,4.17.62,9.25,9.25,0,0,1,5.32,5.55,11.4,11.4,0,0,1-.3,8.64,18.58,18.58,0,0,1-1.33,2.64,29.85,29.85,0,0,1-2.16,2.78,15.21,15.21,0,0,0-2,2.71,1.37,1.37,0,0,0,0,1.12,3.06,3.06,0,0,0,1.31,1.14l-.37.91L501,576.35l.37-.91a17.27,17.27,0,0,0,6,.44,9,9,0,0,0,4.29-2.1,11.07,11.07,0,0,0,3.13-4.38,7.5,7.5,0,0,0,.34-5.5,5.39,5.39,0,0,0-3.1-3.31,5.63,5.63,0,0,0-2.75-.34,8.14,8.14,0,0,0-3.17,1.16c-.75.44-2.49,1.76-5.24,4a53.89,53.89,0,0,1-6.25,4.52,11.32,11.32,0,0,1-4.24,1.47,8.31,8.31,0,0,1-4.15-.6,8.76,8.76,0,0,1-5-5.23,10.51,10.51,0,0,1,.24-8,14.86,14.86,0,0,1,3.56-5.09,6.19,6.19,0,0,0,1.39-1.69,1.59,1.59,0,0,0,0-1.19,3.33,3.33,0,0,0-1.27-1.27l.36-.91Zm20.66-12.42-3.73-6.76c-2.25-4-3.49-6.18-3.72-6.65a22.69,22.69,0,0,1-1.65-4,11,11,0,0,1-.44-2.55,7.35,7.35,0,0,1,.28-2.11l-.95-.27-3.62,12.65.94.27.23-.79a2.93,2.93,0,0,1,1-1.68,1.37,1.37,0,0,1,1.18-.24,3.51,3.51,0,0,1,1.59,1.19q1.85,2.24,6.59,11.77l2.23,4.41-10.54-3a11.75,11.75,0,0,1-3.26-1.27,2.23,2.23,0,0,1-.91-1.44,5.14,5.14,0,0,1,.08-2.47l.34-1.17-.95-.27-4.2,14.67.94.27.35-1.21a4.88,4.88,0,0,1,1.28-2.17,2.39,2.39,0,0,1,1.36-.73,12.32,12.32,0,0,1,3.57.67l22.26,6.38c2.06.59,3.31,1.16,3.73,1.73a3.81,3.81,0,0,1,.36,3.46l-.35,1.21.94.27,4.21-14.68-.94-.27-.34,1.17a4.81,4.81,0,0,1-1.27,2.13,2.37,2.37,0,0,1-1.4.76,11.73,11.73,0,0,1-3.55-.65l-11.09-3.19,15.16-8.52a10.37,10.37,0,0,1,2.26-1.07,2.57,2.57,0,0,1,1.16.07,1.46,1.46,0,0,1,.92,1,3.68,3.68,0,0,1-.11,2.27l.94.26L531.74,518l-.93-.27a12,12,0,0,1-2.55,4,24,24,0,0,1-5.79,4.11l-16.26,9.09Zm-6.15-43.29a16.25,16.25,0,0,1,7.69-10.73,18.29,18.29,0,0,1,14-2.25,18.81,18.81,0,0,1,12.19,7.86,17.21,17.21,0,0,1-5.05,24.38q-6.2,3.84-14.36,2.1a18.2,18.2,0,0,1-12.41-8.58,17.17,17.17,0,0,1-2.06-12.78Zm1.78.88a9.45,9.45,0,0,0,1.89,8.3q3.58,4.46,12,6.23,8.58,1.83,14-.86a9.24,9.24,0,0,0,5.1-6.7,10.4,10.4,0,0,0-2.12-9q-3.17-4-11.46-5.8-9-1.91-14.16.7a9.75,9.75,0,0,0-5.19,7.1ZM534,448.11a17.75,17.75,0,0,1,4.45,3.39,7.58,7.58,0,0,1,1.71,3.31,18.93,18.93,0,0,1-.2,5.82l-.37,2.59a17.37,17.37,0,0,1-.83,4,1.81,1.81,0,0,1-1,.85,7.38,7.38,0,0,1-3,0L512.46,465a11.46,11.46,0,0,1-3.94-1,3.19,3.19,0,0,1-1.18-1.75,10,10,0,0,1,0-4l-1-.13-2.26,16.06,1,.14.19-1.34a3.89,3.89,0,0,1,1.58-2.87q.93-.61,4.26-.15L534,473.14c2,.29,3.29.65,3.8,1.09a3.59,3.59,0,0,1,1,3.42l-.19,1.34,1,.14,3.86-27.47-9.2-4.39-.31.84Zm.08-26.62-1.2,13.81,5.42,2.91a8.66,8.66,0,0,0,3,1.17,1.8,1.8,0,0,0,1.49-.64,6.88,6.88,0,0,0,1.11-3.29l1,.08-1,11.24-1-.08a6.08,6.08,0,0,0-.78-3,15.82,15.82,0,0,0-4.87-3.42L509,425.15l.08-.92,30.77-9.82a13.51,13.51,0,0,0,4.89-2.32,5.65,5.65,0,0,0,1.5-3.31l1,.09L546,423l-1-.08a5.34,5.34,0,0,0-.47-2.95,1.8,1.8,0,0,0-1.41-.88,10.9,10.9,0,0,0-3.75.74l-5.32,1.71Zm-2,.56-14.95,4.8L531,434.32Z"
       transform="translate(-33.8,-15.4)"
       id="K__Z__PISKOLA"
       inkscape:label="KOZEPISKOLA"
       style="stroke:none" />
    <path
       class="cls-9"
       d="M293.2,744.58l-.39.9a5.79,5.79,0,0,0-3.13,0,11.1,11.1,0,0,0-3.83,2.68l-23.42,23.18-.9-.38-.28-33.67A16.69,16.69,0,0,0,261,734a4.54,4.54,0,0,0-1-1.81,7.44,7.44,0,0,0-2.16-1.56l.38-.91,13.48,5.72-.39.91a6.6,6.6,0,0,0-3.3-.49,2,2,0,0,0-1.29,1.14,12,12,0,0,0-.49,4.27l.19,22.9,15.88-15.78a13.88,13.88,0,0,0,2.81-3.44,2,2,0,0,0-.13-1.65,5.19,5.19,0,0,0-2-1.91l-.39-.26.39-.9,10.17,4.32Zm13.11,21.67,2.17,5.14a11.13,11.13,0,0,1,1.06,3.68,1.79,1.79,0,0,1-.76,1.47,5.32,5.32,0,0,1-2.89.73v1H320v-1a5.64,5.64,0,0,1-3.43-1.21,13.58,13.58,0,0,1-2.73-4.67L301.4,741.6h-.92l-12.61,29.48a15.83,15.83,0,0,1-3,5.15,6.11,6.11,0,0,1-2.9,1v1h11.28v-1a6.78,6.78,0,0,1-3.37-.82,1.82,1.82,0,0,1-.78-1.43,8.77,8.77,0,0,1,.91-3.12l2.42-5.65Zm-.74-2H293.26l6.23-14.48,6.08,14.48Zm1.32-33.52-7.79,9.11h-.9l2.77-9.11Zm34,1.14,4.74,11.24-.78.27q-3.33-4.63-7-5.92a11.39,11.39,0,0,0-7.68.09,11.31,11.31,0,0,0-7.91,10.75,25.74,25.74,0,0,0,1.65,9.86,20.69,20.69,0,0,0,4.22,7.46,11.62,11.62,0,0,0,6.21,3.64,13.42,13.42,0,0,0,7.38-.53,12.24,12.24,0,0,0,5.33-3.42c1.36-1.51,2.57-4,3.62-7.51l.94.23a18.8,18.8,0,0,1-3.66,8.67,15.91,15.91,0,0,1-7.35,4.88q-8.41,2.89-15.19-1.76a19,19,0,0,1-7.22-9.75,20.77,20.77,0,0,1-.94-10.11,17.47,17.47,0,0,1,4-8.73,17.84,17.84,0,0,1,7.9-5.33,16.94,16.94,0,0,1,7.87-.7,4.13,4.13,0,0,0,1.69,0,1.73,1.73,0,0,0,1-.88,4.17,4.17,0,0,0,.29-2.18Z"
       transform="translate(-33.8 -15.4)"
       id="V__C"
       inkscape:label="VAC"
       style="stroke:none" />
    <path
       class="cls-7"
       d="M74.52,436a11.53,11.53,0,0,1-1.63,5.91,7.91,7.91,0,0,1-5.47,3.46,8.86,8.86,0,0,1-5.32-.88,9.55,9.55,0,0,1-4.24-4q-1.57-2.73-2.52-8.7l-2.65-16.7,1-.16.21,1.33a3.61,3.61,0,0,0,1.92,3,8.29,8.29,0,0,0,4,0l22.86-3.62c2.19-.35,3.53-.82,4-1.42a3.88,3.88,0,0,0,.67-3.21l-.21-1.33,1-.15,2.42,15.29a29.84,29.84,0,0,1,.46,7,11.13,11.13,0,0,1-2.38,6.51,8.27,8.27,0,0,1-5.17,2.93,7.76,7.76,0,0,1-5-.86A9.68,9.68,0,0,1,74.52,436Zm-.75-13.9a19.83,19.83,0,0,0,.07,2.25c.07.84.19,1.75.34,2.74a15.61,15.61,0,0,0,1.73,5.6,6.19,6.19,0,0,0,3,2.54,7.14,7.14,0,0,0,3.86.43,6.84,6.84,0,0,0,4.89-3.37q1.8-2.88,1-7.73A17.86,17.86,0,0,0,87.36,420l-13.59,2.15Zm-16.92,2.68a26.14,26.14,0,0,0,.25,6.09c.49,3.15,1.59,5.43,3.27,6.87A6.74,6.74,0,0,0,66,439.39a7.79,7.79,0,0,0,3.79-1.75,7.62,7.62,0,0,0,2.42-4.13,15.89,15.89,0,0,0,.11-6.43c-.17-1.08-.34-2-.49-2.77a12.18,12.18,0,0,0-.48-1.82l-14.51,2.3Zm42.73,44.26a16.23,16.23,0,0,1-2.44,13,18.31,18.31,0,0,1-11.73,8A18.81,18.81,0,0,1,71,488a17.22,17.22,0,0,1-5.73-24.24q4-6.07,12.13-8a18.15,18.15,0,0,1,14.87,2.53,17.12,17.12,0,0,1,7.27,10.71Zm-2-.05a9.5,9.5,0,0,0-5.22-6.72q-5.13-2.52-13.48-.6-8.55,2-12.31,6.69a9.29,9.29,0,0,0-1.79,8.23,10.35,10.35,0,0,0,5.71,7.23q4.58,2.32,12.84.42,9-2.07,12.54-6.62A9.75,9.75,0,0,0,97.6,469ZM80.52,539l-2.8-9.15,12.47-16.5c-.29-.84-.52-1.53-.69-2.08-.06-.21-.13-.45-.2-.71s-.14-.51-.21-.79l-10,3c-2.16.66-3.42,1.31-3.81,1.94A3.79,3.79,0,0,0,75.1,518l.41,1.34-.93.29L70.09,504.9l.94-.29.39,1.29a3.58,3.58,0,0,0,2.36,2.67c.64.19,1.93,0,3.88-.6L99.8,501.2c2.16-.66,3.42-1.31,3.8-1.93a3.89,3.89,0,0,0,.21-3.28l-.39-1.28.94-.29,3.81,12.48a30.4,30.4,0,0,1,1.66,8.29,9.6,9.6,0,0,1-1.58,5.3,8.07,8.07,0,0,1-4.54,3.36,8.35,8.35,0,0,1-6.12-.39,12.14,12.14,0,0,1-5.22-5.37L84.7,528.17a18.38,18.38,0,0,0-3.23,5.54,11.1,11.1,0,0,0,0,5l-.93.28Zm10.17-29.72c.1.33.18.6.24.84s.12.43.16.58q1.5,4.91,4.38,6.74a7.07,7.07,0,0,0,6.17.84,7.4,7.4,0,0,0,4.61-3.6,7.6,7.6,0,0,0,.38-5.94,24.24,24.24,0,0,0-1.7-3.82l-14.24,4.36Zm33.88,41.58A16.2,16.2,0,0,1,124.2,564a18.29,18.29,0,0,1-10.35,9.7,18.83,18.83,0,0,1-14.5.29,17.22,17.22,0,0,1-9.45-23q3-6.63,10.73-9.76a18.16,18.16,0,0,1,15.09.17,17.14,17.14,0,0,1,8.85,9.45Zm-2,.25a9.49,9.49,0,0,0-6.21-5.82q-5.46-1.68-13.4,1.52-8.15,3.29-11.11,8.54a9.25,9.25,0,0,0-.49,8.4A10.39,10.39,0,0,0,98.18,570q4.88,1.57,12.75-1.6,8.5-3.43,11.35-8.49a9.76,9.76,0,0,0,.33-8.8Zm9.31,21.5-.87.47a7.45,7.45,0,0,1,1,4.76,16.58,16.58,0,0,1-1,3.21l-22,11.7c-1.77.94-3,1.38-3.68,1.3a3.66,3.66,0,0,1-2.74-2.23l-.58-1.09-.86.46,5.85,11,.86-.45-.59-1.12a3.94,3.94,0,0,1-.48-3.25c.26-.68,1.37-1.53,3.31-2.57l19.48-10.36-14.38,34.4.45.85,26.66-14.18c1.77-.94,3-1.38,3.68-1.3a3.63,3.63,0,0,1,2.72,2.2l.6,1.12.86-.46-5.85-11-.87.46.58,1.1a4,4,0,0,1,.48,3.25c-.25.68-1.35,1.56-3.3,2.59L123,613.14l13.45-32-4.57-8.59Zm16.47,61.86-3.81,18.23a24.37,24.37,0,0,0-.7,7.07,11.81,11.81,0,0,0,1.39,4.58l-.82.53-9.28-14.29L136,650a3.64,3.64,0,0,0,1.65,1.56,1.43,1.43,0,0,0,1.33-.05,2.56,2.56,0,0,0,.81-.83,10.68,10.68,0,0,0,.68-2.41l3.51-17-9.68,6.29a11.75,11.75,0,0,0-2.82,2.25,2.39,2.39,0,0,0-.35,1.55,4.86,4.86,0,0,0,.77,2.36l.67,1-.82.53-8.32-12.8.82-.53.69,1.06a3.84,3.84,0,0,0,2.85,2c.7,0,2-.52,3.75-1.69l19.42-12.61a11.91,11.91,0,0,0,2.84-2.26,2.41,2.41,0,0,0,.34-1.51,4.92,4.92,0,0,0-.79-2.38l-.69-1.06.82-.54,8.32,12.81-.82.53-.67-1a5.14,5.14,0,0,0-1.81-1.68,2.24,2.24,0,0,0-1.69-.26A11.55,11.55,0,0,0,153.7,625l-9.2,6c.48.12,2.07.51,4.79,1.21q10.29,2.67,13.21,2.73a3.54,3.54,0,0,0,1.93-.4,1.41,1.41,0,0,0,.6-1.06,2.87,2.87,0,0,0-.64-1.82l-.44-.69.82-.54,7.17,11-.83.53a7.34,7.34,0,0,0-1.41-1.59,10.92,10.92,0,0,0-2.21-1.35,24.63,24.63,0,0,0-4.09-1.37c-.51-.13-3-.65-7.46-1.55l-7.55-1.62Zm25.72,48-2.55,5a10.9,10.9,0,0,1-2.13,3.18,1.81,1.81,0,0,1-1.62.37,5.39,5.39,0,0,1-2.41-1.75l-.75.62,9.09,10.83.75-.62a5.63,5.63,0,0,1-1.28-3.4,13.36,13.36,0,0,1,1.82-5.09l14.81-28.71-.59-.71-30.69,9.3a16.23,16.23,0,0,1-5.87,1,6.2,6.2,0,0,1-2.66-1.56l-.74.63,7.25,8.64.74-.63a6.83,6.83,0,0,1-1.54-3.1,1.82,1.82,0,0,1,.6-1.52,9,9,0,0,1,3-1.31l5.89-1.78,8.91,10.63Zm1-1.83-7.91-9.43,15.09-4.53-7.18,14Zm44.24,14.42,9.14,8.52-.67.72-.5-.47a5.56,5.56,0,0,0-1.88-.93,8.14,8.14,0,0,0-2.94-.36,23.63,23.63,0,0,0-4.48.89l-15.6,4.06-6.13,6.57c-1.5,1.61-2.26,2.78-2.27,3.52a4,4,0,0,0,1.56,3l.85.79-.67.72-11.12-10.38.66-.71.93.86a3.64,3.64,0,0,0,3.3,1.19c.66-.14,1.68-1,3.05-2.42l5.78-6.21,3.05-17.68a31.91,31.91,0,0,0,.52-4,9.15,9.15,0,0,0-.79-2.92,3.51,3.51,0,0,0-.95-1.23l.67-.72,11.21,10.45-.67.72-.58-.54a4.58,4.58,0,0,0-2.06-1.14,1.89,1.89,0,0,0-2,.57,8.16,8.16,0,0,0-1.16,3.61L203.26,705l12.67-3.29a8,8,0,0,0,3.68-1.62,2.35,2.35,0,0,0,.63-1.23,2.68,2.68,0,0,0-.18-1.41,5.31,5.31,0,0,0-1.35-1.7Z"
       transform="translate(-33.8,-15.4)"
       id="BORONKAY"
       style="stroke:none" />
    <path
       class="cls-5"
       d="M94.09,336.46l2.51.36c2.06,92.17,15.19,171.74,46.65,236.7,31.36,64.72,81,115,156,148.78C377.17,691,427.92,642,459.37,576.37c31.58-65.85,43.75-148.43,44.42-246.62l2.5-.43c6,17,13.36,30.94,21.63,42.35a117.79,117.79,0,0,0,27.28,27.25l.54,1.06c-1.4,97.31-29.13,184.39-73.27,252.68h0C435.9,724.71,371.07,775.85,299.6,796h-.67c-65-16.92-125.39-70.51-171.06-139.32C79.52,583.89,47.62,494,44.14,412.44l.45-1c12.95-11,22.9-22.07,30.82-34.22s13.83-25.39,18.68-40.72Zm.13,7.74a159,159,0,0,1-16.65,34.38c-8,12.22-17.93,23.35-30.83,34.37C50.34,493.85,82,583,130,655.31c45.26,68.2,105,121.31,169.22,138.16C370,773.38,434.15,722.68,480.3,651.27h0c43.79-67.75,71.34-154.12,72.85-250.65a120.49,120.49,0,0,1-27.31-27.44,163.77,163.77,0,0,1-19.54-36.49c-1.2,95.52-13.6,176.12-44.6,240.78-31.8,66.33-83.14,115.84-162,147.42l-1,0C222.79,690.79,172.63,640,140.94,574.63,110.13,511,96.8,433.61,94.22,344.2Z"
       transform="translate(-33.8,-15.4)"
       id="path8"
       inkscape:label="Szoveg_doboz"
       style="stroke:none" />
    <path
       d="m 67.339844,226.23047 -0.779297,22 c -0.780359,13.67954 -2.663424,27.2738 -5.63086,40.65039 -3.489996,15.20998 -8.240005,30.63939 -14,42.10937 l -0.06055,0.14063 c -4.33062,11.69535 -10.398734,22.67142 -18,32.55859 -8.137854,10.67605 -17.634786,20.24389 -28.25000038,28.46094 l -0.5390625,0.41992 v 0.66992 C 2.4900757,434.20019 11.560095,480.90942 28.080078,528.35937 c 15.310056,44.29501 36.345055,86.39849 62.570313,125.24024 19.249979,29.87997 42.549009,58.0008 71.208979,81.80078 30.41501,25.36387 65.48701,44.54918 103.25,56.48047 h 0.81055 c 45.38996,-16.07998 82.79003,-36.07143 115,-62.19141 32.20997,-26.11997 59.22065,-58.33918 83.89063,-98.86914 23.38997,-40.79996 38.77907,-74.93074 49.03906,-113.2207 10.25999,-38.28996 15.72977,-81.32982 18.25976,-138.75977 l -2.20898,0.50977 2.45898,-0.79883 c -7.98649,-5.42925 -15.36268,-11.70595 -22,-18.7207 -6.79999,-6.96999 -12.2693,-14.90946 -17.52929,-23.68946 -7.99829,-15.10786 -14.42203,-30.99805 -19.16992,-47.41992 -4.33,-14.87998 -8.11,-45.18709 -9,-61.43708 -0.97923,-0.0783 -1.65128,0.0843 -2.5156,-0.18023 l -0.94534,96.94736 h 0.23047 c -1.13,50.76995 -5.67056,94.78004 -13.06055,134 -7.18999,39.19996 -18.66908,73.66019 -34.53906,105.41016 h -0.19922 c -16.81998,31.65997 -37.25003,58.83854 -62.25,81.22851 -25.21715,22.49385 -54.32298,40.20316 -85.89063,52.25977 -29.85997,-13.55999 -56.95002,-30.87963 -80.75,-52.34961 C 161.18139,623.1847 141.23173,598.10929 125.66016,570.33984 106.34018,537.23988 92.040147,494.94003 82.660156,444.83008 73.110166,393.80013 68.650469,334.67032 69.230469,268.90039 L 69.75,248.23047 c 0.14,-2.52 0.769531,-20 0.769531,-22 z M 465.28906,267.2793 c 1.2,9.22999 2.16133,15.39141 4.61133,23.9414 4.60335,15.79169 10.89966,31.0397 18.7793,45.47852 v -0.0488 c 4.58198,9.19991 10.58605,17.61973 17.79101,24.94922 6.89881,6.91191 14.49984,13.08529 22.67969,18.41992 -2.54,56.85994 -7.53048,98.80137 -17.73047,136.86133 -10.19999,38.05996 -25.58057,71.98965 -48.81055,112.59961 -24.50997,40.27996 -51.46862,72.36901 -83.30859,98.20898 -31.83997,25.83998 -68.88989,45.61135 -113.83984,61.61133 -37.30305,-11.82919 -71.94715,-30.8057 -102,-55.87109 C 135.03097,709.73971 111.90076,681.84083 92.800781,652.13086 66.696219,613.48038 45.752119,571.58562 30.5,527.50977 14.200016,480.59981 5.2001537,434.36019 2.6601563,393.74023 13.237785,385.47855 22.711624,375.89378 30.849609,365.2207 c 7.720199,-10.06826 13.882823,-21.23999 18.28125,-33.14062 5.839995,-11.64999 10.659926,-27.27041 14.169922,-42.65039 1.179999,-5.36 2.289689,-10.70009 3.179688,-15.83008 -0.28,63.99994 4.158759,121.71997 13.46875,171.66992 9.43999,50.39995 23.830021,92.97011 43.250001,126.33008 15.77353,28.03289 35.97784,53.32966 59.83008,74.91016 24.12997,21.75997 51.60042,39.30001 81.90039,53 l 0.49023,0.2207 0.5,-0.19141 c 32.05467,-12.17486 61.6086,-30.11732 87.19922,-52.93945 25.21998,-22.63998 46.41994,-50.00003 63.41992,-82 16.18999,-31.99997 27.72118,-66.62988 34.95117,-106.08984 7.23,-39.45996 11.76907,-83.54904 12.28907,-134.45899 h 0.41992 z"
       style="fill:#1a1a18;fill-rule:evenodd;stroke:none"
       id="path53"
       inkscape:label="Szoveg_doboz_kulso"
       sodipodi:nodetypes="ccccccccccccccscsccccccccccccccccccccccccccccscscccccccccccccccccsccc" />
  </g>
  <g
     id="Konyv"
     inkscape:label="Konyv"
     style="display:inline">
    <path
       class="cls-4"
       d="m 226,497.32 0.8,8.08 h -7.67 l 1.21,8.89 h -7.67 L 231.25,633 h 61.39 q 10.69,8.88 19.79,0 l 57.35,0.4 19.38,-119.14 -8.07,-0.41 1.21,-8.48 H 375 l 0.81,-7.67 c -25.52,-0.68 -50.15,2.15 -73.51,10.09 -20.97,-6.19 -46.69,-9.63 -76.3,-10.47 z"
       id="path5"
       transform="translate(-33.8,-15.4)"
       inkscape:label="Kitoltes"
       style="stroke:none" />
    <polygon
       class="cls-12"
       points="352.43,500.94 347.97,500.68 345.78,500.55 346.04,496.17 348.23,496.3 355.09,496.7 357.12,499.23 338.14,618.38 335.98,620.23 276.84,620.23 276.84,615.84 279.04,615.84 334.12,615.84 "
       id="polygon27"
       inkscape:label="Lapszel_jobbhatso"
       style="stroke:none" />
    <polygon
       class="cls-12"
       points="195.29,618.38 176.31,498.43 178.47,495.89 187.12,495.89 187.12,500.27 181.03,500.27 199.31,615.83 255.8,615.44 257.99,615.42 258.01,619.81 255.82,619.82 197.46,620.23 "
       id="polygon26"
       inkscape:label="Lapszel_balhatso"
       style="stroke:none" />
    <polygon
       class="cls-12"
       points="204.6,609.37 260.25,609.06 262.44,609.04 262.46,613.43 260.27,613.44 202.71,613.76 200.53,611.87 183.17,489.5 185.33,487.01 194.64,487.01 194.64,491.39 192.45,491.39 187.85,491.39 "
       id="polygon24"
       inkscape:label="Lapszel_jobbkozep"
       style="stroke:none" />
    <polygon
       class="cls-12"
       points="346.36,491.79 339.04,491.79 339.04,487.41 348.91,487.41 351.06,489.94 332.08,611.5 329.92,613.36 271.59,613.36 271.59,608.98 273.78,608.98 328.06,608.98 "
       id="polygon25"
       inkscape:label="Lapszel_Balkozep"
       style="stroke:none" />
    <path
       class="cls-12"
       d="m 301.58,509.36 -1.49,0.07 a 201.58,201.58 0 0 0 -34.26,-7.37 304.32,304.32 0 0 0 -37.74,-2.54 l 15.57,118 H 355.77 L 373.3,499.9 a 318.7,318.7 0 0 0 -41.23,2.18 c -11.9,1.52 -22.3,3.89 -30.49,7.28 z m -0.92,-4.34 c 8.43,-3.38 18.94,-5.75 30.86,-7.27 a 328.68,328.68 0 0 1 44.33,-2.21 l 2.15,2.46 -18.17,122 -2.17,1.88 H 241.75 l -2.17,-1.88 -16.15,-122.4 2.16,-2.47 a 310.46,310.46 0 0 1 40.81,2.6 207.58,207.58 0 0 1 34.26,7.27 z"
       id="path22"
       transform="translate(-33.8,-15.4)"
       inkscape:label="Lapszel_felso"
       style="stroke:none" />
    <path
       class="cls-13"
       d="M 301,617.91 300.68,506.77 Z"
       id="path27"
       transform="translate(-33.8,-15.4)"
       inkscape:label="Gerinc" />
    <path
       class="cls-12"
       d="m 300.61,623.69 -7.4,9.11 a 12.18,12.18 0 0 0 15.11,0 l -7.71,-9.14 z m -1.73,-4.81 h 3.37 l 10.9,12.92 -0.26,3.1 q -6,4.95 -12.11,5 -6.11,0.05 -12.1,-5 l -0.3,-3.06 z"
       id="path24"
       inkscape:label="Gerinc_Alul"
       transform="translate(-33.8,-15.4)"
       style="stroke:none" />
  </g>
  <g
     id="g6"
     inkscape:label="Kar"
     style="stroke:none">
    <path
       class="cls-10"
       d="m 479.92,360 q 0.22,6.08 -4.34,7.32 l -23.94,1.24 -92.94,72.04 c -4.09,4.24 1.26,12.89 -5,17.35 -6.79,5.18 -24.27,6.11 -39.32,18.42 a 19.3,19.3 0 0 1 -18.75,0 l -22.1,-23.44 c -2.1,-2.62 -7,2 -11.87,-2.73 -5.35,-3.74 -0.21,-10.27 -2.14,-13.16 l -56.74,-56.63 c -6.28,3.49 -10.06,-1.37 -8.28,-8.52 l -9.28,-8.51 c -2,-2.27 -9.09,-0.14 -14.64,-5.36 -3.95,-2.78 -2.45,-8.7 -1,-11 -4.24,-7.37 -1.6,-12 2.2,-15.31 q -1.33,-14.4 5.36,-18.75 l 5.36,-4.69 c -5.81,-8 40,-24.11 36.83,30.14 11.39,-3.8 8,7.14 12.06,10.71 l 52.24,45.55 c 10.27,-9.16 13.84,-1.57 14.73,8.7 l 7.37,0.67 c 2.9,-7.59 7.14,-17.86 12.72,-18.75 l 34.83,-28.8 c 10,-11.83 20.09,-23 32.15,-31.48 6.25,-8.48 13.17,-16.29 20.76,-21.43 0.89,-13.84 7.14,-33 12.72,-29.47 30.72,22.1 49.47,54.89 61.01,85.89 z"
       transform="translate(-33.8,-15.4)"
       id="path12"
       style="display:inline;stroke:none"
       inkscape:label="Kar_vonal" />
    <g
       id="g2"
       inkscape:label="Nyilak"
       style="stroke:none">
      <g
         id="g9"
         inkscape:label="Nyil_3"
         style="stroke:none">
        <polygon
           class="cls-10"
           points="96.99,379.15 97.92,395.5 120.27,372.42 121.81,359.92 117.64,354.69 104.97,354.14 82.34,376.77 "
           id="polygon19"
           style="display:inline;stroke:none" />
        <polygon
           class="cls-14"
           points="107.02 358.38 90.7 374 96.06 374.94 113.78 358.62 107.02 358.38"
           id="polygon48"
           style="stroke:none" />
        <polygon
           class="cls-14"
           points="117.88 363.33 100.63 381.28 101.09 387.11 117.41 370.79 117.88 363.33"
           id="polygon49"
           style="stroke:none" />
        <polygon
           class="cls-10"
           points="121.64,359.92 139.04,344.13 134.42,339.21 117.56,354.88 "
           id="polygon18"
           style="display:inline;stroke:none" />
        <polygon
           class="cls-10"
           points="190.59 285.52 180.56 295.28 183.47 301.4 194.96 289.73 190.59 285.52"
           id="polygon14"
           style="stroke:none" />
        <polygon
           class="cls-10"
           points="219.25 264.06 184.94 279.71 201.19 296.56 219.25 264.06"
           id="polygon13"
           style="stroke:none" />
        <polygon
           class="cls-14"
           points="210.22 272.79 193.97 281.51 200.59 287.83 210.22 272.79"
           id="polygon47"
           style="stroke:none" />
      </g>
      <g
         id="g8"
         inkscape:label="Nyil_2"
         style="stroke:none">
        <polygon
           class="cls-10"
           points="131.44 368.33 119.38 371.72 104.79 400.21 119.46 397.97 125.31 412.09 139.55 384.42 136.81 371.1 131.44 368.33"
           id="polygon20"
           style="stroke:none" />
        <polygon
           class="cls-10"
           points="131.74,368.49 136.93,370.98 147.66,346.78 142.11,345.75 "
           id="polygon17"
           style="display:inline;stroke:none"
           transform="matrix(1.0790756,0,0,1.0375102,-11.168069,-13.278526)" />
        <polygon
           class="cls-14"
           points="128.82 374.37 121.42 376.65 111.83 394.83 118.55 393.27 128.82 374.37"
           id="polygon50"
           style="stroke:none" />
        <polygon
           class="cls-14"
           points="125.99,402.52 135.14,384.57 133.36,376.95 124.04,396.09 "
           id="polygon51"
           style="display:inline;stroke:none" />
        <polygon
           class="cls-10"
           points="204.81 228.55 172.6 259.85 181.03 265.26 169.59 286.63 175.01 289.34 186.15 267.97 194.57 272.79 204.81 228.55"
           id="polygon12"
           style="stroke:none" />
        <polygon
           class="cls-14"
           points="197.28 242.69 183.44 258.64 191.26 263.46 197.28 242.69"
           id="polygon46"
           style="stroke:none" />
      </g>
      <g
         id="g7"
         inkscape:label="Nyil_1"
         style="stroke:none">
        <polygon
           class="cls-10"
           points="147.67,406.67 158.68,418.04 160.66,384.33 153.05,375.39 147.49,374.96 137.91,383.75 134.53,416.3 "
           id="polygon21"
           style="display:inline;stroke:none" />
        <polygon
           class="cls-14"
           points="146.94 380.78 141.23 386.39 139.04 408.01 144.93 403.44 146.94 380.78"
           id="polygon52"
           style="stroke:none" />
        <polygon
           class="cls-14"
           points="152.43 380.88 150.46 404.09 155.41 409 157.22 385.9 152.43 380.88"
           id="polygon53"
           style="stroke:none" />
        <polygon
           class="cls-10"
           points="152.86,376.4 146.83,375.46 149.49,347.05 155.27,351.4 "
           id="polygon16"
           style="stroke:none"
           transform="matrix(1,0,0,1.0286095,0,-10.768622)" />
        <polygon
           class="cls-10"
           points="164.78 235.17 149.43 268.88 157.56 270.08 156.35 285.43 161.77 284.82 163.27 270.38 170.8 271.58 164.78 235.17"
           id="polygon15"
           style="stroke:none" />
        <polygon
           class="cls-14"
           points="162.67 250.22 156.95 264.36 164.18 265.56 162.67 250.22"
           id="polygon45"
           style="stroke:none" />
      </g>
    </g>
    <g
       id="g3"
       inkscape:label="Kez"
       style="stroke:none">
      <path
         class="cls-14"
         d="M194.83,331.34c-4.28,3-14.09-16-9.7-18.18C189.79,311.3,200.55,328.87,194.83,331.34Z"
         transform="translate(-33.8 -15.4)"
         id="path28"
         style="stroke:none" />
      <path
         class="cls-14"
         d="M180.72,319.94c1.37,8.18,6.57,12.33,11,15.25,1.66,1.3.94,3.93-1.8,3.88-4.68-.32-15.23-4.91-13.71-16.09C176.62,319.63,179.92,316,180.72,319.94Z"
         transform="translate(-33.8 -15.4)"
         id="path29"
         style="stroke:none" />
      <path
         class="cls-14"
         d="M177.05,336.13c4.43,4.34,8.28,5.8,12.8,7.55,4.84,2.23,1.47,6.75-2.67,6.69-4.24-.38-10.77-3.06-15.29-6.5C168.4,340.33,172.85,332.54,177.05,336.13Z"
         transform="translate(-33.8 -15.4)"
         id="path30"
         style="stroke:none" />
      <path
         class="cls-14"
         d="M182.3,357.54c3.25-3.7-8.21-9.78-10.12-6.31C169.88,355.78,179.82,360.34,182.3,357.54Z"
         transform="translate(-33.8 -15.4)"
         id="path31"
         style="stroke:none" />
      <path
         class="cls-14"
         d="M188.82,309.24c1.38,4.7,4.31,1.75,7.31,5.17,2.76,3.77,4.45,6.5,5.09,10.92-.35,5.28-5.16,8.2-2.74,15.83,1.21,7.28-6.56,10.7-7.92,15.41-1.57,4.78,4.57,9.35,6.85,6.64,11.49-11.13,16.76-15,18.41-37.24C215.19,309.18,188.72,295.75,188.82,309.24Z"
         transform="translate(-33.8 -15.4)"
         id="path32"
         style="stroke:none" />
      <path
         class="cls-14"
         d="M225.45,349.08c1.71-4.71-3-11.55-6.64-5.78-6.27,10.35-4.42,8.49-12.84,16.91-3.57,3.5,1.86,8.92,6.42,5.56C220.74,357.93,220.31,360.57,225.45,349.08Z"
         transform="translate(-33.8,-15.4)"
         id="path33"
         style="stroke:none" />
      <path
         class="cls-14"
         d="M206.51,371.89,201.84,377c-3.4,3.27-6.88-1.24-4-6.24l3.8-4.4C202.64,368.7,205,371.26,206.51,371.89Z"
         transform="translate(-33.8,-15.4)"
         id="path34"
         style="stroke:none" />
    </g>
    <g
       id="g4"
       inkscape:label="Alkar"
       style="stroke:none">
      <path
         class="cls-14"
         d="M225.87,355.72c2.14-4.07,4.07-3.86,7.49,0L279,396.38c2.21,2.35,3.14,5.13,2.14,7.7l-7.71,14.77c-2,3.35-5.27,6.28-8.13,2.78L218,373.05c-1.43-2.57-1.36-6.21,1.07-8.35Z"
         transform="translate(-33.8 -15.4)"
         id="path35"
         style="stroke:none" />
      <path
         class="cls-14"
         d="M209.82,375.62c1.64-1.84,3.28-1.86,4.93-.64l48.58,51.57.21,3.21-2.35,3L208.11,381a1.89,1.89,0,0,1-.21-2.78Z"
         transform="translate(-33.8,-15.4)"
         id="path36"
         style="stroke:none" />
      <path
         class="cls-14"
         d="M288.79,397.66c2.79-4.42,5.78-.93,6.21,1.5,1.5,5.21,1.71,9.56-.21,12.63-6.64,12.84-12.84,23.75-22.26,34.67-4.64,4.85-12.06.28-9.42-5.35A380.57,380.57,0,0,0,288.79,397.66Z"
         transform="translate(-33.8,-15.4)"
         id="path37"
         style="stroke:none" />
      <path
         class="cls-14"
         d="M296.33,417.49A183.49,183.49,0,0,1,279.72,444c-2.59,5.16-1.11,8.47,2.23,10.93,2.5,2.5,5.81,2.37,2.64-1.62-1.83-8,.4-10.46,4.25-6.88L297.35,458q3.54,4.75-1,6.28c-4.65.14-2.56,2.29.21,3.44q5.86,4,6.07-3.24c-2.36-15.19.14-28.76-1.62-45.57C300.45,414.18,298.7,413.51,296.33,417.49Z"
         transform="translate(-33.8,-15.4)"
         id="path38"
         style="stroke:none" />
    </g>
    <g
       id="g5"
       inkscape:label="Felkar"
       style="stroke:none">
      <path
         class="cls-14"
         d="M304.44,419.11c1.55,16.54.67,32.27,2.22,48.41.34,3.24,2.84,4.66,5.88,3A90.14,90.14,0,0,0,328.34,458q2.42-1.56,0-5.55c-6.08-8.47-12.15-19.47-18.22-35C306.87,413.44,304.57,414.39,304.44,419.11Z"
         transform="translate(-33.8 -15.4)"
         id="path39"
         style="stroke:none" />
      <path
         class="cls-14"
         d="M318.61,390c-2.16-3.85-10.8,11.95-9.11,15.39,8,19.92,16.07,34.5,27.34,47.4,11,6.68,19.45-1.83,14-8.71C338.25,429.66,327.4,411.87,318.61,390Z"
         transform="translate(-33.8 -15.4)"
         id="path40"
         style="stroke:none" />
      <path
         class="cls-14"
         d="M345.74,429.63c-1.4-2.81-.4-5.62,3-4.82,5.72.51,60.49-43.83,88.18-66.81,2.82-2.9.92-13.45,5.72-8.72,3.11,5.71,9.23,12,3,16.25l-90,68.92C353.16,437.25,349.85,435.05,345.74,429.63Z"
         transform="translate(-33.8 -15.4)"
         id="path41"
         style="stroke:none" />
      <path
         class="cls-14"
         d="M330.84,383.79c-2.88,3.42-8.63.72-7,5.93a178.9,178.9,0,0,0,14.37,28.74q1.62,4.57,11.14-1.62c21.83-15.48,20.43-21.7,11.85-44.9-3.29-9.52-8.2-8.8-13.65-2.7Z"
         transform="translate(-33.8 -15.4)"
         id="path42"
         style="stroke:none" />
      <path
         class="cls-14"
         d="M379.33,337.09c-5,4.67-12.09,17.61-15.09,17.25-3.35-1.2-6.34,2.51-2,6.82,6,9.21,9,18.94,10.6,29.1q-.11,10.14,9.16,1.62c26.46-24.64,25.2-33,7.18-55C386,333.08,383.22,332.78,379.33,337.09Z"
         transform="translate(-33.8 -15.4)"
         id="path43"
         style="stroke:none" />
      <path
         class="cls-14"
         d="M395.86,322.72c2.75,1.8,8.38-6.82,12.57-10.23,2.21-4.19,4.43-3.84,7.72.18,22.23,21.32,17.83,29.56-3.23,47.06q-5.21,5.56-6.11-1.08a71.72,71.72,0,0,0-14.91-28.74C387.83,325.24,391.49,320.69,395.86,322.72Z"
         transform="translate(-33.8 -15.4)"
         id="path44"
         style="stroke:none" />
      <path
         class="cls-14"
         d="M416.16,283.67c2-4.21,3.77-5.28,5.42-4.22,1.13.66,1,2.71,0,5.72l-2.71,9.63c-.8,4.72,3.21,5.52,4.82,1.51l2.1-7.53c1.81-2.4,3.62-1.8,5.42,0,17.35,18.4,31.8,40.8,42.74,68q2.85,5.26-1.51,6.92c-5.72,1.11-15.95.1-17.45-2.41-11.54-21.45-23-39.53-40.93-60.19C410.85,296.21,412.75,290.69,416.16,283.67Z"
         transform="translate(-33.8 -15.4)"
         id="path45"
         style="stroke:none" />
    </g>
  </g>
  <metadata
     id="metadata53">
    <rdf:RDF>
      <cc:Work
         rdf:about="">
        <dc:title>cimer 2005 11 19</dc:title>
      </cc:Work>
    </rdf:RDF>
  </metadata>
</svg>
