<?xml version="1.0" encoding="UTF-8" standalone="no"?>
<!DOCTYPE svg PUBLIC "-//W3C//DTD SVG 1.1//EN"
 "http://www.w3.org/Graphics/SVG/1.1/DTD/svg11.dtd">
<!-- Generated by graphviz version 2.43.0 (0)
 -->
<!-- Title: G Pages: 1 -->
<svg width="1839pt" height="188pt"
 viewBox="0.00 0.00 1838.84 188.00" xmlns="http://www.w3.org/2000/svg" xmlns:xlink="http://www.w3.org/1999/xlink">
<g id="graph0" class="graph" transform="scale(1 1) rotate(0) translate(4 184)">
<title>G</title>
<polygon fill="white" stroke="transparent" points="-4,4 -4,-184 1834.84,-184 1834.84,4 -4,4"/>
<!-- DB -->
<g id="node1" class="node">
<title>DB</title>
<ellipse fill="none" stroke="black" cx="882.94" cy="-18" rx="27" ry="18"/>
<text text-anchor="middle" x="882.94" y="-14.3" font-family="Times,serif" font-size="14.00">DB</text>
</g>
<!-- AuthenticationDB -->
<g id="node2" class="node">
<title>AuthenticationDB</title>
<ellipse fill="none" stroke="black" cx="92.94" cy="-90" rx="92.88" ry="18"/>
<text text-anchor="middle" x="92.94" y="-86.3" font-family="Times,serif" font-size="14.00">AuthenticationDB</text>
</g>
<!-- DB&#45;&gt;AuthenticationDB -->
<g id="edge1" class="edge">
<title>DB&#45;&gt;AuthenticationDB</title>
<path fill="none" stroke="black" d="M855.97,-20.22C763.56,-24.58 451.22,-40.83 194.94,-72 186.33,-73.05 177.34,-74.3 168.41,-75.66"/>
<polygon fill="none" stroke="black" points="167.73,-72.22 158.39,-77.21 168.81,-79.14 167.73,-72.22"/>
</g>
<!-- AuthorizationDB -->
<g id="node4" class="node">
<title>AuthorizationDB</title>
<ellipse fill="none" stroke="black" cx="291.94" cy="-90" rx="87.99" ry="18"/>
<text text-anchor="middle" x="291.94" y="-86.3" font-family="Times,serif" font-size="14.00">AuthorizationDB</text>
</g>
<!-- DB&#45;&gt;AuthorizationDB -->
<g id="edge3" class="edge">
<title>DB&#45;&gt;AuthorizationDB</title>
<path fill="none" stroke="black" d="M856.3,-21.2C781.98,-27.49 566.14,-46.71 387.94,-72 380.28,-73.09 372.3,-74.33 364.35,-75.63"/>
<polygon fill="none" stroke="black" points="363.61,-72.21 354.33,-77.31 364.77,-79.11 363.61,-72.21"/>
</g>
<!-- ExportDB -->
<g id="node5" class="node">
<title>ExportDB</title>
<ellipse fill="none" stroke="black" cx="453.94" cy="-90" rx="56.59" ry="18"/>
<text text-anchor="middle" x="453.94" y="-86.3" font-family="Times,serif" font-size="14.00">ExportDB</text>
</g>
<!-- DB&#45;&gt;ExportDB -->
<g id="edge5" class="edge">
<title>DB&#45;&gt;ExportDB</title>
<path fill="none" stroke="black" d="M856.28,-21.85C795.87,-28.54 644.11,-46.6 518.94,-72 514.33,-72.94 509.55,-74 504.78,-75.13"/>
<polygon fill="none" stroke="black" points="503.92,-71.73 495.04,-77.51 505.59,-78.53 503.92,-71.73"/>
</g>
<!-- ImportDB -->
<g id="node6" class="node">
<title>ImportDB</title>
<ellipse fill="none" stroke="black" cx="584.94" cy="-90" rx="56.59" ry="18"/>
<text text-anchor="middle" x="584.94" y="-86.3" font-family="Times,serif" font-size="14.00">ImportDB</text>
</g>
<!-- DB&#45;&gt;ImportDB -->
<g id="edge7" class="edge">
<title>DB&#45;&gt;ImportDB</title>
<path fill="none" stroke="black" d="M857.48,-24.58C814.73,-33.99 725.82,-53.81 650.94,-72 646.37,-73.11 641.62,-74.29 636.87,-75.48"/>
<polygon fill="none" stroke="black" points="635.98,-72.1 627.15,-77.94 637.7,-78.88 635.98,-72.1"/>
</g>
<!-- ItemsDB -->
<g id="node7" class="node">
<title>ItemsDB</title>
<ellipse fill="none" stroke="black" cx="710.94" cy="-90" rx="51.19" ry="18"/>
<text text-anchor="middle" x="710.94" y="-86.3" font-family="Times,serif" font-size="14.00">ItemsDB</text>
</g>
<!-- DB&#45;&gt;ItemsDB -->
<g id="edge9" class="edge">
<title>DB&#45;&gt;ItemsDB</title>
<path fill="none" stroke="black" d="M860.46,-28.15C833.19,-39.25 786.68,-58.18 752.75,-71.98"/>
<polygon fill="none" stroke="black" points="751.05,-68.9 743.11,-75.91 753.69,-75.38 751.05,-68.9"/>
</g>
<!-- UnitDB -->
<g id="node8" class="node">
<title>UnitDB</title>
<ellipse fill="none" stroke="black" cx="825.94" cy="-90" rx="45.49" ry="18"/>
<text text-anchor="middle" x="825.94" y="-86.3" font-family="Times,serif" font-size="14.00">UnitDB</text>
</g>
<!-- DB&#45;&gt;UnitDB -->
<g id="edge11" class="edge">
<title>DB&#45;&gt;UnitDB</title>
<path fill="none" stroke="black" d="M870.57,-34.19C863.34,-43.07 854.04,-54.5 845.8,-64.61"/>
<polygon fill="none" stroke="black" points="843.08,-62.41 839.48,-72.37 848.51,-66.83 843.08,-62.41"/>
</g>
<!-- UsersDB -->
<g id="node9" class="node">
<title>UsersDB</title>
<ellipse fill="none" stroke="black" cx="940.94" cy="-90" rx="51.99" ry="18"/>
<text text-anchor="middle" x="940.94" y="-86.3" font-family="Times,serif" font-size="14.00">UsersDB</text>
</g>
<!-- DB&#45;&gt;UsersDB -->
<g id="edge13" class="edge">
<title>DB&#45;&gt;UsersDB</title>
<path fill="none" stroke="black" d="M895.53,-34.19C902.89,-43.07 912.35,-54.5 920.73,-64.61"/>
<polygon fill="none" stroke="black" points="918.09,-66.9 927.16,-72.37 923.48,-62.44 918.09,-66.9"/>
</g>
<!-- OperationsDB -->
<g id="node10" class="node">
<title>OperationsDB</title>
<ellipse fill="none" stroke="black" cx="1086.94" cy="-90" rx="76.09" ry="18"/>
<text text-anchor="middle" x="1086.94" y="-86.3" font-family="Times,serif" font-size="14.00">OperationsDB</text>
</g>
<!-- DB&#45;&gt;OperationsDB -->
<g id="edge15" class="edge">
<title>DB&#45;&gt;OperationsDB</title>
<path fill="none" stroke="black" d="M906.34,-27.03C937.74,-37.8 994.33,-57.22 1035.82,-71.46"/>
<polygon fill="none" stroke="black" points="1034.9,-74.84 1045.49,-74.78 1037.17,-68.22 1034.9,-74.84"/>
</g>
<!-- WarehouseDB -->
<g id="node11" class="node">
<title>WarehouseDB</title>
<ellipse fill="none" stroke="black" cx="1256.94" cy="-90" rx="76.09" ry="18"/>
<text text-anchor="middle" x="1256.94" y="-86.3" font-family="Times,serif" font-size="14.00">WarehouseDB</text>
</g>
<!-- DB&#45;&gt;WarehouseDB -->
<g id="edge17" class="edge">
<title>DB&#45;&gt;WarehouseDB</title>
<path fill="none" stroke="black" d="M908.87,-23.61C959.5,-32.65 1075,-53.42 1171.94,-72 1178.15,-73.19 1184.61,-74.45 1191.07,-75.72"/>
<polygon fill="none" stroke="black" points="1190.7,-79.21 1201.19,-77.72 1192.05,-72.34 1190.7,-79.21"/>
</g>
<!-- StorageDB -->
<g id="node12" class="node">
<title>StorageDB</title>
<ellipse fill="none" stroke="black" cx="1412.94" cy="-90" rx="61.99" ry="18"/>
<text text-anchor="middle" x="1412.94" y="-86.3" font-family="Times,serif" font-size="14.00">StorageDB</text>
</g>
<!-- DB&#45;&gt;StorageDB -->
<g id="edge19" class="edge">
<title>DB&#45;&gt;StorageDB</title>
<path fill="none" stroke="black" d="M909.75,-20.96C980.68,-26.4 1179.02,-43.2 1341.94,-72 1347.32,-72.95 1352.91,-74.07 1358.47,-75.26"/>
<polygon fill="none" stroke="black" points="1357.9,-78.72 1368.42,-77.48 1359.42,-71.88 1357.9,-78.72"/>
</g>
<!-- StorageLimitsDB -->
<g id="node13" class="node">
<title>StorageLimitsDB</title>
<ellipse fill="none" stroke="black" cx="1583.94" cy="-90" rx="90.98" ry="18"/>
<text text-anchor="middle" x="1583.94" y="-86.3" font-family="Times,serif" font-size="14.00">StorageLimitsDB</text>
</g>
<!-- DB&#45;&gt;StorageLimitsDB -->
<g id="edge21" class="edge">
<title>DB&#45;&gt;StorageLimitsDB</title>
<path fill="none" stroke="black" d="M909.68,-20.59C994.18,-25.77 1262.92,-43.52 1483.94,-72 1492.23,-73.07 1500.88,-74.32 1509.47,-75.66"/>
<polygon fill="none" stroke="black" points="1509.08,-79.14 1519.5,-77.26 1510.18,-72.23 1509.08,-79.14"/>
</g>
<!-- StatisticsDB -->
<g id="node14" class="node">
<title>StatisticsDB</title>
<ellipse fill="none" stroke="black" cx="1761.94" cy="-90" rx="68.79" ry="18"/>
<text text-anchor="middle" x="1761.94" y="-86.3" font-family="Times,serif" font-size="14.00">StatisticsDB</text>
</g>
<!-- DB&#45;&gt;StatisticsDB -->
<g id="edge23" class="edge">
<title>DB&#45;&gt;StatisticsDB</title>
<path fill="none" stroke="black" d="M910.06,-19.34C1012.09,-20.91 1382.42,-29.41 1683.94,-72 1690.16,-72.88 1696.61,-73.98 1703.03,-75.19"/>
<polygon fill="none" stroke="black" points="1702.55,-78.67 1713.04,-77.18 1703.92,-71.8 1702.55,-78.67"/>
</g>
<!-- BaseDB -->
<g id="node3" class="node">
<title>BaseDB</title>
<ellipse fill="none" stroke="black" cx="882.94" cy="-162" rx="47.39" ry="18"/>
<text text-anchor="middle" x="882.94" y="-158.3" font-family="Times,serif" font-size="14.00">BaseDB</text>
</g>
<!-- AuthenticationDB&#45;&gt;BaseDB -->
<g id="edge2" class="edge">
<title>AuthenticationDB&#45;&gt;BaseDB</title>
<path fill="none" stroke="black" d="M158.39,-102.79C170.51,-104.72 183.09,-106.56 194.94,-108 428.13,-136.36 707.73,-152.37 825.84,-158.31"/>
<polygon fill="none" stroke="black" points="825.92,-161.82 836.09,-158.82 826.27,-154.83 825.92,-161.82"/>
</g>
<!-- AuthorizationDB&#45;&gt;BaseDB -->
<g id="edge4" class="edge">
<title>AuthorizationDB&#45;&gt;BaseDB</title>
<path fill="none" stroke="black" d="M354.33,-102.69C365.5,-104.6 377.05,-106.45 387.94,-108 546.55,-130.51 734.98,-148.21 826.9,-156.26"/>
<polygon fill="none" stroke="black" points="826.82,-159.77 837.09,-157.15 827.43,-152.79 826.82,-159.77"/>
</g>
<!-- ExportDB&#45;&gt;BaseDB -->
<g id="edge6" class="edge">
<title>ExportDB&#45;&gt;BaseDB</title>
<path fill="none" stroke="black" d="M495.04,-102.49C502.94,-104.48 511.17,-106.42 518.94,-108 627.51,-130.03 756.08,-146.54 827.69,-154.9"/>
<polygon fill="none" stroke="black" points="827.5,-158.4 837.83,-156.07 828.3,-151.44 827.5,-158.4"/>
</g>
<!-- ImportDB&#45;&gt;BaseDB -->
<g id="edge8" class="edge">
<title>ImportDB&#45;&gt;BaseDB</title>
<path fill="none" stroke="black" d="M627.15,-102.06C635.05,-104.07 643.24,-106.13 650.94,-108 713.59,-123.22 786.07,-139.58 833.11,-150.03"/>
<polygon fill="none" stroke="black" points="832.52,-153.49 843.04,-152.24 834.04,-146.65 832.52,-153.49"/>
</g>
<!-- ItemsDB&#45;&gt;BaseDB -->
<g id="edge10" class="edge">
<title>ItemsDB&#45;&gt;BaseDB</title>
<path fill="none" stroke="black" d="M743.29,-104.17C771.39,-115.6 812.21,-132.22 842.47,-144.53"/>
<polygon fill="none" stroke="black" points="841.31,-147.84 851.89,-148.36 843.95,-141.35 841.31,-147.84"/>
</g>
<!-- UnitDB&#45;&gt;BaseDB -->
<g id="edge12" class="edge">
<title>UnitDB&#45;&gt;BaseDB</title>
<path fill="none" stroke="black" d="M839.16,-107.24C846.25,-115.94 855.14,-126.85 863.04,-136.57"/>
<polygon fill="none" stroke="black" points="860.37,-138.82 869.4,-144.37 865.8,-134.4 860.37,-138.82"/>
</g>
<!-- UsersDB&#45;&gt;BaseDB -->
<g id="edge14" class="edge">
<title>UsersDB&#45;&gt;BaseDB</title>
<path fill="none" stroke="black" d="M927.2,-107.59C919.97,-116.31 910.99,-127.15 903,-136.79"/>
<polygon fill="none" stroke="black" points="900.27,-134.6 896.59,-144.53 905.66,-139.06 900.27,-134.6"/>
</g>
<!-- OperationsDB&#45;&gt;BaseDB -->
<g id="edge16" class="edge">
<title>OperationsDB&#45;&gt;BaseDB</title>
<path fill="none" stroke="black" d="M1045.66,-105.17C1011.07,-117.03 961.84,-133.93 926.61,-146.02"/>
<polygon fill="none" stroke="black" points="925.38,-142.74 917.06,-149.29 927.66,-149.36 925.38,-142.74"/>
</g>
<!-- WarehouseDB&#45;&gt;BaseDB -->
<g id="edge18" class="edge">
<title>WarehouseDB&#45;&gt;BaseDB</title>
<path fill="none" stroke="black" d="M1201.19,-102.28C1191.44,-104.22 1181.4,-106.19 1171.94,-108 1089.24,-123.85 993.02,-141.3 935.1,-151.69"/>
<polygon fill="none" stroke="black" points="934.32,-148.28 925.1,-153.49 935.56,-155.17 934.32,-148.28"/>
</g>
<!-- StorageDB&#45;&gt;BaseDB -->
<g id="edge20" class="edge">
<title>StorageDB&#45;&gt;BaseDB</title>
<path fill="none" stroke="black" d="M1368.42,-102.52C1359.68,-104.54 1350.55,-106.48 1341.94,-108 1197.91,-133.46 1026.2,-149.54 939.31,-156.69"/>
<polygon fill="none" stroke="black" points="938.82,-153.21 929.14,-157.51 939.39,-160.19 938.82,-153.21"/>
</g>
<!-- StorageLimitsDB&#45;&gt;BaseDB -->
<g id="edge22" class="edge">
<title>StorageLimitsDB&#45;&gt;BaseDB</title>
<path fill="none" stroke="black" d="M1519.5,-102.74C1507.7,-104.66 1495.47,-106.51 1483.94,-108 1284.62,-133.69 1046.49,-150.64 939.68,-157.52"/>
<polygon fill="none" stroke="black" points="939.21,-154.05 929.45,-158.18 939.66,-161.03 939.21,-154.05"/>
</g>
<!-- StatisticsDB&#45;&gt;BaseDB -->
<g id="edge24" class="edge">
<title>StatisticsDB&#45;&gt;BaseDB</title>
<path fill="none" stroke="black" d="M1713.04,-102.82C1703.44,-104.81 1693.41,-106.66 1683.94,-108 1407.5,-147.05 1073.22,-157.44 940.89,-160.11"/>
<polygon fill="none" stroke="black" points="940.52,-156.62 930.59,-160.31 940.66,-163.62 940.52,-156.62"/>
</g>
</g>
</svg>
